<svg xmlns="http://www.w3.org/2000/svg" xmlns:xlink="http://www.w3.org/1999/xlink" width="88" zoomAndPan="magnify" viewBox="0 0 66 66" height="88" preserveAspectRatio="xMidYMid meet" version="1.0"><defs><clipPath id="f0726894c7"><path d="M 2.0625 2.625 L 65.8125 2.625 L 65.8125 66 L 2.0625 66 Z M 2.0625 2.625 " clip-rule="nonzero"/></clipPath></defs><g clip-path="url(#f0726894c7)"><path fill="#000000" d="M 65.644531 34.246094 C 65.644531 51.796875 51.402344 66.035156 33.851562 66.035156 C 16.300781 66.035156 2.0625 51.796875 2.0625 34.246094 C 2.0625 16.695312 16.300781 2.457031 33.851562 2.457031 C 51.402344 2.457031 65.644531 16.695312 65.644531 34.246094 Z M 4.605469 34.246094 C 4.605469 50.390625 17.707031 63.492188 33.851562 63.492188 C 50 63.492188 63.101562 50.390625 63.101562 34.246094 C 63.101562 18.097656 50 5 33.851562 5 C 17.707031 5 4.605469 18.097656 4.605469 34.246094 Z M 35.125 52.046875 C 35.125 52.75 34.554688 53.320312 33.851562 53.320312 C 33.152344 53.320312 32.582031 52.75 32.582031 52.046875 L 32.582031 35.515625 L 16.050781 35.515625 C 15.347656 35.515625 14.777344 34.949219 14.777344 34.246094 C 14.777344 33.542969 15.347656 32.972656 16.050781 32.972656 L 32.582031 32.972656 L 32.582031 16.441406 C 32.582031 15.742188 33.152344 15.171875 33.851562 15.171875 C 34.554688 15.171875 35.125 15.742188 35.125 16.441406 L 35.125 32.972656 L 51.65625 32.972656 C 52.355469 32.972656 52.925781 33.542969 52.925781 34.246094 C 52.925781 34.949219 52.355469 35.515625 51.65625 35.515625 L 35.125 35.515625 Z M 35.125 52.046875 " fill-opacity="1" fill-rule="nonzero"/></g></svg>