<svg xmlns="http://www.w3.org/2000/svg" xmlns:xlink="http://www.w3.org/1999/xlink" width="88" zoomAndPan="magnify" viewBox="0 0 66 66" height="88" preserveAspectRatio="xMidYMid meet" version="1.0"><defs><clipPath id="0283b34695"><path d="M 2.015625 2.015625 L 64.265625 2.015625 L 64.265625 64.265625 L 2.015625 64.265625 Z M 2.015625 2.015625 " clip-rule="nonzero"/></clipPath></defs><g clip-path="url(#0283b34695)"><path fill="#000000" d="M 64.253906 33.132812 C 64.253906 50.320312 50.320312 64.253906 33.132812 64.253906 C 15.945312 64.253906 2.011719 50.320312 2.011719 33.132812 C 2.011719 15.945312 15.945312 2.011719 33.132812 2.011719 C 50.320312 2.011719 64.253906 15.945312 64.253906 33.132812 Z M 34.054688 56.503906 L 34.054688 52.164062 C 45.230469 51.632812 53.628906 41.554688 51.980469 30.339844 L 48.980469 30.777344 C 50.355469 40.140625 43.390625 48.597656 34.054688 49.125 L 34.054688 43.121094 L 23.375 49.8125 Z M 32.210938 9.757812 L 32.210938 14.101562 C 21.03125 14.628906 12.636719 24.710938 14.28125 35.921875 L 17.285156 35.484375 C 15.910156 26.125 22.871094 17.667969 32.210938 17.140625 L 32.210938 23.144531 L 42.890625 16.449219 Z M 5.046875 33.132812 C 5.046875 48.644531 17.621094 61.21875 33.132812 61.21875 C 48.644531 61.21875 61.21875 48.644531 61.21875 33.132812 C 61.21875 17.621094 48.644531 5.046875 33.132812 5.046875 C 17.621094 5.046875 5.046875 17.621094 5.046875 33.132812 Z M 5.046875 33.132812 " fill-opacity="1" fill-rule="nonzero"/></g></svg>