<svg xmlns="http://www.w3.org/2000/svg" xmlns:xlink="http://www.w3.org/1999/xlink" width="150" zoomAndPan="magnify" viewBox="0 0 112.5 37.5" height="50" preserveAspectRatio="xMidYMid meet" version="1.0"><defs><g/></defs><g fill="#4d4d4d" fill-opacity="1"><g transform="translate(1.878493, 27.41361)"><g><path d="M 1.109375 -6.375 C 1.109375 -7.53125 1.285156 -8.535156 1.640625 -9.390625 C 1.992188 -10.253906 2.457031 -10.972656 3.03125 -11.546875 C 3.601562 -12.128906 4.265625 -12.566406 5.015625 -12.859375 C 5.765625 -13.160156 6.53125 -13.3125 7.3125 -13.3125 C 9.15625 -13.3125 10.609375 -12.75 11.671875 -11.625 C 12.742188 -10.5 13.28125 -8.84375 13.28125 -6.65625 C 13.28125 -6.4375 13.269531 -6.195312 13.25 -5.9375 C 13.238281 -5.6875 13.222656 -5.460938 13.203125 -5.265625 L 4.875 -5.265625 C 4.957031 -4.515625 5.3125 -3.914062 5.9375 -3.46875 C 6.5625 -3.03125 7.398438 -2.8125 8.453125 -2.8125 C 9.128906 -2.8125 9.789062 -2.867188 10.4375 -2.984375 C 11.082031 -3.109375 11.613281 -3.265625 12.03125 -3.453125 L 12.515625 -0.46875 C 12.316406 -0.375 12.050781 -0.273438 11.71875 -0.171875 C 11.394531 -0.078125 11.03125 0.00390625 10.625 0.078125 C 10.226562 0.160156 9.800781 0.222656 9.34375 0.265625 C 8.882812 0.316406 8.421875 0.34375 7.953125 0.34375 C 6.785156 0.34375 5.769531 0.171875 4.90625 -0.171875 C 4.050781 -0.515625 3.335938 -0.984375 2.765625 -1.578125 C 2.203125 -2.179688 1.785156 -2.894531 1.515625 -3.71875 C 1.242188 -4.539062 1.109375 -5.425781 1.109375 -6.375 Z M 9.734375 -7.78125 C 9.710938 -8.09375 9.65625 -8.394531 9.5625 -8.6875 C 9.476562 -8.988281 9.34375 -9.253906 9.15625 -9.484375 C 8.96875 -9.710938 8.726562 -9.898438 8.4375 -10.046875 C 8.15625 -10.203125 7.800781 -10.28125 7.375 -10.28125 C 6.957031 -10.28125 6.597656 -10.207031 6.296875 -10.0625 C 6.003906 -9.925781 5.757812 -9.742188 5.5625 -9.515625 C 5.363281 -9.285156 5.210938 -9.015625 5.109375 -8.703125 C 5.003906 -8.398438 4.925781 -8.09375 4.875 -7.78125 Z M 9.734375 -7.78125 "/></g></g></g><g fill="#4d4d4d" fill-opacity="1"><g transform="translate(15.524984, 27.41361)"><g><path d="M 6.671875 -2.5625 C 7.035156 -2.5625 7.378906 -2.566406 7.703125 -2.578125 C 8.035156 -2.597656 8.300781 -2.625 8.5 -2.65625 L 8.5 -5.453125 C 8.351562 -5.484375 8.128906 -5.515625 7.828125 -5.546875 C 7.535156 -5.578125 7.265625 -5.59375 7.015625 -5.59375 C 6.671875 -5.59375 6.347656 -5.570312 6.046875 -5.53125 C 5.742188 -5.488281 5.476562 -5.410156 5.25 -5.296875 C 5.019531 -5.179688 4.835938 -5.023438 4.703125 -4.828125 C 4.578125 -4.628906 4.515625 -4.382812 4.515625 -4.09375 C 4.515625 -3.519531 4.707031 -3.117188 5.09375 -2.890625 C 5.476562 -2.671875 6.003906 -2.5625 6.671875 -2.5625 Z M 6.375 -13.3125 C 7.46875 -13.3125 8.375 -13.1875 9.09375 -12.9375 C 9.8125 -12.6875 10.390625 -12.332031 10.828125 -11.875 C 11.265625 -11.414062 11.570312 -10.859375 11.75 -10.203125 C 11.9375 -9.546875 12.03125 -8.816406 12.03125 -8.015625 L 12.03125 -0.375 C 11.5 -0.257812 10.765625 -0.125 9.828125 0.03125 C 8.890625 0.1875 7.757812 0.265625 6.4375 0.265625 C 5.59375 0.265625 4.828125 0.191406 4.140625 0.046875 C 3.460938 -0.0976562 2.878906 -0.335938 2.390625 -0.671875 C 1.898438 -1.015625 1.519531 -1.457031 1.25 -2 C 0.988281 -2.539062 0.859375 -3.203125 0.859375 -3.984375 C 0.859375 -4.742188 1.007812 -5.382812 1.3125 -5.90625 C 1.625 -6.4375 2.03125 -6.859375 2.53125 -7.171875 C 3.039062 -7.484375 3.625 -7.707031 4.28125 -7.84375 C 4.9375 -7.988281 5.617188 -8.0625 6.328125 -8.0625 C 6.804688 -8.0625 7.226562 -8.039062 7.59375 -8 C 7.96875 -7.957031 8.269531 -7.898438 8.5 -7.828125 L 8.5 -8.1875 C 8.5 -8.800781 8.3125 -9.296875 7.9375 -9.671875 C 7.5625 -10.054688 6.90625 -10.25 5.96875 -10.25 C 5.34375 -10.25 4.722656 -10.203125 4.109375 -10.109375 C 3.503906 -10.023438 2.976562 -9.898438 2.53125 -9.734375 L 2.0625 -12.6875 C 2.28125 -12.75 2.546875 -12.816406 2.859375 -12.890625 C 3.179688 -12.972656 3.53125 -13.039062 3.90625 -13.09375 C 4.289062 -13.15625 4.691406 -13.207031 5.109375 -13.25 C 5.523438 -13.289062 5.945312 -13.3125 6.375 -13.3125 Z M 6.375 -13.3125 "/></g></g></g><g fill="#4d4d4d" fill-opacity="1"><g transform="translate(28.407852, 27.41361)"><g><path d="M 5.453125 -2.640625 C 6.117188 -2.640625 6.59375 -2.703125 6.875 -2.828125 C 7.15625 -2.960938 7.296875 -3.21875 7.296875 -3.59375 C 7.296875 -3.894531 7.113281 -4.15625 6.75 -4.375 C 6.382812 -4.59375 5.832031 -4.84375 5.09375 -5.125 C 4.519531 -5.34375 4 -5.566406 3.53125 -5.796875 C 3.0625 -6.023438 2.660156 -6.296875 2.328125 -6.609375 C 2.003906 -6.929688 1.753906 -7.3125 1.578125 -7.75 C 1.398438 -8.195312 1.3125 -8.734375 1.3125 -9.359375 C 1.3125 -10.578125 1.757812 -11.539062 2.65625 -12.25 C 3.5625 -12.957031 4.800781 -13.3125 6.375 -13.3125 C 7.164062 -13.3125 7.921875 -13.238281 8.640625 -13.09375 C 9.367188 -12.957031 9.945312 -12.804688 10.375 -12.640625 L 9.734375 -9.78125 C 9.304688 -9.925781 8.84375 -10.054688 8.34375 -10.171875 C 7.84375 -10.285156 7.28125 -10.34375 6.65625 -10.34375 C 5.5 -10.34375 4.921875 -10.023438 4.921875 -9.390625 C 4.921875 -9.242188 4.945312 -9.113281 5 -9 C 5.050781 -8.882812 5.148438 -8.769531 5.296875 -8.65625 C 5.441406 -8.550781 5.640625 -8.4375 5.890625 -8.3125 C 6.148438 -8.1875 6.476562 -8.050781 6.875 -7.90625 C 7.675781 -7.613281 8.335938 -7.320312 8.859375 -7.03125 C 9.390625 -6.75 9.804688 -6.4375 10.109375 -6.09375 C 10.421875 -5.757812 10.632812 -5.382812 10.75 -4.96875 C 10.875 -4.5625 10.9375 -4.085938 10.9375 -3.546875 C 10.9375 -2.265625 10.457031 -1.296875 9.5 -0.640625 C 8.539062 0.015625 7.179688 0.34375 5.421875 0.34375 C 4.273438 0.34375 3.316406 0.242188 2.546875 0.046875 C 1.785156 -0.148438 1.257812 -0.3125 0.96875 -0.4375 L 1.578125 -3.421875 C 2.203125 -3.179688 2.84375 -2.988281 3.5 -2.84375 C 4.15625 -2.707031 4.804688 -2.640625 5.453125 -2.640625 Z M 5.453125 -2.640625 "/></g></g></g><g fill="#4d4d4d" fill-opacity="1"><g transform="translate(39.615679, 27.41361)"><g><path d="M 13.234375 -12.953125 C 12.492188 -10.460938 11.71875 -8.125 10.90625 -5.9375 C 10.101562 -3.75 9.226562 -1.628906 8.28125 0.421875 C 7.9375 1.160156 7.59375 1.785156 7.25 2.296875 C 6.90625 2.816406 6.523438 3.242188 6.109375 3.578125 C 5.703125 3.921875 5.238281 4.171875 4.71875 4.328125 C 4.195312 4.484375 3.59375 4.5625 2.90625 4.5625 C 2.332031 4.5625 1.800781 4.503906 1.3125 4.390625 C 0.832031 4.285156 0.4375 4.171875 0.125 4.046875 L 0.765625 1.109375 C 1.140625 1.242188 1.472656 1.332031 1.765625 1.375 C 2.066406 1.425781 2.378906 1.453125 2.703125 1.453125 C 3.367188 1.453125 3.875 1.273438 4.21875 0.921875 C 4.570312 0.566406 4.875 0.078125 5.125 -0.546875 C 4.289062 -2.179688 3.453125 -4.019531 2.609375 -6.0625 C 1.773438 -8.113281 0.988281 -10.410156 0.25 -12.953125 L 4.140625 -12.953125 C 4.304688 -12.316406 4.5 -11.625 4.71875 -10.875 C 4.9375 -10.125 5.171875 -9.367188 5.421875 -8.609375 C 5.671875 -7.847656 5.921875 -7.101562 6.171875 -6.375 C 6.421875 -5.65625 6.664062 -5 6.90625 -4.40625 C 7.113281 -5 7.332031 -5.65625 7.5625 -6.375 C 7.789062 -7.101562 8.015625 -7.847656 8.234375 -8.609375 C 8.460938 -9.367188 8.675781 -10.125 8.875 -10.875 C 9.082031 -11.625 9.269531 -12.316406 9.4375 -12.953125 Z M 13.234375 -12.953125 "/></g></g></g><g fill="#39c6c6" fill-opacity="1"><g transform="translate(56.997934, 27.41361)"><g><path d="M 6.65625 -17.25 C 9.050781 -17.25 10.894531 -16.789062 12.1875 -15.875 C 13.476562 -14.96875 14.125 -13.609375 14.125 -11.796875 C 14.125 -10.816406 13.945312 -9.976562 13.59375 -9.28125 C 13.238281 -8.582031 12.726562 -8.015625 12.0625 -7.578125 C 11.394531 -7.140625 10.582031 -6.820312 9.625 -6.625 C 8.675781 -6.425781 7.601562 -6.328125 6.40625 -6.328125 L 4.515625 -6.328125 L 4.515625 0 L 2.125 0 L 2.125 -16.828125 C 2.789062 -16.992188 3.539062 -17.101562 4.375 -17.15625 C 5.207031 -17.21875 5.96875 -17.25 6.65625 -17.25 Z M 6.84375 -15.15625 C 5.832031 -15.15625 5.054688 -15.128906 4.515625 -15.078125 L 4.515625 -8.375 L 6.3125 -8.375 C 7.132812 -8.375 7.875 -8.425781 8.53125 -8.53125 C 9.1875 -8.644531 9.738281 -8.828125 10.1875 -9.078125 C 10.632812 -9.335938 10.984375 -9.6875 11.234375 -10.125 C 11.484375 -10.570312 11.609375 -11.140625 11.609375 -11.828125 C 11.609375 -12.484375 11.476562 -13.023438 11.21875 -13.453125 C 10.96875 -13.878906 10.625 -14.21875 10.1875 -14.46875 C 9.75 -14.726562 9.242188 -14.90625 8.671875 -15 C 8.097656 -15.101562 7.488281 -15.15625 6.84375 -15.15625 Z M 6.84375 -15.15625 "/></g></g></g><g fill="#39c6c6" fill-opacity="1"><g transform="translate(70.989232, 27.41361)"><g><path d="M 12.171875 -0.375 C 11.648438 -0.238281 10.957031 -0.0976562 10.09375 0.046875 C 9.226562 0.191406 8.226562 0.265625 7.09375 0.265625 C 6.113281 0.265625 5.285156 0.125 4.609375 -0.15625 C 3.929688 -0.445312 3.382812 -0.851562 2.96875 -1.375 C 2.5625 -1.90625 2.269531 -2.523438 2.09375 -3.234375 C 1.914062 -3.953125 1.828125 -4.75 1.828125 -5.625 L 1.828125 -12.8125 L 4.109375 -12.8125 L 4.109375 -6.109375 C 4.109375 -4.546875 4.351562 -3.425781 4.84375 -2.75 C 5.34375 -2.082031 6.175781 -1.75 7.34375 -1.75 C 7.59375 -1.75 7.847656 -1.753906 8.109375 -1.765625 C 8.367188 -1.785156 8.613281 -1.804688 8.84375 -1.828125 C 9.070312 -1.859375 9.28125 -1.882812 9.46875 -1.90625 C 9.65625 -1.9375 9.789062 -1.96875 9.875 -2 L 9.875 -12.8125 L 12.171875 -12.8125 Z M 12.171875 -0.375 "/></g></g></g><g fill="#39c6c6" fill-opacity="1"><g transform="translate(84.143011, 27.41361)"><g><path d="M 4.265625 -12.25 C 4.546875 -12.425781 4.96875 -12.613281 5.53125 -12.8125 C 6.09375 -13.007812 6.742188 -13.109375 7.484375 -13.109375 C 8.410156 -13.109375 9.226562 -12.941406 9.9375 -12.609375 C 10.65625 -12.285156 11.257812 -11.828125 11.75 -11.234375 C 12.25 -10.640625 12.625 -9.929688 12.875 -9.109375 C 13.125 -8.296875 13.25 -7.394531 13.25 -6.40625 C 13.25 -5.375 13.097656 -4.441406 12.796875 -3.609375 C 12.492188 -2.773438 12.0625 -2.070312 11.5 -1.5 C 10.945312 -0.925781 10.273438 -0.484375 9.484375 -0.171875 C 8.691406 0.140625 7.804688 0.296875 6.828125 0.296875 C 5.753906 0.296875 4.804688 0.222656 3.984375 0.078125 C 3.171875 -0.0664062 2.5 -0.21875 1.96875 -0.375 L 1.96875 -18.734375 L 4.265625 -19.125 Z M 4.265625 -2 C 4.492188 -1.925781 4.816406 -1.859375 5.234375 -1.796875 C 5.648438 -1.742188 6.171875 -1.71875 6.796875 -1.71875 C 8.035156 -1.71875 9.019531 -2.125 9.75 -2.9375 C 10.488281 -3.757812 10.859375 -4.914062 10.859375 -6.40625 C 10.859375 -7.0625 10.789062 -7.675781 10.65625 -8.25 C 10.53125 -8.820312 10.316406 -9.316406 10.015625 -9.734375 C 9.722656 -10.160156 9.34375 -10.492188 8.875 -10.734375 C 8.414062 -10.972656 7.851562 -11.09375 7.1875 -11.09375 C 6.570312 -11.09375 6 -10.984375 5.46875 -10.765625 C 4.945312 -10.554688 4.546875 -10.335938 4.265625 -10.109375 Z M 4.265625 -2 "/></g></g></g><g fill="#39c6c6" fill-opacity="1"><g transform="translate(97.666286, 27.41361)"><g><path d="M 5.8125 0.25 C 4.40625 0.21875 3.40625 -0.0820312 2.8125 -0.65625 C 2.21875 -1.238281 1.921875 -2.132812 1.921875 -3.34375 L 1.921875 -18.734375 L 4.21875 -19.125 L 4.21875 -3.71875 C 4.21875 -3.34375 4.25 -3.03125 4.3125 -2.78125 C 4.375 -2.539062 4.476562 -2.34375 4.625 -2.1875 C 4.78125 -2.039062 4.976562 -1.929688 5.21875 -1.859375 C 5.46875 -1.785156 5.773438 -1.722656 6.140625 -1.671875 Z M 5.8125 0.25 "/></g></g></g><g fill="#39c6c6" fill-opacity="1"><g transform="translate(103.405551, 27.41361)"><g><path d="M 4.265625 0 L 1.96875 0 L 1.96875 -12.8125 L 4.265625 -12.8125 Z M 3.109375 -15.125 C 2.691406 -15.125 2.335938 -15.257812 2.046875 -15.53125 C 1.765625 -15.800781 1.625 -16.164062 1.625 -16.625 C 1.625 -17.09375 1.765625 -17.460938 2.046875 -17.734375 C 2.335938 -18.003906 2.691406 -18.140625 3.109375 -18.140625 C 3.515625 -18.140625 3.859375 -18.003906 4.140625 -17.734375 C 4.429688 -17.460938 4.578125 -17.09375 4.578125 -16.625 C 4.578125 -16.164062 4.429688 -15.800781 4.140625 -15.53125 C 3.859375 -15.257812 3.515625 -15.125 3.109375 -15.125 Z M 3.109375 -15.125 "/></g></g></g></svg>