<svg xmlns="http://www.w3.org/2000/svg" xmlns:xlink="http://www.w3.org/1999/xlink" width="500" zoomAndPan="magnify" viewBox="0 0 375 374.999991" height="500" preserveAspectRatio="xMidYMid meet" version="1.0"><defs><g/></defs><rect x="-37.5" width="450" fill="#ffffff" y="-37.499999" height="449.999989" fill-opacity="1"/><rect x="-37.5" width="450" fill="#ffffff" y="-37.499999" height="449.999989" fill-opacity="1"/><rect x="-37.5" width="450" fill="#ffffff" y="-37.499999" height="449.999989" fill-opacity="1"/><g fill="#4d4d4d" fill-opacity="1"><g transform="translate(43.301955, 198.326192)"><g><path d="M 3.03125 -17.40625 C 3.03125 -20.539062 3.507812 -23.28125 4.46875 -25.625 C 5.425781 -27.976562 6.6875 -29.9375 8.25 -31.5 C 9.820312 -33.070312 11.628906 -34.257812 13.671875 -35.0625 C 15.710938 -35.875 17.804688 -36.28125 19.953125 -36.28125 C 24.972656 -36.28125 28.9375 -34.742188 31.84375 -31.671875 C 34.757812 -28.609375 36.21875 -24.097656 36.21875 -18.140625 C 36.21875 -17.554688 36.191406 -16.914062 36.140625 -16.21875 C 36.097656 -15.53125 36.054688 -14.914062 36.015625 -14.375 L 13.296875 -14.375 C 13.523438 -12.3125 14.488281 -10.675781 16.1875 -9.46875 C 17.894531 -8.257812 20.179688 -7.65625 23.046875 -7.65625 C 24.878906 -7.65625 26.679688 -7.820312 28.453125 -8.15625 C 30.222656 -8.5 31.664062 -8.914062 32.78125 -9.40625 L 34.125 -1.28125 C 33.59375 -1.007812 32.878906 -0.738281 31.984375 -0.46875 C 31.085938 -0.195312 30.085938 0.0351562 28.984375 0.234375 C 27.890625 0.429688 26.710938 0.597656 25.453125 0.734375 C 24.203125 0.867188 22.953125 0.9375 21.703125 0.9375 C 18.523438 0.9375 15.757812 0.46875 13.40625 -0.46875 C 11.050781 -1.40625 9.097656 -2.691406 7.546875 -4.328125 C 6.003906 -5.960938 4.863281 -7.898438 4.125 -10.140625 C 3.394531 -12.378906 3.03125 -14.800781 3.03125 -17.40625 Z M 26.546875 -21.234375 C 26.492188 -22.085938 26.34375 -22.914062 26.09375 -23.71875 C 25.851562 -24.519531 25.472656 -25.234375 24.953125 -25.859375 C 24.441406 -26.492188 23.796875 -27.007812 23.015625 -27.40625 C 22.234375 -27.8125 21.257812 -28.015625 20.09375 -28.015625 C 18.96875 -28.015625 18 -27.820312 17.1875 -27.4375 C 16.382812 -27.0625 15.710938 -26.5625 15.171875 -25.9375 C 14.640625 -25.3125 14.226562 -24.582031 13.9375 -23.75 C 13.644531 -22.925781 13.429688 -22.085938 13.296875 -21.234375 Z M 26.546875 -21.234375 "/></g></g></g><g fill="#4d4d4d" fill-opacity="1"><g transform="translate(80.513882, 198.326192)"><g><path d="M 18.203125 -6.984375 C 19.191406 -6.984375 20.132812 -7.003906 21.03125 -7.046875 C 21.925781 -7.097656 22.644531 -7.164062 23.1875 -7.25 L 23.1875 -14.84375 C 22.78125 -14.9375 22.171875 -15.023438 21.359375 -15.109375 C 20.554688 -15.203125 19.820312 -15.25 19.15625 -15.25 C 18.207031 -15.25 17.316406 -15.191406 16.484375 -15.078125 C 15.660156 -14.972656 14.9375 -14.757812 14.3125 -14.4375 C 13.6875 -14.125 13.191406 -13.695312 12.828125 -13.15625 C 12.472656 -12.625 12.296875 -11.957031 12.296875 -11.15625 C 12.296875 -9.582031 12.820312 -8.492188 13.875 -7.890625 C 14.925781 -7.285156 16.367188 -6.984375 18.203125 -6.984375 Z M 17.40625 -36.28125 C 20.363281 -36.28125 22.828125 -35.941406 24.796875 -35.265625 C 26.765625 -34.597656 28.34375 -33.632812 29.53125 -32.375 C 30.71875 -31.125 31.554688 -29.601562 32.046875 -27.8125 C 32.535156 -26.019531 32.78125 -24.03125 32.78125 -21.84375 L 32.78125 -1.015625 C 31.351562 -0.691406 29.363281 -0.320312 26.8125 0.09375 C 24.257812 0.519531 21.164062 0.734375 17.53125 0.734375 C 15.25 0.734375 13.175781 0.53125 11.3125 0.125 C 9.457031 -0.269531 7.859375 -0.925781 6.515625 -1.84375 C 5.171875 -2.757812 4.140625 -3.957031 3.421875 -5.4375 C 2.710938 -6.914062 2.359375 -8.734375 2.359375 -10.890625 C 2.359375 -12.941406 2.769531 -14.6875 3.59375 -16.125 C 4.425781 -17.5625 5.535156 -18.703125 6.921875 -19.546875 C 8.304688 -20.398438 9.894531 -21.015625 11.6875 -21.390625 C 13.476562 -21.773438 15.335938 -21.96875 17.265625 -21.96875 C 18.566406 -21.96875 19.71875 -21.910156 20.71875 -21.796875 C 21.726562 -21.691406 22.550781 -21.546875 23.1875 -21.359375 L 23.1875 -22.3125 C 23.1875 -24.007812 22.671875 -25.375 21.640625 -26.40625 C 20.609375 -27.4375 18.816406 -27.953125 16.265625 -27.953125 C 14.554688 -27.953125 12.875 -27.828125 11.21875 -27.578125 C 9.5625 -27.335938 8.128906 -26.992188 6.921875 -26.546875 L 5.640625 -34.609375 C 6.222656 -34.785156 6.953125 -34.972656 7.828125 -35.171875 C 8.703125 -35.367188 9.65625 -35.546875 10.6875 -35.703125 C 11.71875 -35.867188 12.800781 -36.003906 13.9375 -36.109375 C 15.082031 -36.222656 16.238281 -36.28125 17.40625 -36.28125 Z M 17.40625 -36.28125 "/></g></g></g><g fill="#4d4d4d" fill-opacity="1"><g transform="translate(115.643523, 198.326192)"><g><path d="M 14.84375 -7.1875 C 16.6875 -7.1875 17.988281 -7.363281 18.75 -7.71875 C 19.507812 -8.082031 19.890625 -8.78125 19.890625 -9.8125 C 19.890625 -10.613281 19.394531 -11.316406 18.40625 -11.921875 C 17.425781 -12.523438 15.925781 -13.207031 13.90625 -13.96875 C 12.34375 -14.550781 10.921875 -15.15625 9.640625 -15.78125 C 8.367188 -16.414062 7.285156 -17.164062 6.390625 -18.03125 C 5.492188 -18.90625 4.796875 -19.945312 4.296875 -21.15625 C 3.804688 -22.375 3.5625 -23.832031 3.5625 -25.53125 C 3.5625 -28.84375 4.789062 -31.460938 7.25 -33.390625 C 9.71875 -35.316406 13.101562 -36.28125 17.40625 -36.28125 C 19.550781 -36.28125 21.609375 -36.085938 23.578125 -35.703125 C 25.554688 -35.328125 27.125 -34.914062 28.28125 -34.46875 L 26.546875 -26.671875 C 25.378906 -27.078125 24.109375 -27.4375 22.734375 -27.75 C 21.367188 -28.0625 19.835938 -28.21875 18.140625 -28.21875 C 15.003906 -28.21875 13.4375 -27.34375 13.4375 -25.59375 C 13.4375 -25.195312 13.503906 -24.835938 13.640625 -24.515625 C 13.773438 -24.203125 14.039062 -23.898438 14.4375 -23.609375 C 14.84375 -23.328125 15.394531 -23.015625 16.09375 -22.671875 C 16.789062 -22.335938 17.675781 -21.96875 18.75 -21.5625 C 20.9375 -20.757812 22.75 -19.960938 24.1875 -19.171875 C 25.625 -18.390625 26.753906 -17.539062 27.578125 -16.625 C 28.410156 -15.707031 28.992188 -14.6875 29.328125 -13.5625 C 29.660156 -12.445312 29.828125 -11.148438 29.828125 -9.671875 C 29.828125 -6.179688 28.515625 -3.539062 25.890625 -1.75 C 23.273438 0.0390625 19.570312 0.9375 14.78125 0.9375 C 11.644531 0.9375 9.035156 0.664062 6.953125 0.125 C 4.867188 -0.40625 3.425781 -0.847656 2.625 -1.203125 L 4.296875 -9.34375 C 6.003906 -8.664062 7.753906 -8.132812 9.546875 -7.75 C 11.335938 -7.375 13.101562 -7.1875 14.84375 -7.1875 Z M 14.84375 -7.1875 "/></g></g></g><g fill="#4d4d4d" fill-opacity="1"><g transform="translate(146.205581, 198.326192)"><g><path d="M 36.078125 -35.34375 C 34.066406 -28.53125 31.960938 -22.144531 29.765625 -16.1875 C 27.566406 -10.226562 25.171875 -4.453125 22.578125 1.140625 C 21.640625 3.160156 20.695312 4.875 19.75 6.28125 C 18.8125 7.695312 17.78125 8.863281 16.65625 9.78125 C 15.539062 10.695312 14.273438 11.367188 12.859375 11.796875 C 11.453125 12.222656 9.804688 12.4375 7.921875 12.4375 C 6.359375 12.4375 4.914062 12.289062 3.59375 12 C 2.269531 11.707031 1.1875 11.378906 0.34375 11.015625 L 2.078125 3.03125 C 3.109375 3.382812 4.023438 3.628906 4.828125 3.765625 C 5.640625 3.898438 6.492188 3.96875 7.390625 3.96875 C 9.179688 3.96875 10.554688 3.484375 11.515625 2.515625 C 12.484375 1.554688 13.300781 0.222656 13.96875 -1.484375 C 11.6875 -5.960938 9.40625 -10.988281 7.125 -16.5625 C 4.84375 -22.132812 2.691406 -28.394531 0.671875 -35.34375 L 11.28125 -35.34375 C 11.726562 -33.59375 12.253906 -31.695312 12.859375 -29.65625 C 13.472656 -27.625 14.113281 -25.566406 14.78125 -23.484375 C 15.457031 -21.398438 16.140625 -19.375 16.828125 -17.40625 C 17.523438 -15.4375 18.1875 -13.644531 18.8125 -12.03125 C 19.394531 -13.644531 20 -15.4375 20.625 -17.40625 C 21.25 -19.375 21.863281 -21.398438 22.46875 -23.484375 C 23.070312 -25.566406 23.65625 -27.625 24.21875 -29.65625 C 24.78125 -31.695312 25.285156 -33.59375 25.734375 -35.34375 Z M 36.078125 -35.34375 "/></g></g></g><g fill="#39c6c6" fill-opacity="1"><g transform="translate(193.604363, 198.326192)"><g><path d="M 18.140625 -47.03125 C 24.679688 -47.03125 29.707031 -45.785156 33.21875 -43.296875 C 36.738281 -40.816406 38.5 -37.113281 38.5 -32.1875 C 38.5 -29.5 38.015625 -27.203125 37.046875 -25.296875 C 36.085938 -23.390625 34.703125 -21.84375 32.890625 -20.65625 C 31.078125 -19.46875 28.867188 -18.601562 26.265625 -18.0625 C 23.671875 -17.53125 20.738281 -17.265625 17.46875 -17.265625 L 12.296875 -17.265625 L 12.296875 0 L 5.78125 0 L 5.78125 -45.890625 C 7.613281 -46.335938 9.660156 -46.640625 11.921875 -46.796875 C 14.179688 -46.953125 16.253906 -47.03125 18.140625 -47.03125 Z M 18.671875 -41.328125 C 15.898438 -41.328125 13.773438 -41.257812 12.296875 -41.125 L 12.296875 -22.84375 L 17.203125 -22.84375 C 19.441406 -22.84375 21.457031 -22.988281 23.25 -23.28125 C 25.039062 -23.570312 26.550781 -24.0625 27.78125 -24.75 C 29.007812 -25.445312 29.957031 -26.398438 30.625 -27.609375 C 31.300781 -28.816406 31.640625 -30.363281 31.640625 -32.25 C 31.640625 -34.039062 31.289062 -35.519531 30.59375 -36.6875 C 29.90625 -37.851562 28.96875 -38.78125 27.78125 -39.46875 C 26.59375 -40.164062 25.210938 -40.648438 23.640625 -40.921875 C 22.078125 -41.191406 20.421875 -41.328125 18.671875 -41.328125 Z M 18.671875 -41.328125 "/></g></g></g><g fill="#39c6c6" fill-opacity="1"><g transform="translate(231.756528, 198.326192)"><g><path d="M 33.1875 -1.015625 C 31.757812 -0.648438 29.867188 -0.269531 27.515625 0.125 C 25.160156 0.53125 22.4375 0.734375 19.34375 0.734375 C 16.65625 0.734375 14.394531 0.34375 12.5625 -0.4375 C 10.726562 -1.21875 9.25 -2.320312 8.125 -3.75 C 7.007812 -5.1875 6.203125 -6.878906 5.703125 -8.828125 C 5.210938 -10.785156 4.96875 -12.945312 4.96875 -15.3125 L 4.96875 -34.9375 L 11.21875 -34.9375 L 11.21875 -16.65625 C 11.21875 -12.40625 11.890625 -9.359375 13.234375 -7.515625 C 14.578125 -5.679688 16.835938 -4.765625 20.015625 -4.765625 C 20.691406 -4.765625 21.390625 -4.785156 22.109375 -4.828125 C 22.828125 -4.878906 23.5 -4.9375 24.125 -5 C 24.75 -5.070312 25.316406 -5.140625 25.828125 -5.203125 C 26.347656 -5.273438 26.71875 -5.351562 26.9375 -5.4375 L 26.9375 -34.9375 L 33.1875 -34.9375 Z M 33.1875 -1.015625 "/></g></g></g><g fill="#39c6c6" fill-opacity="1"><g transform="translate(267.624902, 198.326192)"><g><path d="M 11.625 -33.390625 C 12.382812 -33.878906 13.535156 -34.394531 15.078125 -34.9375 C 16.628906 -35.476562 18.410156 -35.75 20.421875 -35.75 C 22.929688 -35.75 25.160156 -35.300781 27.109375 -34.40625 C 29.054688 -33.507812 30.703125 -32.253906 32.046875 -30.640625 C 33.390625 -29.023438 34.40625 -27.097656 35.09375 -24.859375 C 35.789062 -22.617188 36.140625 -20.15625 36.140625 -17.46875 C 36.140625 -14.644531 35.722656 -12.101562 34.890625 -9.84375 C 34.066406 -7.582031 32.894531 -5.664062 31.375 -4.09375 C 29.851562 -2.53125 28.015625 -1.320312 25.859375 -0.46875 C 23.710938 0.382812 21.296875 0.8125 18.609375 0.8125 C 15.703125 0.8125 13.128906 0.609375 10.890625 0.203125 C 8.648438 -0.203125 6.8125 -0.609375 5.375 -1.015625 L 5.375 -51.0625 L 11.625 -52.140625 Z M 11.625 -5.4375 C 12.25 -5.257812 13.128906 -5.09375 14.265625 -4.9375 C 15.410156 -4.78125 16.835938 -4.703125 18.546875 -4.703125 C 21.898438 -4.703125 24.582031 -5.8125 26.59375 -8.03125 C 28.613281 -10.25 29.625 -13.394531 29.625 -17.46875 C 29.625 -19.257812 29.445312 -20.9375 29.09375 -22.5 C 28.738281 -24.070312 28.15625 -25.425781 27.34375 -26.5625 C 26.539062 -27.707031 25.5 -28.601562 24.21875 -29.25 C 22.945312 -29.90625 21.414062 -30.234375 19.625 -30.234375 C 17.914062 -30.234375 16.34375 -29.941406 14.90625 -29.359375 C 13.476562 -28.773438 12.382812 -28.171875 11.625 -27.546875 Z M 11.625 -5.4375 "/></g></g></g><g fill="#39c6c6" fill-opacity="1"><g transform="translate(304.500838, 198.326192)"><g><path d="M 15.859375 0.671875 C 12.003906 0.578125 9.269531 -0.25 7.65625 -1.8125 C 6.039062 -3.382812 5.234375 -5.828125 5.234375 -9.140625 L 5.234375 -51.0625 L 11.484375 -52.140625 L 11.484375 -10.140625 C 11.484375 -9.109375 11.570312 -8.253906 11.75 -7.578125 C 11.9375 -6.910156 12.226562 -6.375 12.625 -5.96875 C 13.03125 -5.570312 13.566406 -5.269531 14.234375 -5.0625 C 14.910156 -4.863281 15.742188 -4.695312 16.734375 -4.5625 Z M 15.859375 0.671875 "/></g></g></g><g fill="#39c6c6" fill-opacity="1"><g transform="translate(320.15095, 198.326192)"><g><path d="M 11.625 0 L 5.375 0 L 5.375 -34.9375 L 11.625 -34.9375 Z M 8.46875 -41.25 C 7.34375 -41.25 6.390625 -41.617188 5.609375 -42.359375 C 4.828125 -43.097656 4.4375 -44.097656 4.4375 -45.359375 C 4.4375 -46.609375 4.828125 -47.601562 5.609375 -48.34375 C 6.390625 -49.082031 7.34375 -49.453125 8.46875 -49.453125 C 9.582031 -49.453125 10.53125 -49.082031 11.3125 -48.34375 C 12.101562 -47.601562 12.5 -46.609375 12.5 -45.359375 C 12.5 -44.097656 12.101562 -43.097656 11.3125 -42.359375 C 10.53125 -41.617188 9.582031 -41.25 8.46875 -41.25 Z M 8.46875 -41.25 "/></g></g></g></svg>