<svg xmlns="http://www.w3.org/2000/svg" xmlns:xlink="http://www.w3.org/1999/xlink" width="170" zoomAndPan="magnify" viewBox="0 0 127.5 52.499999" height="70" preserveAspectRatio="xMidYMid meet" version="1.0"><defs><g/></defs><g fill="#4d4d4d" fill-opacity="1"><g transform="translate(1.928626, 36.142018)"><g><path d="M 1.265625 -7.25 C 1.265625 -8.5625 1.460938 -9.707031 1.859375 -10.6875 C 2.265625 -11.664062 2.789062 -12.484375 3.4375 -13.140625 C 4.09375 -13.796875 4.84375 -14.289062 5.6875 -14.625 C 6.539062 -14.957031 7.421875 -15.125 8.328125 -15.125 C 10.410156 -15.125 12.054688 -14.484375 13.265625 -13.203125 C 14.484375 -11.929688 15.09375 -10.050781 15.09375 -7.5625 C 15.09375 -7.320312 15.082031 -7.054688 15.0625 -6.765625 C 15.050781 -6.472656 15.035156 -6.21875 15.015625 -6 L 5.546875 -6 C 5.640625 -5.132812 6.039062 -4.445312 6.75 -3.9375 C 7.457031 -3.4375 8.410156 -3.1875 9.609375 -3.1875 C 10.378906 -3.1875 11.128906 -3.253906 11.859375 -3.390625 C 12.597656 -3.535156 13.203125 -3.710938 13.671875 -3.921875 L 14.234375 -0.53125 C 14.003906 -0.414062 13.703125 -0.300781 13.328125 -0.1875 C 12.960938 -0.0820312 12.550781 0.0078125 12.09375 0.09375 C 11.632812 0.175781 11.140625 0.242188 10.609375 0.296875 C 10.085938 0.359375 9.566406 0.390625 9.046875 0.390625 C 7.722656 0.390625 6.570312 0.195312 5.59375 -0.1875 C 4.613281 -0.582031 3.800781 -1.117188 3.15625 -1.796875 C 2.507812 -2.484375 2.03125 -3.289062 1.71875 -4.21875 C 1.414062 -5.15625 1.265625 -6.164062 1.265625 -7.25 Z M 11.0625 -8.859375 C 11.039062 -9.210938 10.976562 -9.554688 10.875 -9.890625 C 10.78125 -10.222656 10.625 -10.519531 10.40625 -10.78125 C 10.1875 -11.039062 9.914062 -11.253906 9.59375 -11.421875 C 9.269531 -11.597656 8.863281 -11.6875 8.375 -11.6875 C 7.90625 -11.6875 7.503906 -11.601562 7.171875 -11.4375 C 6.835938 -11.28125 6.554688 -11.070312 6.328125 -10.8125 C 6.109375 -10.550781 5.9375 -10.25 5.8125 -9.90625 C 5.6875 -9.5625 5.597656 -9.210938 5.546875 -8.859375 Z M 11.0625 -8.859375 "/></g></g></g><g fill="#4d4d4d" fill-opacity="1"><g transform="translate(17.444931, 36.142018)"><g><path d="M 7.59375 -2.90625 C 8 -2.90625 8.390625 -2.914062 8.765625 -2.9375 C 9.140625 -2.957031 9.441406 -2.988281 9.671875 -3.03125 L 9.671875 -6.1875 C 9.492188 -6.226562 9.238281 -6.265625 8.90625 -6.296875 C 8.570312 -6.335938 8.265625 -6.359375 7.984375 -6.359375 C 7.585938 -6.359375 7.21875 -6.332031 6.875 -6.28125 C 6.53125 -6.238281 6.226562 -6.148438 5.96875 -6.015625 C 5.707031 -5.890625 5.5 -5.710938 5.34375 -5.484375 C 5.195312 -5.265625 5.125 -4.988281 5.125 -4.65625 C 5.125 -4 5.34375 -3.539062 5.78125 -3.28125 C 6.21875 -3.03125 6.820312 -2.90625 7.59375 -2.90625 Z M 7.25 -15.125 C 8.488281 -15.125 9.519531 -14.984375 10.34375 -14.703125 C 11.164062 -14.421875 11.820312 -14.019531 12.3125 -13.5 C 12.8125 -12.976562 13.160156 -12.34375 13.359375 -11.59375 C 13.566406 -10.851562 13.671875 -10.023438 13.671875 -9.109375 L 13.671875 -0.421875 C 13.078125 -0.285156 12.242188 -0.128906 11.171875 0.046875 C 10.109375 0.222656 8.820312 0.3125 7.3125 0.3125 C 6.363281 0.3125 5.5 0.222656 4.71875 0.046875 C 3.945312 -0.117188 3.28125 -0.390625 2.71875 -0.765625 C 2.15625 -1.148438 1.722656 -1.648438 1.421875 -2.265625 C 1.128906 -2.878906 0.984375 -3.632812 0.984375 -4.53125 C 0.984375 -5.394531 1.15625 -6.125 1.5 -6.71875 C 1.84375 -7.320312 2.300781 -7.800781 2.875 -8.15625 C 3.457031 -8.507812 4.125 -8.765625 4.875 -8.921875 C 5.625 -9.078125 6.398438 -9.15625 7.203125 -9.15625 C 7.742188 -9.15625 8.222656 -9.128906 8.640625 -9.078125 C 9.054688 -9.035156 9.398438 -8.976562 9.671875 -8.90625 L 9.671875 -9.296875 C 9.671875 -10.003906 9.453125 -10.570312 9.015625 -11 C 8.585938 -11.4375 7.84375 -11.65625 6.78125 -11.65625 C 6.070312 -11.65625 5.367188 -11.601562 4.671875 -11.5 C 3.984375 -11.394531 3.390625 -11.25 2.890625 -11.0625 L 2.359375 -14.421875 C 2.597656 -14.503906 2.898438 -14.585938 3.265625 -14.671875 C 3.628906 -14.753906 4.023438 -14.828125 4.453125 -14.890625 C 4.878906 -14.953125 5.332031 -15.003906 5.8125 -15.046875 C 6.289062 -15.097656 6.769531 -15.125 7.25 -15.125 Z M 7.25 -15.125 "/></g></g></g><g fill="#4d4d4d" fill-opacity="1"><g transform="translate(32.092982, 36.142018)"><g><path d="M 6.1875 -3 C 6.957031 -3 7.5 -3.070312 7.8125 -3.21875 C 8.132812 -3.375 8.296875 -3.664062 8.296875 -4.09375 C 8.296875 -4.425781 8.085938 -4.71875 7.671875 -4.96875 C 7.265625 -5.21875 6.640625 -5.503906 5.796875 -5.828125 C 5.140625 -6.066406 4.546875 -6.316406 4.015625 -6.578125 C 3.484375 -6.835938 3.03125 -7.148438 2.65625 -7.515625 C 2.28125 -7.878906 1.988281 -8.3125 1.78125 -8.8125 C 1.582031 -9.320312 1.484375 -9.929688 1.484375 -10.640625 C 1.484375 -12.023438 1.992188 -13.117188 3.015625 -13.921875 C 4.046875 -14.722656 5.457031 -15.125 7.25 -15.125 C 8.144531 -15.125 9.003906 -15.046875 9.828125 -14.890625 C 10.648438 -14.734375 11.304688 -14.5625 11.796875 -14.375 L 11.0625 -11.125 C 10.582031 -11.289062 10.054688 -11.4375 9.484375 -11.5625 C 8.910156 -11.695312 8.269531 -11.765625 7.5625 -11.765625 C 6.257812 -11.765625 5.609375 -11.398438 5.609375 -10.671875 C 5.609375 -10.503906 5.632812 -10.351562 5.6875 -10.21875 C 5.738281 -10.09375 5.847656 -9.96875 6.015625 -9.84375 C 6.191406 -9.726562 6.421875 -9.597656 6.703125 -9.453125 C 6.992188 -9.316406 7.363281 -9.164062 7.8125 -9 C 8.726562 -8.65625 9.484375 -8.320312 10.078125 -8 C 10.679688 -7.675781 11.15625 -7.320312 11.5 -6.9375 C 11.84375 -6.550781 12.082031 -6.125 12.21875 -5.65625 C 12.363281 -5.1875 12.4375 -4.644531 12.4375 -4.03125 C 12.4375 -2.570312 11.890625 -1.46875 10.796875 -0.71875 C 9.703125 0.0195312 8.15625 0.390625 6.15625 0.390625 C 4.851562 0.390625 3.765625 0.273438 2.890625 0.046875 C 2.023438 -0.171875 1.425781 -0.351562 1.09375 -0.5 L 1.796875 -3.890625 C 2.503906 -3.609375 3.226562 -3.390625 3.96875 -3.234375 C 4.71875 -3.078125 5.457031 -3 6.1875 -3 Z M 6.1875 -3 "/></g></g></g><g fill="#4d4d4d" fill-opacity="1"><g transform="translate(44.836482, 36.142018)"><g><path d="M 15.046875 -14.734375 C 14.203125 -11.898438 13.320312 -9.238281 12.40625 -6.75 C 11.488281 -4.269531 10.488281 -1.863281 9.40625 0.46875 C 9.019531 1.3125 8.628906 2.023438 8.234375 2.609375 C 7.835938 3.203125 7.40625 3.691406 6.9375 4.078125 C 6.476562 4.460938 5.953125 4.742188 5.359375 4.921875 C 4.773438 5.097656 4.09375 5.1875 3.3125 5.1875 C 2.65625 5.1875 2.050781 5.125 1.5 5 C 0.945312 4.875 0.492188 4.738281 0.140625 4.59375 L 0.875 1.265625 C 1.300781 1.410156 1.679688 1.507812 2.015625 1.5625 C 2.347656 1.625 2.703125 1.65625 3.078125 1.65625 C 3.828125 1.65625 4.398438 1.453125 4.796875 1.046875 C 5.203125 0.648438 5.546875 0.0976562 5.828125 -0.609375 C 4.878906 -2.484375 3.925781 -4.582031 2.96875 -6.90625 C 2.019531 -9.226562 1.125 -11.835938 0.28125 -14.734375 L 4.703125 -14.734375 C 4.890625 -14.003906 5.109375 -13.210938 5.359375 -12.359375 C 5.617188 -11.515625 5.882812 -10.65625 6.15625 -9.78125 C 6.4375 -8.914062 6.722656 -8.070312 7.015625 -7.25 C 7.304688 -6.425781 7.582031 -5.679688 7.84375 -5.015625 C 8.082031 -5.679688 8.332031 -6.425781 8.59375 -7.25 C 8.863281 -8.070312 9.125 -8.914062 9.375 -9.78125 C 9.625 -10.65625 9.863281 -11.515625 10.09375 -12.359375 C 10.332031 -13.210938 10.546875 -14.003906 10.734375 -14.734375 Z M 15.046875 -14.734375 "/></g></g></g><g fill="#39c6c6" fill-opacity="1"><g transform="translate(64.60041, 36.142018)"><g><path d="M 7.5625 -19.609375 C 10.289062 -19.609375 12.382812 -19.085938 13.84375 -18.046875 C 15.3125 -17.015625 16.046875 -15.472656 16.046875 -13.421875 C 16.046875 -12.296875 15.84375 -11.335938 15.4375 -10.546875 C 15.039062 -9.753906 14.460938 -9.109375 13.703125 -8.609375 C 12.953125 -8.117188 12.035156 -7.757812 10.953125 -7.53125 C 9.867188 -7.3125 8.644531 -7.203125 7.28125 -7.203125 L 5.125 -7.203125 L 5.125 0 L 2.40625 0 L 2.40625 -19.140625 C 3.175781 -19.328125 4.03125 -19.453125 4.96875 -19.515625 C 5.914062 -19.578125 6.78125 -19.609375 7.5625 -19.609375 Z M 7.78125 -17.234375 C 6.625 -17.234375 5.738281 -17.203125 5.125 -17.140625 L 5.125 -9.53125 L 7.171875 -9.53125 C 8.109375 -9.53125 8.945312 -9.585938 9.6875 -9.703125 C 10.4375 -9.828125 11.066406 -10.035156 11.578125 -10.328125 C 12.097656 -10.617188 12.5 -11.015625 12.78125 -11.515625 C 13.0625 -12.015625 13.203125 -12.660156 13.203125 -13.453125 C 13.203125 -14.191406 13.054688 -14.804688 12.765625 -15.296875 C 12.472656 -15.785156 12.078125 -16.171875 11.578125 -16.453125 C 11.085938 -16.742188 10.515625 -16.945312 9.859375 -17.0625 C 9.203125 -17.175781 8.507812 -17.234375 7.78125 -17.234375 Z M 7.78125 -17.234375 "/></g></g></g><g fill="#39c6c6" fill-opacity="1"><g transform="translate(80.508767, 36.142018)"><g><path d="M 13.84375 -0.421875 C 13.238281 -0.273438 12.445312 -0.117188 11.46875 0.046875 C 10.488281 0.222656 9.351562 0.3125 8.0625 0.3125 C 6.945312 0.3125 6.003906 0.148438 5.234375 -0.171875 C 4.472656 -0.503906 3.859375 -0.96875 3.390625 -1.5625 C 2.921875 -2.164062 2.582031 -2.875 2.375 -3.6875 C 2.175781 -4.5 2.078125 -5.398438 2.078125 -6.390625 L 2.078125 -14.5625 L 4.671875 -14.5625 L 4.671875 -6.953125 C 4.671875 -5.171875 4.953125 -3.894531 5.515625 -3.125 C 6.078125 -2.363281 7.019531 -1.984375 8.34375 -1.984375 C 8.625 -1.984375 8.914062 -1.992188 9.21875 -2.015625 C 9.519531 -2.035156 9.800781 -2.054688 10.0625 -2.078125 C 10.320312 -2.109375 10.554688 -2.140625 10.765625 -2.171875 C 10.984375 -2.203125 11.140625 -2.234375 11.234375 -2.265625 L 11.234375 -14.5625 L 13.84375 -14.5625 Z M 13.84375 -0.421875 "/></g></g></g><g fill="#39c6c6" fill-opacity="1"><g transform="translate(95.464849, 36.142018)"><g><path d="M 4.84375 -13.921875 C 5.164062 -14.128906 5.644531 -14.34375 6.28125 -14.5625 C 6.925781 -14.789062 7.671875 -14.90625 8.515625 -14.90625 C 9.554688 -14.90625 10.484375 -14.71875 11.296875 -14.34375 C 12.109375 -13.96875 12.796875 -13.441406 13.359375 -12.765625 C 13.921875 -12.097656 14.347656 -11.296875 14.640625 -10.359375 C 14.929688 -9.429688 15.078125 -8.40625 15.078125 -7.28125 C 15.078125 -6.101562 14.898438 -5.039062 14.546875 -4.09375 C 14.203125 -3.15625 13.710938 -2.359375 13.078125 -1.703125 C 12.441406 -1.054688 11.675781 -0.550781 10.78125 -0.1875 C 9.882812 0.164062 8.878906 0.34375 7.765625 0.34375 C 6.546875 0.34375 5.46875 0.253906 4.53125 0.078125 C 3.601562 -0.0859375 2.835938 -0.253906 2.234375 -0.421875 L 2.234375 -21.296875 L 4.84375 -21.734375 Z M 4.84375 -2.265625 C 5.101562 -2.191406 5.472656 -2.125 5.953125 -2.0625 C 6.429688 -2 7.023438 -1.96875 7.734375 -1.96875 C 9.128906 -1.96875 10.25 -2.425781 11.09375 -3.34375 C 11.9375 -4.269531 12.359375 -5.582031 12.359375 -7.28125 C 12.359375 -8.03125 12.28125 -8.726562 12.125 -9.375 C 11.976562 -10.03125 11.734375 -10.597656 11.390625 -11.078125 C 11.054688 -11.554688 10.625 -11.929688 10.09375 -12.203125 C 9.5625 -12.472656 8.925781 -12.609375 8.1875 -12.609375 C 7.46875 -12.609375 6.8125 -12.484375 6.21875 -12.234375 C 5.625 -11.992188 5.164062 -11.742188 4.84375 -11.484375 Z M 4.84375 -2.265625 "/></g></g></g><g fill="#39c6c6" fill-opacity="1"><g transform="translate(110.841055, 36.142018)"><g><path d="M 6.609375 0.28125 C 5.003906 0.238281 3.863281 -0.101562 3.1875 -0.75 C 2.519531 -1.40625 2.1875 -2.425781 2.1875 -3.8125 L 2.1875 -21.296875 L 4.796875 -21.734375 L 4.796875 -4.234375 C 4.796875 -3.804688 4.832031 -3.453125 4.90625 -3.171875 C 4.976562 -2.890625 5.097656 -2.660156 5.265625 -2.484375 C 5.429688 -2.316406 5.65625 -2.191406 5.9375 -2.109375 C 6.21875 -2.023438 6.5625 -1.957031 6.96875 -1.90625 Z M 6.609375 0.28125 "/></g></g></g><g fill="#39c6c6" fill-opacity="1"><g transform="translate(117.366703, 36.142018)"><g><path d="M 4.84375 0 L 2.234375 0 L 2.234375 -14.5625 L 4.84375 -14.5625 Z M 3.53125 -17.203125 C 3.0625 -17.203125 2.660156 -17.351562 2.328125 -17.65625 C 2.003906 -17.96875 1.84375 -18.382812 1.84375 -18.90625 C 1.84375 -19.425781 2.003906 -19.84375 2.328125 -20.15625 C 2.660156 -20.46875 3.0625 -20.625 3.53125 -20.625 C 4 -20.625 4.394531 -20.46875 4.71875 -20.15625 C 5.039062 -19.84375 5.203125 -19.425781 5.203125 -18.90625 C 5.203125 -18.382812 5.039062 -17.96875 4.71875 -17.65625 C 4.394531 -17.351562 4 -17.203125 3.53125 -17.203125 Z M 3.53125 -17.203125 "/></g></g></g></svg>