<svg xmlns="http://www.w3.org/2000/svg" xmlns:xlink="http://www.w3.org/1999/xlink" width="88" zoomAndPan="magnify" viewBox="0 0 66 66" height="88" preserveAspectRatio="xMidYMid meet" version="1.0"><defs><clipPath id="4ad39c006b"><path d="M 8.53125 1 L 57.28125 1 L 57.28125 66 L 8.53125 66 Z M 8.53125 1 " clip-rule="nonzero"/></clipPath></defs><g clip-path="url(#4ad39c006b)"><path fill="#000000" d="M 52.644531 19.550781 L 54.980469 19.550781 C 54.265625 25.3125 51.171875 50.167969 49.910156 60.339844 C 49.664062 62.292969 48.011719 63.761719 46.050781 63.761719 C 39.410156 63.761719 26.851562 63.761719 20.210938 63.761719 C 18.25 63.761719 16.597656 62.292969 16.351562 60.339844 C 16.351562 60.339844 11.28125 19.550781 11.28125 19.550781 C 11.28125 19.550781 47.558594 19.550781 47.558594 19.550781 C 48.144531 19.550781 48.625 19.070312 48.625 18.480469 C 48.625 17.886719 48.144531 17.40625 47.558594 17.40625 L 10.070312 17.40625 C 9.765625 17.40625 9.472656 17.539062 9.273438 17.769531 C 9.070312 18 8.976562 18.304688 9.011719 18.613281 C 9.011719 18.613281 12.800781 49.0625 14.234375 60.605469 C 14.613281 63.632812 17.171875 65.90625 20.210938 65.90625 C 26.851562 65.90625 39.410156 65.90625 46.050781 65.90625 C 49.089844 65.90625 51.648438 63.632812 52.027344 60.605469 C 53.460938 49.0625 57.25 18.613281 57.25 18.613281 C 57.285156 18.304688 57.191406 18 56.988281 17.769531 C 56.789062 17.539062 56.496094 17.40625 56.191406 17.40625 L 52.644531 17.40625 C 52.058594 17.40625 51.578125 17.886719 51.578125 18.480469 C 51.578125 19.070312 52.058594 19.550781 52.644531 19.550781 Z M 32.0625 30.066406 L 32.0625 53.246094 C 32.0625 53.835938 32.542969 54.316406 33.128906 54.316406 C 33.71875 54.316406 34.195312 53.835938 34.195312 53.246094 L 34.195312 30.066406 C 34.195312 29.476562 33.71875 28.996094 33.128906 28.996094 C 32.542969 28.996094 32.0625 29.476562 32.0625 30.066406 Z M 19.75 30.195312 L 21.644531 53.292969 C 21.695312 53.882812 22.210938 54.324219 22.796875 54.273438 C 23.382812 54.226562 23.820312 53.707031 23.773438 53.117188 L 21.878906 30.019531 C 21.828125 29.429688 21.3125 28.988281 20.726562 29.039062 C 20.140625 29.085938 19.703125 29.605469 19.75 30.195312 Z M 44.070312 30.019531 L 42.175781 53.117188 C 42.128906 53.707031 42.5625 54.226562 43.148438 54.273438 C 43.738281 54.324219 44.253906 53.882812 44.300781 53.292969 L 46.195312 30.195312 C 46.246094 29.605469 45.808594 29.085938 45.222656 29.039062 C 44.632812 28.988281 44.117188 29.429688 44.070312 30.019531 Z M 25.101562 10.09375 L 9.429688 14.316406 C 8.859375 14.46875 8.523438 15.054688 8.675781 15.628906 C 8.824219 16.199219 9.410156 16.539062 9.980469 16.386719 L 54.527344 4.390625 C 55.097656 4.234375 55.433594 3.648438 55.28125 3.078125 C 55.128906 2.503906 54.542969 2.164062 53.976562 2.316406 L 38.300781 6.539062 L 37.085938 1.976562 C 36.933594 1.40625 36.347656 1.066406 35.777344 1.21875 L 24.640625 4.21875 C 24.070312 4.371094 23.734375 4.960938 23.886719 5.53125 Z M 36.238281 7.09375 L 35.300781 3.570312 C 35.300781 3.570312 26.222656 6.011719 26.222656 6.011719 L 27.164062 9.539062 Z M 36.238281 7.09375 " fill-opacity="1" fill-rule="evenodd"/></g></svg>