<svg xmlns="http://www.w3.org/2000/svg" xmlns:xlink="http://www.w3.org/1999/xlink" width="56" zoomAndPan="magnify" viewBox="0 0 42 66" height="88" preserveAspectRatio="xMidYMid meet" version="1.0"><defs><clipPath id="d91a74ae63"><path d="M 1 0.558594 L 41 0.558594 L 41 65.808594 L 1 65.808594 Z M 1 0.558594 " clip-rule="nonzero"/></clipPath></defs><g clip-path="url(#d91a74ae63)"><path fill="#000000" d="M 31.152344 57.589844 C 30.097656 60.289062 27.804688 62.453125 25.078125 63.46875 C 22.359375 64.476562 19.261719 64.34375 16.589844 63.21875 C 14.457031 62.3125 12.558594 60.738281 11.621094 58.617188 C 10.324219 55.6875 11.050781 52.3125 11.691406 49.171875 C 12.328125 46.035156 12.804688 42.539062 11.121094 39.820312 C 13.214844 41.414062 14.878906 43.554688 15.914062 45.976562 C 16.121094 44.960938 15.574219 43.574219 15.554688 42.9375 C 15.613281 43.347656 16.035156 43.675781 16.441406 43.632812 C 17.46875 43.535156 17.199219 41.980469 17.097656 41.3125 C 16.769531 38.941406 17.1875 36.59375 18.242188 34.429688 C 18.800781 33.285156 19.527344 32.230469 20.398438 31.292969 C 20.882812 30.773438 22.804688 29.730469 22.992188 29.179688 C 21.878906 32.359375 22.007812 35.964844 23.351562 39.050781 C 24.128906 40.847656 25.277344 42.441406 26.203125 44.152344 C 27.128906 45.867188 27.84375 47.789062 27.648438 49.722656 C 29.070312 48.128906 29.816406 45.945312 29.675781 43.804688 C 31.269531 48.257812 32.886719 53.1875 31.152344 57.589844 Z M 33.003906 38.355469 C 33.390625 34.757812 32.058594 31.183594 30.328125 27.996094 C 28.601562 24.816406 26.472656 21.847656 25.027344 18.523438 C 22.546875 12.804688 22.144531 6.449219 24.175781 0.550781 L 24.167969 0.539062 C 23.6875 1.578125 20.414062 3.152344 19.527344 4.097656 C 17.914062 5.832031 16.570312 7.800781 15.535156 9.925781 C 13.5625 13.949219 12.796875 18.3125 13.40625 22.734375 C 13.59375 23.96875 11.589844 29.5 11.191406 31.382812 C 9.269531 26.898438 6.171875 22.914062 2.296875 19.9375 C 5.425781 25.007812 4.546875 31.492188 3.355469 37.328125 C 2.160156 43.167969 0.816406 49.453125 3.226562 54.890625 C 4.957031 58.824219 8.503906 61.765625 12.457031 63.4375 C 17.417969 65.539062 23.183594 65.777344 28.242188 63.90625 C 33.292969 62.023438 37.554688 58 39.527344 52.976562 C 42.734375 44.789062 39.757812 35.625 36.78125 27.359375 C 37.046875 31.332031 35.652344 35.386719 33.003906 38.355469 " fill-opacity="1" fill-rule="nonzero"/></g></svg>