<svg xmlns="http://www.w3.org/2000/svg" xmlns:xlink="http://www.w3.org/1999/xlink" width="92" zoomAndPan="magnify" viewBox="0 0 69 66" height="88" preserveAspectRatio="xMidYMid meet" version="1.0"><defs><clipPath id="21ceea4a9a"><path d="M 5.324219 1.164062 L 69 1.164062 L 69 64.914062 L 5.324219 64.914062 Z M 5.324219 1.164062 " clip-rule="nonzero"/></clipPath></defs><g clip-path="url(#21ceea4a9a)"><path fill="#000000" d="M 61.933594 1.164062 C 51.339844 1.164062 37.121094 8.433594 27.574219 20.929688 L 19.65625 20.929688 C 13.9375 20.929688 10.660156 25.199219 8.402344 29.714844 L 5.382812 35.753906 L 19.65625 35.753906 L 34.484375 50.582031 L 34.484375 64.855469 L 40.527344 61.835938 C 45.039062 59.578125 49.308594 56.300781 49.308594 50.582031 L 49.308594 42.667969 C 61.808594 33.117188 69.078125 18.902344 69.078125 8.304688 L 69.078125 1.164062 Z M 49.308594 15.988281 C 52.039062 15.988281 54.25 18.199219 54.25 20.929688 C 54.25 23.660156 52.039062 25.871094 49.308594 25.871094 C 46.578125 25.871094 44.367188 23.660156 44.367188 20.929688 C 44.367188 18.199219 46.578125 15.988281 49.308594 15.988281 Z M 17.1875 45.640625 L 14.714844 48.109375 C 11.148438 51.679688 9.773438 60.464844 9.773438 60.464844 C 9.773438 60.464844 18.164062 59.488281 22.128906 55.523438 L 24.601562 53.050781 Z M 17.1875 45.640625 " fill-opacity="1" fill-rule="nonzero"/></g></svg>