<svg xmlns="http://www.w3.org/2000/svg" xmlns:xlink="http://www.w3.org/1999/xlink" width="500" zoomAndPan="magnify" viewBox="0 0 375 374.999991" height="500" preserveAspectRatio="xMidYMid meet" version="1.0"><defs><clipPath id="da2903048f"><path d="M 67.085938 54.722656 L 307.835938 54.722656 L 307.835938 295.472656 L 67.085938 295.472656 Z M 67.085938 54.722656 " clip-rule="nonzero"/></clipPath><clipPath id="b99807576d"><path d="M 67.085938 54.722656 L 307.835938 54.722656 L 307.835938 295.472656 L 67.085938 295.472656 Z M 67.085938 54.722656 " clip-rule="nonzero"/></clipPath></defs><path fill="#343849" d="M 304.34375 174.238281 C 304.34375 238.613281 252.152344 290.800781 187.777344 290.800781 C 123.398438 290.800781 71.210938 238.613281 71.210938 174.238281 C 71.210938 109.859375 123.398438 57.671875 187.777344 57.671875 C 252.152344 57.671875 304.34375 109.859375 304.34375 174.238281 " fill-opacity="1" fill-rule="nonzero"/><g clip-path="url(#da2903048f)"><path fill="#ff931e" d="M 187.449219 59.445312 C 123.683594 59.445312 71.804688 111.320312 71.804688 175.089844 C 71.804688 209.457031 86.945312 241.8125 113.34375 263.871094 C 120.804688 270.105469 129.023438 275.382812 137.777344 279.554688 C 138.738281 280.011719 139.699219 280.449219 140.625 280.859375 C 155.398438 287.414062 171.152344 290.734375 187.449219 290.734375 C 202.59375 290.734375 217.3125 287.855469 231.207031 282.171875 C 235.003906 280.617188 238.753906 278.84375 242.351562 276.894531 C 242.601562 276.761719 242.847656 276.628906 243.089844 276.492188 L 243.433594 276.300781 C 252.671875 271.183594 261.175781 264.8125 268.710938 257.367188 C 290.882812 235.472656 303.097656 206.253906 303.097656 175.089844 C 303.097656 148.394531 293.785156 122.355469 276.878906 101.765625 C 276.25 100.992188 275.574219 100.195312 274.875 99.382812 C 274.5625 99.023438 274.25 98.667969 273.9375 98.316406 C 272.644531 96.867188 271.304688 95.429688 269.945312 94.046875 C 268.941406 93.023438 267.921875 92.019531 266.902344 91.0625 C 245.347656 70.671875 217.132812 59.445312 187.449219 59.445312 M 187.449219 295.453125 C 170.488281 295.453125 154.089844 291.996094 138.714844 285.175781 C 137.75 284.75 136.753906 284.292969 135.746094 283.816406 C 126.636719 279.476562 118.082031 273.980469 110.316406 267.488281 C 82.84375 244.535156 67.085938 210.859375 67.085938 175.089844 C 67.085938 158.839844 70.269531 143.078125 76.546875 128.238281 C 82.609375 113.90625 91.285156 101.03125 102.339844 89.980469 C 113.394531 78.925781 126.265625 70.246094 140.597656 64.183594 C 155.4375 57.90625 171.203125 54.722656 187.449219 54.722656 C 218.347656 54.722656 247.710938 66.410156 270.140625 87.628906 C 271.203125 88.628906 272.269531 89.675781 273.3125 90.738281 C 274.726562 92.175781 276.121094 93.671875 277.464844 95.179688 C 277.792969 95.550781 278.117188 95.921875 278.441406 96.292969 C 279.171875 97.136719 279.875 97.96875 280.53125 98.773438 C 289.175781 109.300781 295.917969 121.109375 300.566406 133.855469 C 305.378906 147.046875 307.816406 160.921875 307.816406 175.089844 C 307.816406 191.46875 304.582031 207.351562 298.207031 222.292969 C 292.046875 236.722656 283.242188 249.652344 272.03125 260.722656 C 264.242188 268.417969 255.460938 275.011719 245.921875 280.320312 L 245.726562 280.429688 C 245.351562 280.640625 244.972656 280.84375 244.59375 281.050781 C 240.851562 283.074219 236.945312 284.921875 232.992188 286.539062 C 218.53125 292.457031 203.207031 295.453125 187.449219 295.453125 " fill-opacity="1" fill-rule="nonzero"/></g><path fill="#02b8f2" d="M 142.726562 260.878906 C 142.726562 268.359375 140.894531 275.117188 137.953125 279.925781 C 137.574219 280.546875 137.175781 281.132812 136.761719 281.683594 C 127.765625 277.394531 119.394531 272.003906 111.832031 265.679688 C 111.660156 264.121094 111.574219 262.519531 111.574219 260.878906 C 111.574219 253.214844 113.496094 246.3125 116.566406 241.484375 C 119.34375 237.117188 123.066406 234.445312 127.152344 234.445312 C 129.09375 234.445312 130.957031 235.050781 132.671875 236.15625 C 137.5625 239.300781 141.277344 246.503906 142.386719 255.347656 C 142.609375 257.132812 142.726562 258.980469 142.726562 260.878906 " fill-opacity="1" fill-rule="nonzero"/><path fill="#02b8f2" d="M 270.371094 259.046875 C 262.726562 266.601562 254.050781 273.117188 244.578125 278.367188 C 244.421875 278.695312 244.257812 279.019531 244.09375 279.34375 C 244.03125 279.46875 243.96875 279.589844 243.90625 279.714844 C 243.757812 279.46875 243.613281 279.222656 243.476562 278.972656 C 240.859375 274.242188 239.253906 267.878906 239.253906 260.878906 C 239.253906 258.839844 239.390625 256.851562 239.648438 254.945312 C 240.804688 246.410156 244.390625 239.453125 249.105469 236.289062 C 250.878906 235.097656 252.8125 234.445312 254.832031 234.445312 C 259.410156 234.445312 263.527344 237.796875 266.378906 243.136719 C 268.65625 247.402344 270.125 252.941406 270.371094 259.046875 " fill-opacity="1" fill-rule="nonzero"/><path fill="#ffffff" d="M 163.96875 226.65625 C 163.96875 242.691406 152.558594 255.6875 138.476562 255.6875 C 124.402344 255.6875 112.992188 242.691406 112.992188 226.65625 C 112.992188 210.625 124.402344 202.585938 138.476562 202.585938 C 152.558594 202.585938 163.96875 210.625 163.96875 226.65625 " fill-opacity="1" fill-rule="nonzero"/><path fill="#ffffff" d="M 219.902344 226.65625 C 219.902344 242.691406 231.316406 255.6875 245.390625 255.6875 C 259.46875 255.6875 270.878906 242.691406 270.878906 226.65625 C 270.878906 210.625 259.46875 202.585938 245.390625 202.585938 C 231.316406 202.585938 219.902344 210.625 219.902344 226.65625 " fill-opacity="1" fill-rule="nonzero"/><path fill="#e1f2fa" d="M 250.820312 250.964844 C 250.820312 261 248.429688 270.980469 243.8125 279.894531 C 242.984375 281.484375 225.652344 286.859375 221.535156 288.097656 C 211.417969 291.144531 200.953125 292.761719 190.398438 293.023438 C 171.96875 293.476562 142.023438 292.210938 134.839844 272.742188 C 130.898438 262.066406 129.914062 250.410156 132.011719 239.238281 C 133.929688 229.035156 138.410156 219.355469 144.992188 211.320312 C 157.609375 195.925781 177.375 187.5625 197.203125 189.707031 C 227.515625 192.984375 250.820312 220.273438 250.820312 250.964844 " fill-opacity="1" fill-rule="nonzero"/><path fill="#bfa55d" d="M 184.355469 293.511719 C 175.582031 293.511719 166.824219 292.570312 158.699219 290.429688 C 167.347656 292.566406 176.882812 293.09375 185.058594 293.09375 C 185.441406 293.09375 185.820312 293.089844 186.199219 293.089844 C 186.617188 293.09375 187.035156 293.09375 187.449219 293.09375 C 196.832031 293.09375 205.957031 292 214.703125 289.929688 C 205.28125 292.171875 194.808594 293.511719 184.355469 293.511719 M 221.695312 288.050781 C 221.734375 288.039062 221.773438 288.027344 221.8125 288.015625 C 224.195312 287.292969 229.890625 285.527344 234.894531 283.785156 C 231.375 285.207031 227.054688 286.4375 221.695312 288.050781 " fill-opacity="1" fill-rule="nonzero"/><path fill="#bfa55d" d="M 151.007812 287.957031 C 148.796875 287.105469 146.652344 286.144531 144.597656 285.070312 C 145.253906 285.328125 145.910156 285.574219 146.570312 285.820312 C 147.976562 286.613281 149.460938 287.320312 151.007812 287.957031 " fill-opacity="1" fill-rule="nonzero"/><path fill="#14beed" d="M 136.742188 277.460938 C 132.800781 271.027344 131.234375 262.355469 130.957031 254.402344 C 130.980469 254.410156 131 254.417969 131.019531 254.425781 C 131.460938 262.632812 133.46875 270.417969 136.742188 277.460938 " fill-opacity="1" fill-rule="nonzero"/><path fill="#bfeef6" d="M 131.019531 254.425781 C 131 254.417969 130.980469 254.410156 130.957031 254.402344 C 130.886719 252.375 130.898438 250.398438 130.972656 248.511719 C 130.972656 248.585938 130.96875 248.652344 130.96875 248.722656 C 130.960938 248.890625 130.957031 249.058594 130.949219 249.226562 C 130.945312 249.394531 130.941406 249.558594 130.9375 249.730469 C 130.9375 249.871094 130.933594 250.015625 130.929688 250.15625 C 130.929688 250.425781 130.925781 250.695312 130.925781 250.964844 C 130.925781 252.125 130.957031 253.28125 131.019531 254.425781 M 131.148438 245.625 C 131.46875 241.742188 132.15625 237.894531 133.191406 234.140625 C 133.160156 234.253906 133.128906 234.371094 133.097656 234.488281 C 133.027344 234.746094 132.957031 235.007812 132.894531 235.265625 L 132.859375 235.394531 C 132.796875 235.648438 132.734375 235.902344 132.671875 236.15625 C 132.652344 236.246094 132.628906 236.335938 132.605469 236.425781 C 132.488281 236.933594 132.371094 237.445312 132.265625 237.960938 C 132.242188 238.0625 132.222656 238.164062 132.203125 238.265625 C 132.160156 238.484375 132.113281 238.703125 132.070312 238.925781 C 132.050781 239.023438 132.035156 239.125 132.007812 239.25 C 131.988281 239.375 131.964844 239.503906 131.941406 239.628906 C 131.894531 239.882812 131.847656 240.136719 131.804688 240.394531 C 131.789062 240.492188 131.773438 240.585938 131.757812 240.683594 C 131.6875 241.121094 131.621094 241.558594 131.558594 241.996094 C 131.550781 242.039062 131.546875 242.074219 131.539062 242.117188 C 131.5 242.394531 131.464844 242.675781 131.429688 242.957031 C 131.425781 242.980469 131.421875 243.003906 131.417969 243.03125 C 131.378906 243.34375 131.34375 243.660156 131.308594 243.976562 C 131.289062 244.167969 131.265625 244.363281 131.246094 244.554688 C 131.242188 244.617188 131.234375 244.675781 131.230469 244.734375 C 131.21875 244.832031 131.210938 244.929688 131.203125 245.027344 C 131.195312 245.089844 131.191406 245.15625 131.1875 245.222656 C 131.183594 245.242188 131.179688 245.265625 131.179688 245.289062 C 131.167969 245.402344 131.15625 245.511719 131.148438 245.625 M 133.34375 233.59375 C 133.414062 233.359375 133.480469 233.125 133.550781 232.890625 C 133.5 233.058594 133.453125 233.222656 133.40625 233.390625 C 133.386719 233.457031 133.363281 233.523438 133.34375 233.59375 M 133.703125 232.386719 C 133.726562 232.3125 133.75 232.242188 133.769531 232.167969 C 133.753906 232.230469 133.734375 232.292969 133.714844 232.351562 C 133.710938 232.363281 133.707031 232.375 133.703125 232.386719 M 134.199219 230.84375 C 134.21875 230.792969 134.234375 230.738281 134.253906 230.683594 C 134.253906 230.683594 134.253906 230.6875 134.253906 230.6875 L 134.234375 230.738281 C 134.222656 230.773438 134.210938 230.808594 134.199219 230.84375 M 134.535156 229.871094 C 134.554688 229.820312 134.570312 229.773438 134.589844 229.722656 C 134.582031 229.742188 134.574219 229.765625 134.566406 229.785156 L 134.535156 229.871094 " fill-opacity="1" fill-rule="nonzero"/><path fill="#14beed" d="M 248.078125 269.410156 C 249.496094 264.75 250.371094 259.925781 250.6875 255.058594 C 250.460938 258.617188 249.9375 262.15625 249.113281 265.625 C 248.789062 266.988281 248.445312 268.246094 248.078125 269.410156 " fill-opacity="1" fill-rule="nonzero"/><path fill="#bfeef6" d="M 250.6875 255.058594 C 250.777344 253.699219 250.820312 252.332031 250.820312 250.964844 C 250.820312 252.332031 250.777344 253.695312 250.6875 255.058594 M 250.820312 250.921875 C 250.820312 250.914062 250.820312 250.910156 250.820312 250.902344 C 250.820312 250.910156 250.820312 250.914062 250.820312 250.921875 M 250.820312 250.875 C 250.820312 250.863281 250.820312 250.859375 250.820312 250.847656 C 250.820312 250.859375 250.820312 250.863281 250.820312 250.875 M 250.820312 250.828125 C 250.820312 250.820312 250.820312 250.804688 250.820312 250.796875 C 250.820312 250.808594 250.820312 250.820312 250.820312 250.828125 M 250.820312 250.785156 C 250.820312 250.773438 250.820312 250.757812 250.820312 250.746094 C 250.820312 250.761719 250.820312 250.769531 250.820312 250.785156 M 250.820312 250.742188 C 250.78125 240.402344 248.101562 230.457031 243.398438 221.691406 C 248.09375 230.417969 250.78125 240.347656 250.820312 250.742188 " fill-opacity="1" fill-rule="nonzero"/><path fill="#abe5f2" d="M 185.058594 293.09375 C 176.882812 293.09375 167.347656 292.566406 158.699219 290.429688 C 156.0625 289.734375 153.492188 288.914062 151.007812 287.957031 C 149.460938 287.320312 147.976562 286.613281 146.570312 285.820312 C 158.9375 290.390625 172.28125 292.941406 186.199219 293.089844 C 185.820312 293.089844 185.441406 293.09375 185.058594 293.09375 M 221.8125 288.015625 C 225.3125 286.949219 228.742188 285.726562 232.097656 284.355469 C 234.4375 277.769531 235.714844 270.660156 235.714844 263.238281 C 235.714844 259.792969 235.4375 256.414062 234.910156 253.125 C 233.003906 241.242188 227.785156 230.507812 220.257812 221.957031 C 216.75 217.964844 212.742188 214.449219 208.332031 211.511719 C 203.820312 208.507812 198.894531 206.109375 193.652344 204.429688 C 204.179688 204.140625 214.160156 202.339844 223.191406 199.320312 C 231.585938 204.960938 238.558594 212.683594 243.398438 221.691406 C 248.101562 230.457031 250.78125 240.402344 250.820312 250.742188 C 250.820312 250.742188 250.820312 250.742188 250.820312 250.746094 C 250.820312 250.757812 250.820312 250.773438 250.820312 250.785156 C 250.820312 250.789062 250.820312 250.792969 250.820312 250.796875 C 250.820312 250.804688 250.820312 250.820312 250.820312 250.828125 C 250.820312 250.835938 250.820312 250.84375 250.820312 250.847656 C 250.820312 250.859375 250.820312 250.863281 250.820312 250.875 C 250.820312 250.882812 250.820312 250.894531 250.820312 250.902344 C 250.820312 250.910156 250.820312 250.914062 250.820312 250.921875 C 250.820312 250.9375 250.820312 250.949219 250.820312 250.964844 C 250.820312 252.332031 250.777344 253.699219 250.6875 255.058594 C 250.371094 259.925781 249.496094 264.75 248.078125 269.410156 C 245.472656 277.621094 241.65625 281.054688 234.894531 283.785156 C 229.890625 285.527344 224.195312 287.292969 221.8125 288.015625 M 131.179688 245.289062 C 131.179688 245.265625 131.183594 245.242188 131.1875 245.222656 C 131.183594 245.230469 131.183594 245.238281 131.183594 245.246094 C 131.183594 245.257812 131.179688 245.273438 131.179688 245.289062 M 131.230469 244.734375 C 131.234375 244.675781 131.242188 244.617188 131.246094 244.554688 C 131.242188 244.601562 131.238281 244.648438 131.234375 244.695312 C 131.234375 244.710938 131.234375 244.722656 131.230469 244.734375 M 131.417969 243.03125 C 131.421875 243.003906 131.425781 242.980469 131.429688 242.957031 C 131.425781 242.96875 131.425781 242.980469 131.425781 242.996094 C 131.421875 243.007812 131.421875 243.019531 131.417969 243.03125 M 131.558594 241.996094 C 131.621094 241.558594 131.6875 241.121094 131.757812 240.683594 C 131.742188 240.785156 131.726562 240.882812 131.710938 240.984375 C 131.703125 241.03125 131.695312 241.074219 131.6875 241.121094 C 131.648438 241.378906 131.609375 241.640625 131.570312 241.90625 C 131.566406 241.9375 131.5625 241.964844 131.558594 241.996094 M 131.804688 240.394531 C 131.847656 240.136719 131.894531 239.882812 131.941406 239.628906 C 131.914062 239.777344 131.886719 239.929688 131.859375 240.078125 C 131.839844 240.183594 131.824219 240.289062 131.804688 240.394531 M 132.203125 238.265625 C 132.222656 238.164062 132.242188 238.0625 132.265625 237.960938 C 132.25 238.027344 132.238281 238.097656 132.226562 238.164062 C 132.21875 238.195312 132.210938 238.230469 132.203125 238.265625 M 146.914062 209.230469 C 150.304688 205.496094 154.144531 202.191406 158.320312 199.398438 C 161.53125 200.464844 164.863281 201.375 168.292969 202.117188 C 162.984375 202.792969 157.894531 204.183594 153.113281 206.191406 C 150.980469 207.085938 148.914062 208.101562 146.914062 209.230469 " fill-opacity="1" fill-rule="nonzero"/><path fill="#e1f2fa" d="M 235.714844 263.238281 C 235.714844 270.660156 234.4375 277.769531 232.097656 284.355469 C 218.328125 289.988281 203.253906 293.09375 187.449219 293.09375 C 170.445312 293.09375 154.277344 289.496094 139.671875 283.019531 C 139.070312 282.007812 138.496094 280.976562 137.953125 279.925781 C 133.964844 272.25 131.515625 263.605469 131.019531 254.425781 C 130.957031 253.28125 130.925781 252.125 130.925781 250.964844 C 130.925781 250.695312 130.929688 250.425781 130.929688 250.15625 C 130.933594 250.015625 130.9375 249.871094 130.9375 249.730469 C 130.941406 249.558594 130.945312 249.394531 130.949219 249.226562 C 130.957031 249.058594 130.960938 248.890625 130.96875 248.722656 C 130.984375 248.203125 131.007812 247.6875 131.039062 247.171875 C 131.050781 246.996094 131.058594 246.824219 131.070312 246.652344 C 131.085938 246.414062 131.101562 246.179688 131.121094 245.941406 C 131.140625 245.707031 131.160156 245.476562 131.183594 245.246094 C 131.1875 245.171875 131.195312 245.097656 131.203125 245.027344 C 131.210938 244.917969 131.222656 244.808594 131.234375 244.695312 C 131.257812 244.457031 131.285156 244.214844 131.308594 243.976562 C 131.34375 243.648438 131.382812 243.320312 131.425781 242.996094 C 131.460938 242.703125 131.5 242.410156 131.539062 242.117188 C 131.550781 242.042969 131.5625 241.976562 131.570312 241.90625 C 131.609375 241.640625 131.648438 241.378906 131.6875 241.121094 C 131.695312 241.074219 131.703125 241.03125 131.710938 240.984375 C 131.757812 240.683594 131.808594 240.378906 131.859375 240.078125 C 131.90625 239.800781 131.957031 239.523438 132.007812 239.25 C 132.035156 239.125 132.050781 239.023438 132.070312 238.925781 C 132.121094 238.671875 132.167969 238.417969 132.226562 238.164062 C 132.34375 237.582031 132.46875 237.003906 132.605469 236.425781 C 132.628906 236.335938 132.652344 236.246094 132.671875 236.15625 C 132.734375 235.902344 132.796875 235.648438 132.859375 235.394531 L 132.894531 235.265625 C 132.957031 235.007812 133.027344 234.746094 133.097656 234.488281 C 133.195312 234.121094 133.296875 233.753906 133.40625 233.390625 C 133.464844 233.171875 133.53125 232.960938 133.59375 232.742188 C 133.632812 232.613281 133.671875 232.480469 133.714844 232.351562 C 133.789062 232.105469 133.867188 231.859375 133.945312 231.613281 C 134.039062 231.316406 134.136719 231.03125 134.234375 230.738281 L 134.253906 230.6875 C 134.34375 230.414062 134.4375 230.144531 134.535156 229.871094 L 134.566406 229.785156 C 134.664062 229.503906 134.769531 229.21875 134.875 228.9375 C 134.992188 228.625 135.101562 228.328125 135.21875 228.03125 C 135.332031 227.746094 135.445312 227.460938 135.5625 227.175781 L 135.578125 227.140625 C 135.691406 226.851562 135.816406 226.5625 135.9375 226.273438 C 136.035156 226.050781 136.128906 225.824219 136.230469 225.597656 C 136.285156 225.472656 136.34375 225.339844 136.40625 225.210938 C 136.472656 225.054688 136.542969 224.894531 136.617188 224.738281 C 136.871094 224.183594 137.128906 223.636719 137.398438 223.09375 C 137.492188 222.90625 137.585938 222.71875 137.683594 222.53125 C 137.898438 222.109375 138.117188 221.6875 138.34375 221.269531 C 138.425781 221.113281 138.511719 220.957031 138.597656 220.800781 C 138.773438 220.480469 138.949219 220.164062 139.128906 219.847656 C 139.203125 219.714844 139.28125 219.578125 139.359375 219.445312 C 139.601562 219.03125 139.84375 218.617188 140.09375 218.210938 C 140.183594 218.066406 140.269531 217.925781 140.359375 217.78125 C 140.492188 217.566406 140.632812 217.351562 140.769531 217.132812 C 140.9375 216.875 141.101562 216.617188 141.273438 216.363281 L 141.304688 216.316406 C 141.457031 216.085938 141.609375 215.855469 141.765625 215.632812 L 141.828125 215.535156 C 141.933594 215.386719 142.035156 215.234375 142.144531 215.085938 C 142.210938 214.984375 142.285156 214.882812 142.355469 214.777344 C 142.492188 214.589844 142.625 214.40625 142.757812 214.21875 C 142.855469 214.085938 142.953125 213.953125 143.046875 213.824219 C 143.183594 213.640625 143.316406 213.460938 143.453125 213.277344 C 143.554688 213.140625 143.660156 213.003906 143.765625 212.867188 C 143.964844 212.601562 144.171875 212.34375 144.378906 212.082031 C 144.582031 211.828125 144.785156 211.574219 144.992188 211.320312 C 145.09375 211.195312 145.195312 211.070312 145.300781 210.949219 C 145.59375 210.59375 145.890625 210.246094 146.191406 209.898438 C 146.34375 209.726562 146.496094 209.554688 146.648438 209.382812 C 148.730469 208.191406 150.886719 207.125 153.113281 206.191406 C 157.894531 204.183594 162.988281 202.792969 168.296875 202.117188 C 170.742188 201.800781 173.238281 201.640625 175.769531 201.640625 C 181.996094 201.640625 188.003906 202.613281 193.652344 204.429688 C 198.890625 206.109375 203.820312 208.507812 208.332031 211.511719 C 212.742188 214.449219 216.75 217.964844 220.257812 221.957031 C 227.785156 230.507812 233.003906 241.242188 234.910156 253.125 C 235.4375 256.414062 235.714844 259.792969 235.714844 263.238281 " fill-opacity="1" fill-rule="nonzero"/><path fill="#36677a" d="M 158.222656 199.367188 C 158.199219 199.359375 158.175781 199.351562 158.152344 199.34375 C 159.257812 198.605469 160.382812 197.902344 161.535156 197.234375 C 161.566406 197.246094 161.601562 197.253906 161.632812 197.265625 C 160.472656 197.925781 159.335938 198.628906 158.222656 199.367188 M 223.246094 199.304688 C 222.046875 198.496094 220.820312 197.730469 219.566406 197.011719 C 219.617188 196.996094 219.675781 196.976562 219.730469 196.960938 C 220.996094 197.675781 222.230469 198.4375 223.433594 199.238281 C 223.371094 199.261719 223.308594 199.285156 223.246094 199.304688 " fill-opacity="1" fill-rule="nonzero"/><path fill="#abe5f2" d="M 158.320312 199.398438 C 158.289062 199.386719 158.257812 199.378906 158.222656 199.367188 C 159.335938 198.628906 160.472656 197.925781 161.632812 197.265625 C 161.660156 197.273438 161.6875 197.28125 161.714844 197.289062 C 160.5625 197.953125 159.429688 198.660156 158.320312 199.398438 M 223.191406 199.320312 C 221.988281 198.515625 220.757812 197.75 219.5 197.03125 C 219.519531 197.023438 219.542969 197.019531 219.566406 197.011719 C 220.820312 197.730469 222.046875 198.496094 223.246094 199.304688 C 223.226562 199.308594 223.210938 199.316406 223.191406 199.320312 " fill-opacity="1" fill-rule="nonzero"/><path fill="#86dced" d="M 193.652344 204.429688 C 188.003906 202.613281 181.996094 201.640625 175.769531 201.640625 C 173.238281 201.640625 170.742188 201.800781 168.296875 202.117188 C 168.296875 202.117188 168.292969 202.117188 168.292969 202.117188 C 164.863281 201.375 161.53125 200.464844 158.320312 199.398438 C 159.429688 198.660156 160.5625 197.953125 161.714844 197.289062 C 170.519531 199.792969 180.117188 201.167969 190.167969 201.167969 C 193.117188 201.167969 196.027344 201.050781 198.890625 200.816406 C 198.890625 200.816406 198.890625 200.816406 198.886719 200.816406 C 206.109375 200.238281 213.023438 198.941406 219.5 197.03125 C 220.757812 197.75 221.988281 198.515625 223.191406 199.320312 C 214.160156 202.339844 204.179688 204.140625 193.652344 204.429688 " fill-opacity="1" fill-rule="nonzero"/><path fill="#abe5f2" d="M 190.636719 204.472656 C 182.867188 204.472656 175.363281 203.648438 168.292969 202.117188 C 168.292969 202.117188 168.296875 202.117188 168.296875 202.117188 C 170.742188 201.800781 173.238281 201.640625 175.769531 201.640625 C 181.996094 201.640625 188.003906 202.613281 193.652344 204.429688 C 192.652344 204.457031 191.648438 204.472656 190.636719 204.472656 " fill-opacity="1" fill-rule="nonzero"/><path fill="#fafdfe" d="M 145.898438 229.652344 C 145.578125 229.652344 145.246094 229.53125 144.894531 229.273438 C 142.203125 227.292969 143.160156 221.421875 147.035156 216.160156 C 150.042969 212.078125 153.914062 209.558594 156.761719 209.558594 C 157.582031 209.558594 158.316406 209.773438 158.921875 210.214844 C 161.609375 212.195312 156.835938 214.574219 152.960938 219.835938 C 149.597656 224.40625 148.019531 229.652344 145.898438 229.652344 " fill-opacity="1" fill-rule="nonzero"/><path fill="#fafdfe" d="M 141.445312 238.371094 C 140.1875 238.371094 139.167969 237.195312 139.167969 235.742188 C 139.167969 234.289062 140.1875 233.113281 141.445312 233.113281 C 142.703125 233.113281 143.726562 234.289062 143.726562 235.742188 C 143.726562 237.195312 142.703125 238.371094 141.445312 238.371094 " fill-opacity="1" fill-rule="nonzero"/><path fill="#ffffff" d="M 203.738281 260.171875 L 180.132812 260.171875 C 172.023438 260.171875 165.382812 253.535156 165.382812 245.421875 L 165.382812 230.316406 C 165.382812 222.203125 172.023438 215.566406 180.132812 215.566406 L 203.738281 215.566406 C 211.847656 215.566406 218.484375 222.203125 218.484375 230.316406 L 218.484375 245.421875 C 218.484375 253.535156 211.847656 260.171875 203.738281 260.171875 " fill-opacity="1" fill-rule="nonzero"/><path fill="#ff931e" d="M 217.070312 248.371094 C 217.070312 254.097656 212.410156 258.753906 206.6875 258.753906 L 177.183594 258.753906 C 171.457031 258.753906 166.800781 254.097656 166.800781 248.371094 L 166.800781 227.367188 C 166.800781 221.640625 171.457031 216.980469 177.183594 216.980469 L 206.6875 216.980469 C 212.410156 216.980469 217.070312 221.640625 217.070312 227.367188 Z M 206.6875 214.148438 L 177.183594 214.148438 C 169.898438 214.148438 163.96875 220.078125 163.96875 227.367188 L 163.96875 248.371094 C 163.96875 255.65625 169.898438 261.585938 177.183594 261.585938 L 206.6875 261.585938 C 213.972656 261.585938 219.902344 255.65625 219.902344 248.371094 L 219.902344 227.367188 C 219.902344 220.078125 213.972656 214.148438 206.6875 214.148438 " fill-opacity="1" fill-rule="nonzero"/><g clip-path="url(#b99807576d)"><path fill="#ff931e" d="M 187.449219 295.453125 C 170.488281 295.453125 154.089844 291.996094 138.714844 285.175781 C 137.75 284.75 136.753906 284.292969 135.746094 283.816406 C 126.636719 279.476562 118.082031 273.980469 110.316406 267.488281 C 82.84375 244.535156 67.085938 210.859375 67.085938 175.089844 C 67.085938 158.839844 70.269531 143.078125 76.546875 128.238281 C 82.609375 113.90625 91.285156 101.03125 102.339844 89.980469 C 113.394531 78.925781 126.265625 70.246094 140.597656 64.183594 C 155.4375 57.90625 171.203125 54.722656 187.449219 54.722656 C 201.632812 54.722656 215.519531 57.167969 228.722656 61.988281 C 241.480469 66.644531 253.292969 73.398438 263.828125 82.0625 L 260.832031 85.707031 C 240.234375 68.769531 214.171875 59.445312 187.449219 59.445312 C 123.683594 59.445312 71.804688 111.320312 71.804688 175.089844 C 71.804688 209.457031 86.945312 241.8125 113.34375 263.871094 C 120.804688 270.105469 129.023438 275.382812 137.777344 279.554688 C 138.738281 280.011719 139.699219 280.449219 140.625 280.859375 C 155.398438 287.414062 171.152344 290.734375 187.449219 290.734375 C 202.59375 290.734375 217.3125 287.855469 231.207031 282.171875 C 235.003906 280.617188 238.753906 278.84375 242.351562 276.894531 C 242.601562 276.761719 242.847656 276.628906 243.089844 276.492188 L 243.433594 276.300781 C 252.671875 271.183594 261.175781 264.8125 268.710938 257.367188 C 290.886719 235.472656 303.097656 206.253906 303.097656 175.089844 C 303.097656 150.585938 295.53125 127.175781 281.21875 107.390625 L 285.042969 104.625 C 299.941406 125.21875 307.816406 149.585938 307.816406 175.089844 C 307.816406 191.46875 304.582031 207.351562 298.207031 222.292969 C 292.046875 236.722656 283.242188 249.652344 272.03125 260.722656 C 264.242188 268.417969 255.460938 275.011719 245.921875 280.320312 L 245.726562 280.429688 C 245.351562 280.640625 244.972656 280.84375 244.59375 281.050781 C 240.851562 283.074219 236.945312 284.921875 232.992188 286.539062 C 218.53125 292.457031 203.207031 295.453125 187.449219 295.453125 " fill-opacity="1" fill-rule="nonzero"/></g><path fill="#06a1c4" d="M 271.550781 92.800781 C 271.601562 92.832031 271.644531 92.871094 271.691406 92.917969 C 271.640625 92.882812 271.59375 92.839844 271.550781 92.800781 Z M 277.316406 96.207031 C 276.753906 94.085938 275.953125 92.203125 274.820312 91.253906 C 272.925781 89.65625 269.320312 91.175781 271.699219 92.929688 C 272.257812 93.585938 272.546875 95.777344 272.695312 97.683594 C 272.804688 99.105469 272.84375 100.363281 272.855469 100.71875 C 273.234375 109.460938 269.011719 117.390625 265.355469 125.09375 C 263.316406 132.117188 270.359375 130.402344 273.015625 127.117188 C 274.339844 125.480469 275.144531 121.351562 275.75 119.40625 C 277.207031 114.78125 278.5625 109.898438 278.476562 105 C 278.441406 103.015625 278.148438 99.347656 277.316406 96.207031 " fill-opacity="1" fill-rule="nonzero"/><path fill="#038abd" d="M 277.316406 96.207031 C 276.285156 97.144531 274.894531 97.722656 273.363281 97.722656 C 273.136719 97.722656 272.914062 97.710938 272.695312 97.683594 C 272.546875 95.777344 272.257812 93.585938 271.703125 92.933594 C 269.320312 91.175781 272.925781 89.65625 274.820312 91.253906 C 275.953125 92.203125 276.753906 94.085938 277.316406 96.207031 " fill-opacity="1" fill-rule="nonzero"/><path fill="#06a1c4" d="M 278.972656 90.710938 C 278.972656 93.808594 276.382812 96.320312 273.1875 96.320312 C 269.992188 96.320312 267.402344 93.808594 267.402344 90.710938 C 267.402344 87.613281 269.992188 85.101562 273.1875 85.101562 C 276.382812 85.101562 278.972656 87.613281 278.972656 90.710938 " fill-opacity="1" fill-rule="nonzero"/><path fill="#ff931e" d="M 289.53125 86.066406 C 289.085938 86.066406 288.671875 85.78125 288.527344 85.332031 C 286.019531 77.304688 277.449219 72.816406 269.425781 75.324219 C 268.871094 75.496094 268.277344 75.1875 268.105469 74.632812 C 267.933594 74.078125 268.242188 73.488281 268.796875 73.316406 C 277.925781 70.460938 287.679688 75.570312 290.535156 84.703125 C 290.710938 85.257812 290.402344 85.847656 289.847656 86.019531 C 289.742188 86.050781 289.636719 86.066406 289.53125 86.066406 " fill-opacity="1" fill-rule="nonzero"/><path fill="#ff931e" d="M 284.511719 87.636719 C 284.0625 87.636719 283.648438 87.347656 283.507812 86.898438 C 281.867188 81.640625 276.253906 78.699219 270.992188 80.34375 C 270.441406 80.515625 269.847656 80.207031 269.675781 79.652344 C 269.5 79.097656 269.808594 78.507812 270.367188 78.335938 C 276.730469 76.347656 283.527344 79.90625 285.515625 86.273438 C 285.691406 86.824219 285.382812 87.414062 284.828125 87.589844 C 284.722656 87.621094 284.617188 87.636719 284.511719 87.636719 " fill-opacity="1" fill-rule="nonzero"/><path fill="#ffffff" d="M 267.105469 146.175781 C 267.105469 161.621094 258.195312 175.574219 243.855469 185.566406 C 229.992188 195.21875 211.050781 201.167969 190.167969 201.167969 C 168.617188 201.167969 149.140625 194.839844 135.175781 184.640625 C 121.597656 174.722656 113.226562 161.148438 113.226562 146.175781 C 113.226562 131.207031 121.597656 117.632812 135.175781 107.714844 C 139.285156 104.714844 143.875 102.046875 148.855469 99.777344 C 149.285156 99.582031 149.714844 99.386719 150.148438 99.203125 C 161.808594 94.117188 175.507812 91.1875 190.167969 91.1875 C 202.847656 91.1875 214.8125 93.378906 225.363281 97.269531 C 225.808594 97.429688 226.25 97.597656 226.6875 97.769531 C 232.992188 100.203125 238.765625 103.246094 243.855469 106.789062 C 258.195312 116.78125 267.105469 130.734375 267.105469 146.175781 " fill-opacity="1" fill-rule="nonzero"/><path fill="#087799" d="M 189.691406 77.855469 C 175.839844 77.855469 162.3125 80.5625 150.574219 85.683594 C 150.195312 85.84375 149.796875 86.023438 149.3125 86.242188 C 144.496094 88.4375 140.023438 91.027344 136.023438 93.949219 C 122.464844 103.855469 114.996094 116.871094 114.996094 130.601562 C 114.996094 144.332031 122.464844 157.347656 136.023438 167.253906 C 150.242188 177.632812 169.300781 183.351562 189.691406 183.351562 C 209.414062 183.351562 228.027344 177.953125 242.105469 168.152344 C 256.476562 158.136719 264.390625 144.804688 264.390625 130.601562 C 264.390625 116.402344 256.476562 103.066406 242.101562 93.054688 C 237.128906 89.589844 231.511719 86.636719 225.410156 84.28125 C 224.980469 84.117188 224.550781 83.953125 224.121094 83.796875 C 213.417969 79.851562 201.835938 77.855469 189.691406 77.855469 M 189.691406 187.832031 C 168.355469 187.832031 148.359375 181.8125 133.382812 170.875 C 118.632812 160.101562 110.511719 145.800781 110.511719 130.601562 C 110.511719 115.402344 118.632812 101.097656 133.378906 90.328125 C 137.625 87.226562 142.359375 84.480469 147.453125 82.164062 C 147.96875 81.925781 148.394531 81.738281 148.792969 81.566406 C 161.082031 76.207031 175.230469 73.367188 189.691406 73.367188 C 202.367188 73.367188 214.46875 75.460938 225.664062 79.585938 C 226.117188 79.753906 226.570312 79.925781 227.023438 80.101562 C 233.460938 82.585938 239.398438 85.703125 244.667969 89.375 C 252.207031 94.625 258.140625 100.792969 262.308594 107.707031 C 266.664062 114.933594 268.875 122.640625 268.875 130.601562 C 268.875 138.5625 266.664062 146.265625 262.308594 153.496094 C 258.140625 160.410156 252.207031 166.578125 244.667969 171.828125 C 229.84375 182.148438 210.324219 187.832031 189.691406 187.832031 " fill-opacity="1" fill-rule="nonzero"/><path fill="#e1f2fa" d="M 267.105469 146.175781 C 267.105469 161.621094 258.195312 175.574219 243.855469 185.566406 C 229.519531 175.574219 220.609375 161.621094 220.609375 146.175781 C 220.609375 130.734375 229.519531 116.78125 243.855469 106.789062 C 258.195312 116.78125 267.105469 130.734375 267.105469 146.175781 " fill-opacity="1" fill-rule="nonzero"/><path fill="#e1f2fa" d="M 157.125 146.175781 C 157.125 161.148438 148.753906 174.722656 135.175781 184.640625 C 121.597656 174.722656 113.226562 161.148438 113.226562 146.175781 C 113.226562 131.207031 121.597656 117.632812 135.175781 107.714844 C 148.753906 117.632812 157.125 131.207031 157.125 146.175781 " fill-opacity="1" fill-rule="nonzero"/><path fill="#087799" d="M 245.863281 150.664062 C 245.863281 170.867188 232.648438 195.742188 188.75 195.742188 C 150.488281 195.742188 131.636719 169.449219 131.636719 149.246094 C 131.636719 129.042969 157.207031 115.96875 188.75 115.96875 C 220.292969 115.96875 245.863281 130.457031 245.863281 150.664062 " fill-opacity="1" fill-rule="nonzero"/><path fill="#02b8f2" d="M 245.863281 152.078125 C 245.863281 172.28125 232.648438 197.15625 188.75 197.15625 C 150.488281 197.15625 131.636719 170.867188 131.636719 150.664062 C 131.636719 130.457031 157.207031 117.382812 188.75 117.382812 C 220.292969 117.382812 245.863281 131.875 245.863281 152.078125 " fill-opacity="1" fill-rule="nonzero"/><path fill="#e1f2fa" d="M 225.363281 97.269531 C 224.152344 101.050781 220.480469 104.566406 214.722656 107.371094 C 207.417969 110.9375 197.691406 112.902344 187.332031 112.902344 C 176.976562 112.902344 167.246094 110.9375 159.941406 107.371094 C 155.179688 105.050781 151.84375 102.242188 150.148438 99.203125 C 149.714844 99.386719 149.285156 99.582031 148.855469 99.777344 C 150.679688 103.121094 154.242188 106.167969 159.320312 108.644531 C 166.816406 112.304688 176.761719 114.316406 187.332031 114.316406 C 197.90625 114.316406 207.851562 112.304688 215.347656 108.644531 C 221.421875 105.679688 225.339844 101.898438 226.6875 97.769531 C 226.25 97.597656 225.808594 97.429688 225.363281 97.269531 " fill-opacity="1" fill-rule="nonzero"/><path fill="#005c9c" d="M 176.949219 160.691406 C 176.949219 168.320312 173.933594 157.507812 169.632812 157.507812 C 165.328125 157.507812 161.371094 168.320312 161.371094 160.691406 C 161.371094 153.066406 164.859375 146.886719 169.160156 146.886719 C 173.460938 146.886719 176.949219 153.066406 176.949219 160.691406 " fill-opacity="1" fill-rule="nonzero"/><path fill="#005c9c" d="M 208.574219 160.691406 C 208.574219 168.320312 205.558594 157.507812 201.257812 157.507812 C 196.957031 157.507812 192.996094 168.320312 192.996094 160.691406 C 192.996094 153.066406 196.484375 146.886719 200.785156 146.886719 C 205.085938 146.886719 208.574219 153.066406 208.574219 160.691406 " fill-opacity="1" fill-rule="nonzero"/><path fill="#50cef6" d="M 141.445312 145.289062 C 140.960938 145.289062 140.535156 145.054688 140.171875 144.519531 C 138.296875 141.753906 141.164062 136.539062 146.574219 132.875 C 149.773438 130.707031 153.144531 129.566406 155.75 129.566406 C 157.554688 129.566406 158.996094 130.113281 159.761719 131.242188 C 161.632812 134.007812 156.339844 134.652344 150.929688 138.320312 C 146.570312 141.273438 143.46875 145.289062 141.445312 145.289062 " fill-opacity="1" fill-rule="nonzero"/><path fill="#50cef6" d="M 137.433594 151.992188 C 136.175781 151.992188 135.15625 150.8125 135.15625 149.363281 C 135.15625 147.910156 136.175781 146.734375 137.433594 146.734375 C 138.691406 146.734375 139.714844 147.910156 139.714844 149.363281 C 139.714844 150.8125 138.691406 151.992188 137.433594 151.992188 " fill-opacity="1" fill-rule="nonzero"/><path fill="#fdfefe" d="M 186.367188 179.167969 C 182.839844 179.167969 179.972656 176.296875 179.972656 172.769531 C 179.972656 172.140625 180.480469 171.628906 181.109375 171.628906 C 181.738281 171.628906 182.25 172.140625 182.25 172.769531 C 182.25 175.039062 184.097656 176.886719 186.367188 176.886719 C 188.640625 176.886719 190.488281 175.039062 190.488281 172.769531 C 190.488281 172.140625 191 171.628906 191.628906 171.628906 C 192.257812 171.628906 192.769531 172.140625 192.769531 172.769531 C 192.769531 176.296875 189.898438 179.167969 186.367188 179.167969 " fill-opacity="1" fill-rule="nonzero"/><path fill="#36677a" d="M 219.730469 196.960938 C 228.632812 194.3125 236.691406 190.5 243.53125 185.792969 C 236.691406 190.5 228.632812 194.3125 219.730469 196.960938 M 243.53125 185.789062 C 243.585938 185.753906 243.636719 185.71875 243.691406 185.683594 C 243.640625 185.71875 243.585938 185.753906 243.53125 185.789062 M 243.699219 185.675781 C 243.710938 185.667969 243.722656 185.660156 243.730469 185.652344 C 243.722656 185.660156 243.710938 185.667969 243.699219 185.675781 M 243.742188 185.648438 C 243.75 185.640625 243.757812 185.632812 243.769531 185.625 C 243.757812 185.632812 243.75 185.640625 243.742188 185.648438 M 243.78125 185.621094 C 243.789062 185.613281 243.800781 185.605469 243.808594 185.601562 C 243.800781 185.605469 243.789062 185.613281 243.78125 185.621094 M 243.820312 185.59375 C 243.832031 185.585938 243.84375 185.574219 243.855469 185.566406 C 258.195312 175.574219 267.105469 161.621094 267.105469 146.175781 C 267.105469 161.621094 258.195312 175.574219 243.855469 185.566406 C 243.84375 185.574219 243.832031 185.582031 243.820312 185.59375 " fill-opacity="1" fill-rule="nonzero"/><path fill="#37879b" d="M 219.566406 197.011719 L 219.5625 197.011719 C 219.617188 196.996094 219.675781 196.976562 219.730469 196.960938 C 219.675781 196.976562 219.617188 196.996094 219.566406 197.011719 " fill-opacity="1" fill-rule="nonzero"/><path fill="#86dced" d="M 219.5 197.03125 C 219.519531 197.023438 219.542969 197.019531 219.5625 197.011719 L 219.566406 197.011719 C 219.542969 197.019531 219.519531 197.023438 219.5 197.03125 " fill-opacity="1" fill-rule="nonzero"/><path fill="#6dd6e9" d="M 198.886719 200.816406 C 198.890625 200.816406 198.890625 200.816406 198.890625 200.816406 C 206.109375 200.234375 213.023438 198.941406 219.5 197.03125 C 213.023438 198.941406 206.109375 200.238281 198.886719 200.816406 " fill-opacity="1" fill-rule="nonzero"/><path fill="#bfeef6" d="M 198.890625 200.816406 C 210.605469 198.214844 221.121094 193.660156 229.695312 187.691406 C 232.6875 185.605469 235.445312 183.347656 237.933594 180.941406 C 239.785156 182.5625 241.761719 184.105469 243.855469 185.566406 C 243.84375 185.574219 243.832031 185.585938 243.820312 185.59375 C 243.816406 185.59375 243.8125 185.597656 243.808594 185.601562 C 243.800781 185.605469 243.789062 185.613281 243.78125 185.621094 C 243.773438 185.621094 243.773438 185.625 243.769531 185.625 C 243.757812 185.632812 243.75 185.640625 243.742188 185.648438 C 243.738281 185.648438 243.734375 185.652344 243.730469 185.652344 C 243.722656 185.660156 243.710938 185.667969 243.699219 185.675781 C 243.695312 185.679688 243.695312 185.679688 243.691406 185.683594 C 243.636719 185.71875 243.585938 185.753906 243.53125 185.789062 C 243.53125 185.789062 243.53125 185.792969 243.53125 185.792969 C 236.691406 190.5 228.632812 194.3125 219.730469 196.960938 C 219.675781 196.976562 219.617188 196.996094 219.5625 197.011719 C 219.542969 197.019531 219.519531 197.023438 219.5 197.03125 C 213.023438 198.941406 206.109375 200.234375 198.890625 200.816406 M 235.621094 113.539062 C 233.769531 111.917969 231.792969 110.375 229.695312 108.914062 C 227.3125 107.253906 224.773438 105.703125 222.105469 104.273438 C 224.382812 102.265625 225.9375 100.070312 226.6875 97.769531 C 232.992188 100.203125 238.765625 103.246094 243.855469 106.789062 C 240.867188 108.875 238.109375 111.132812 235.621094 113.539062 " fill-opacity="1" fill-rule="nonzero"/><path fill="#abe5f2" d="M 243.855469 185.566406 C 241.761719 184.105469 239.785156 182.5625 237.933594 180.941406 C 247.363281 171.8125 252.945312 160.523438 252.945312 148.300781 C 252.945312 135.117188 246.449219 123.015625 235.621094 113.539062 C 238.109375 111.132812 240.867188 108.875 243.855469 106.789062 C 258.195312 116.78125 267.105469 130.734375 267.105469 146.175781 C 267.105469 161.621094 258.195312 175.574219 243.855469 185.566406 " fill-opacity="1" fill-rule="nonzero"/><path fill="#36677a" d="M 188.253906 91.203125 C 188.253906 91.203125 188.257812 91.203125 188.257812 91.203125 C 188.257812 91.203125 188.253906 91.203125 188.253906 91.203125 M 188.300781 91.203125 L 188.304688 91.203125 L 188.300781 91.203125 M 188.347656 91.203125 C 188.347656 91.203125 188.347656 91.203125 188.351562 91.203125 C 188.347656 91.203125 188.347656 91.203125 188.347656 91.203125 M 188.394531 91.203125 C 188.394531 91.203125 188.394531 91.203125 188.398438 91.203125 C 188.398438 91.203125 188.394531 91.203125 188.394531 91.203125 M 188.433594 91.203125 C 188.4375 91.203125 188.441406 91.203125 188.445312 91.203125 C 188.441406 91.203125 188.4375 91.203125 188.433594 91.203125 M 188.71875 91.199219 C 188.722656 91.199219 188.726562 91.199219 188.730469 91.199219 C 188.726562 91.199219 188.722656 91.199219 188.71875 91.199219 M 188.761719 91.195312 C 188.765625 91.195312 188.769531 91.195312 188.777344 91.195312 C 188.769531 91.195312 188.765625 91.195312 188.761719 91.195312 M 188.804688 91.195312 C 188.8125 91.195312 188.816406 91.195312 188.824219 91.195312 C 188.816406 91.195312 188.8125 91.195312 188.804688 91.195312 M 188.851562 91.195312 C 188.859375 91.195312 188.863281 91.195312 188.867188 91.195312 C 188.863281 91.195312 188.855469 91.195312 188.851562 91.195312 M 188.894531 91.195312 C 188.902344 91.195312 188.910156 91.195312 188.914062 91.195312 C 188.90625 91.195312 188.902344 91.195312 188.894531 91.195312 M 188.941406 91.195312 C 188.945312 91.195312 188.953125 91.195312 188.957031 91.195312 C 188.953125 91.195312 188.945312 91.195312 188.941406 91.195312 M 188.988281 91.195312 C 188.992188 91.195312 189 91.195312 189.003906 91.195312 C 189 91.195312 188.992188 91.195312 188.988281 91.195312 M 189.042969 91.195312 C 189.042969 91.195312 189.042969 91.195312 189.046875 91.195312 C 189.042969 91.195312 189.042969 91.195312 189.042969 91.195312 M 189.136719 91.191406 C 189.140625 91.191406 189.148438 91.191406 189.152344 91.191406 C 189.148438 91.191406 189.144531 91.191406 189.136719 91.191406 M 189.183594 91.191406 C 189.1875 91.191406 189.191406 91.191406 189.195312 91.191406 C 189.191406 91.191406 189.1875 91.191406 189.183594 91.191406 M 189.230469 91.191406 C 189.234375 91.191406 189.238281 91.191406 189.242188 91.191406 C 189.238281 91.191406 189.234375 91.191406 189.230469 91.191406 M 189.273438 91.191406 C 189.277344 91.191406 189.285156 91.191406 189.289062 91.191406 C 189.285156 91.191406 189.277344 91.191406 189.273438 91.191406 M 189.320312 91.191406 C 189.324219 91.191406 189.332031 91.191406 189.335938 91.191406 C 189.332031 91.191406 189.324219 91.191406 189.320312 91.191406 M 189.363281 91.191406 C 189.367188 91.191406 189.375 91.191406 189.382812 91.191406 C 189.375 91.191406 189.367188 91.191406 189.363281 91.191406 M 189.410156 91.191406 C 189.414062 91.191406 189.421875 91.191406 189.425781 91.191406 C 189.421875 91.191406 189.414062 91.191406 189.410156 91.191406 M 189.453125 91.191406 C 189.457031 91.191406 189.464844 91.191406 189.472656 91.191406 C 189.464844 91.191406 189.460938 91.191406 189.453125 91.191406 M 189.5 91.191406 C 189.503906 91.191406 189.507812 91.191406 189.515625 91.191406 C 189.507812 91.191406 189.503906 91.191406 189.5 91.191406 M 189.542969 91.191406 C 189.550781 91.191406 189.554688 91.191406 189.5625 91.191406 C 189.554688 91.191406 189.550781 91.191406 189.542969 91.191406 M 189.652344 91.1875 C 189.65625 91.1875 189.65625 91.1875 189.660156 91.1875 C 189.65625 91.1875 189.65625 91.1875 189.652344 91.1875 M 189.695312 91.1875 C 189.699219 91.1875 189.703125 91.1875 189.707031 91.1875 C 189.703125 91.1875 189.699219 91.1875 189.695312 91.1875 M 189.742188 91.1875 C 189.746094 91.1875 189.75 91.1875 189.757812 91.1875 C 189.75 91.1875 189.746094 91.1875 189.742188 91.1875 M 189.785156 91.1875 C 189.792969 91.1875 189.796875 91.1875 189.804688 91.1875 C 189.796875 91.1875 189.792969 91.1875 189.785156 91.1875 M 189.832031 91.1875 C 189.839844 91.1875 189.84375 91.1875 189.847656 91.1875 C 189.84375 91.1875 189.835938 91.1875 189.832031 91.1875 M 189.878906 91.1875 C 189.882812 91.1875 189.890625 91.1875 189.894531 91.1875 C 189.890625 91.1875 189.882812 91.1875 189.878906 91.1875 M 189.921875 91.1875 C 189.925781 91.1875 189.933594 91.1875 189.941406 91.1875 C 189.933594 91.1875 189.925781 91.1875 189.921875 91.1875 M 189.96875 91.1875 C 189.972656 91.1875 189.980469 91.1875 189.984375 91.1875 C 189.980469 91.1875 189.972656 91.1875 189.96875 91.1875 M 190.011719 91.1875 C 190.019531 91.1875 190.023438 91.1875 190.027344 91.1875 C 190.023438 91.1875 190.019531 91.1875 190.011719 91.1875 M 190.058594 91.1875 C 190.066406 91.1875 190.070312 91.1875 190.078125 91.1875 C 190.070312 91.1875 190.066406 91.1875 190.058594 91.1875 M 190.101562 91.1875 C 190.105469 91.1875 190.113281 91.1875 190.121094 91.1875 C 190.113281 91.1875 190.105469 91.1875 190.101562 91.1875 " fill-opacity="1" fill-rule="nonzero"/><path fill="#bfeef6" d="M 220.757812 103.566406 C 218.132812 102.222656 215.382812 100.996094 212.527344 99.890625 C 212.089844 99.722656 211.648438 99.554688 211.199219 99.390625 C 200.652344 95.503906 188.6875 93.3125 176.003906 93.3125 C 173.054688 93.3125 170.140625 93.429688 167.277344 93.664062 C 173.929688 92.183594 180.964844 91.332031 188.253906 91.203125 C 188.253906 91.203125 188.257812 91.203125 188.257812 91.203125 C 188.273438 91.203125 188.285156 91.203125 188.300781 91.203125 L 188.304688 91.203125 C 188.316406 91.203125 188.332031 91.203125 188.347656 91.203125 C 188.347656 91.203125 188.347656 91.203125 188.351562 91.203125 C 188.363281 91.203125 188.378906 91.203125 188.394531 91.203125 C 188.394531 91.203125 188.398438 91.203125 188.398438 91.203125 C 188.410156 91.203125 188.421875 91.203125 188.433594 91.203125 C 188.4375 91.203125 188.441406 91.203125 188.445312 91.203125 C 188.535156 91.199219 188.625 91.199219 188.71875 91.199219 C 188.722656 91.199219 188.726562 91.199219 188.730469 91.199219 C 188.742188 91.195312 188.753906 91.195312 188.761719 91.195312 C 188.765625 91.195312 188.769531 91.195312 188.777344 91.195312 C 188.785156 91.195312 188.796875 91.195312 188.804688 91.195312 C 188.8125 91.195312 188.816406 91.195312 188.824219 91.195312 C 188.832031 91.195312 188.84375 91.195312 188.851562 91.195312 C 188.855469 91.195312 188.863281 91.195312 188.867188 91.195312 C 188.875 91.195312 188.886719 91.195312 188.894531 91.195312 C 188.902344 91.195312 188.90625 91.195312 188.914062 91.195312 C 188.921875 91.195312 188.929688 91.195312 188.941406 91.195312 C 188.945312 91.195312 188.953125 91.195312 188.957031 91.195312 C 188.96875 91.195312 188.976562 91.195312 188.988281 91.195312 C 188.992188 91.195312 189 91.195312 189.003906 91.195312 C 189.015625 91.195312 189.027344 91.195312 189.042969 91.195312 C 189.042969 91.195312 189.042969 91.195312 189.046875 91.195312 C 189.078125 91.195312 189.105469 91.191406 189.136719 91.191406 C 189.144531 91.191406 189.148438 91.191406 189.152344 91.191406 C 189.164062 91.191406 189.171875 91.191406 189.183594 91.191406 C 189.1875 91.191406 189.191406 91.191406 189.195312 91.191406 C 189.207031 91.191406 189.21875 91.191406 189.230469 91.191406 C 189.234375 91.191406 189.238281 91.191406 189.242188 91.191406 C 189.253906 91.191406 189.261719 91.191406 189.273438 91.191406 C 189.277344 91.191406 189.285156 91.191406 189.289062 91.191406 C 189.300781 91.191406 189.308594 91.191406 189.320312 91.191406 C 189.324219 91.191406 189.332031 91.191406 189.335938 91.191406 C 189.34375 91.191406 189.351562 91.191406 189.363281 91.191406 C 189.367188 91.191406 189.375 91.191406 189.382812 91.191406 C 189.390625 91.191406 189.398438 91.191406 189.410156 91.191406 C 189.414062 91.191406 189.421875 91.191406 189.425781 91.191406 C 189.433594 91.191406 189.441406 91.191406 189.453125 91.191406 C 189.460938 91.191406 189.464844 91.191406 189.472656 91.191406 C 189.480469 91.191406 189.488281 91.191406 189.5 91.191406 C 189.503906 91.191406 189.507812 91.191406 189.515625 91.191406 C 189.523438 91.191406 189.535156 91.191406 189.542969 91.191406 C 189.550781 91.191406 189.554688 91.191406 189.5625 91.191406 C 189.59375 91.191406 189.621094 91.1875 189.652344 91.1875 C 189.65625 91.1875 189.65625 91.1875 189.660156 91.1875 C 189.671875 91.1875 189.683594 91.1875 189.695312 91.1875 C 189.699219 91.1875 189.703125 91.1875 189.707031 91.1875 C 189.71875 91.1875 189.730469 91.1875 189.742188 91.1875 C 189.746094 91.1875 189.75 91.1875 189.757812 91.1875 C 189.765625 91.1875 189.777344 91.1875 189.785156 91.1875 C 189.792969 91.1875 189.796875 91.1875 189.804688 91.1875 C 189.8125 91.1875 189.820312 91.1875 189.832031 91.1875 C 189.835938 91.1875 189.84375 91.1875 189.847656 91.1875 C 189.859375 91.1875 189.867188 91.1875 189.878906 91.1875 C 189.882812 91.1875 189.890625 91.1875 189.894531 91.1875 C 189.902344 91.1875 189.914062 91.1875 189.921875 91.1875 C 189.925781 91.1875 189.933594 91.1875 189.941406 91.1875 C 189.949219 91.1875 189.957031 91.1875 189.96875 91.1875 C 189.972656 91.1875 189.980469 91.1875 189.984375 91.1875 C 189.996094 91.1875 190.003906 91.1875 190.011719 91.1875 C 190.019531 91.1875 190.023438 91.1875 190.027344 91.1875 C 190.039062 91.1875 190.046875 91.1875 190.058594 91.1875 C 190.066406 91.1875 190.070312 91.1875 190.078125 91.1875 C 190.085938 91.1875 190.09375 91.1875 190.101562 91.1875 C 190.105469 91.1875 190.113281 91.1875 190.121094 91.1875 C 190.136719 91.1875 190.152344 91.1875 190.167969 91.1875 C 202.847656 91.1875 214.8125 93.378906 225.363281 97.269531 C 224.652344 99.488281 223.09375 101.617188 220.757812 103.566406 " fill-opacity="1" fill-rule="nonzero"/><path fill="#abe5f2" d="M 222.105469 104.273438 C 221.660156 104.035156 221.210938 103.800781 220.757812 103.566406 C 223.09375 101.617188 224.652344 99.488281 225.363281 97.269531 C 225.808594 97.429688 226.25 97.597656 226.6875 97.769531 C 225.9375 100.070312 224.382812 102.265625 222.105469 104.273438 " fill-opacity="1" fill-rule="nonzero"/><path fill="#087799" d="M 278.195312 146.414062 C 278.195312 135.152344 273.992188 125.613281 268.1875 122.355469 L 269.9375 121.160156 L 263.328125 121.160156 C 255.601562 121.605469 249.402344 132.738281 249.402344 146.414062 C 249.402344 160.082031 255.589844 171.207031 263.320312 171.652344 L 269.9375 171.667969 L 267.933594 170.609375 C 273.871094 167.492188 278.195312 157.839844 278.195312 146.414062 " fill-opacity="1" fill-rule="nonzero"/><path fill="#02b8f2" d="M 284.332031 146.414062 C 284.332031 160.359375 277.886719 171.667969 269.9375 171.667969 C 261.984375 171.667969 255.539062 160.359375 255.539062 146.414062 C 255.539062 132.46875 261.984375 121.160156 269.9375 121.160156 C 277.886719 121.160156 284.332031 132.46875 284.332031 146.414062 " fill-opacity="1" fill-rule="nonzero"/><path fill="#038abd" d="M 99.300781 146.414062 C 99.300781 135.152344 103.503906 125.613281 109.3125 122.355469 L 107.5625 121.160156 L 114.171875 121.160156 C 121.898438 121.605469 128.09375 132.738281 128.09375 146.414062 C 128.09375 160.082031 121.90625 171.207031 114.175781 171.652344 L 107.5625 171.667969 L 109.566406 170.609375 C 103.628906 167.492188 99.300781 157.839844 99.300781 146.414062 " fill-opacity="1" fill-rule="nonzero"/><path fill="#02b8f2" d="M 93.164062 146.414062 C 93.164062 160.359375 99.609375 171.667969 107.5625 171.667969 C 115.511719 171.667969 121.957031 160.359375 121.957031 146.414062 C 121.957031 132.46875 115.511719 121.160156 107.5625 121.160156 C 99.609375 121.160156 93.164062 132.46875 93.164062 146.414062 " fill-opacity="1" fill-rule="nonzero"/><path fill="#038abd" d="M 170.40625 140.519531 C 170.761719 141.429688 169.152344 142.902344 166.8125 143.8125 C 164.476562 144.722656 162.292969 144.722656 161.9375 143.8125 C 161.585938 142.902344 163.195312 141.429688 165.53125 140.519531 C 167.871094 139.609375 170.054688 139.609375 170.40625 140.519531 " fill-opacity="1" fill-rule="nonzero"/><path fill="#038abd" d="M 199.699219 140.046875 C 199.347656 140.957031 200.957031 142.429688 203.292969 143.339844 C 205.632812 144.25 207.816406 144.25 208.167969 143.339844 C 208.523438 142.429688 206.914062 140.957031 204.574219 140.046875 C 202.238281 139.136719 200.054688 139.136719 199.699219 140.046875 " fill-opacity="1" fill-rule="nonzero"/><path fill="#038abd" d="M 257.609375 163.660156 C 255.421875 165.421875 253.105469 167.058594 250.710938 168.515625 C 248.007812 170.167969 245.226562 171.628906 242.421875 173 C 241.019531 173.691406 239.621094 174.34375 238.191406 174.996094 C 236.707031 175.671875 235.199219 176.210938 233.6875 176.707031 C 232.171875 177.195312 230.648438 177.597656 229.121094 177.976562 C 227.589844 178.339844 226.054688 178.671875 224.515625 178.957031 C 221.4375 179.539062 218.351562 179.972656 215.261719 180.335938 C 212.171875 180.691406 209.074219 180.964844 205.976562 181.164062 C 202.875 181.363281 199.789062 181.503906 196.660156 181.546875 C 196.03125 181.554688 195.515625 181.050781 195.503906 180.421875 C 195.496094 179.804688 195.980469 179.292969 196.597656 179.269531 C 199.65625 179.148438 202.730469 178.925781 205.78125 178.652344 C 208.835938 178.375 211.882812 178.027344 214.910156 177.597656 C 217.9375 177.160156 220.949219 176.65625 223.925781 176.015625 C 225.410156 175.699219 226.882812 175.339844 228.347656 174.953125 C 229.804688 174.546875 231.25 174.128906 232.660156 173.628906 C 234.066406 173.128906 235.457031 172.589844 236.769531 171.949219 C 238.125 171.285156 239.503906 170.59375 240.851562 169.890625 C 243.554688 168.480469 246.203125 166.996094 248.726562 165.367188 C 250.984375 163.902344 253.125 162.304688 255.171875 160.566406 C 255.886719 161.714844 256.707031 162.753906 257.609375 163.660156 " fill-opacity="1" fill-rule="nonzero"/><path fill="#038abd" d="M 207.242188 180.496094 C 207.242188 182.625 204.027344 184.351562 200.058594 184.351562 C 196.085938 184.351562 192.867188 182.625 192.867188 180.496094 C 192.867188 178.363281 196.085938 176.636719 200.058594 176.636719 C 204.027344 176.636719 207.242188 178.363281 207.242188 180.496094 " fill-opacity="1" fill-rule="nonzero"/></svg>