<svg xmlns="http://www.w3.org/2000/svg" xmlns:xlink="http://www.w3.org/1999/xlink" width="88" zoomAndPan="magnify" viewBox="0 0 66 66" height="88" preserveAspectRatio="xMidYMid meet" version="1.0"><defs><clipPath id="c51f3fef38"><path d="M 3.300781 3.300781 L 62.550781 3.300781 L 62.550781 62.550781 L 3.300781 62.550781 Z M 3.300781 3.300781 " clip-rule="nonzero"/></clipPath></defs><path fill="#737373" d="M 40.660156 15.902344 L 25.214844 15.902344 C 20.097656 15.902344 15.929688 20.070312 15.929688 25.1875 L 15.929688 40.636719 C 15.929688 45.753906 20.097656 49.921875 25.214844 49.921875 L 40.660156 49.921875 C 45.777344 49.921875 49.945312 45.753906 49.945312 40.636719 L 49.945312 25.214844 C 49.945312 20.070312 45.777344 15.902344 40.660156 15.902344 Z M 47.027344 40.660156 C 47.027344 44.179688 44.179688 47.027344 40.660156 47.027344 L 25.214844 47.027344 C 21.695312 47.027344 18.824219 44.179688 18.824219 40.660156 L 18.824219 25.214844 C 18.824219 21.695312 21.695312 18.824219 25.214844 18.824219 L 40.660156 18.824219 C 44.179688 18.824219 47.027344 21.667969 47.027344 25.214844 Z M 47.027344 40.660156 " fill-opacity="1" fill-rule="nonzero"/><path fill="#737373" d="M 44.304688 23.617188 C 44.304688 24.765625 43.382812 25.710938 42.210938 25.710938 C 41.0625 25.710938 40.113281 24.789062 40.113281 23.617188 C 40.113281 22.46875 41.035156 21.519531 42.210938 21.519531 C 43.382812 21.542969 44.304688 22.46875 44.304688 23.617188 Z M 44.304688 23.617188 " fill-opacity="1" fill-rule="nonzero"/><path fill="#737373" d="M 32.925781 24.265625 C 28.15625 24.265625 24.265625 28.15625 24.265625 32.925781 C 24.265625 37.691406 28.15625 41.585938 32.925781 41.585938 C 37.691406 41.585938 41.585938 37.691406 41.585938 32.925781 C 41.585938 28.15625 37.71875 24.265625 32.925781 24.265625 Z M 32.925781 38.664062 C 29.753906 38.664062 27.183594 36.09375 27.183594 32.925781 C 27.183594 29.753906 29.753906 27.183594 32.925781 27.183594 C 36.09375 27.183594 38.664062 29.753906 38.664062 32.925781 C 38.664062 36.09375 36.09375 38.664062 32.925781 38.664062 Z M 32.925781 38.664062 " fill-opacity="1" fill-rule="nonzero"/><g clip-path="url(#c51f3fef38)"><path fill="#737373" d="M 32.925781 62.550781 C 16.601562 62.550781 3.300781 49.273438 3.300781 32.925781 C 3.300781 16.601562 16.601562 3.300781 32.925781 3.300781 C 49.273438 3.300781 62.550781 16.601562 62.550781 32.925781 C 62.550781 49.273438 49.273438 62.550781 32.925781 62.550781 Z M 32.925781 4.921875 C 17.476562 4.921875 4.921875 17.476562 4.921875 32.925781 C 4.921875 48.375 17.476562 60.925781 32.925781 60.925781 C 48.375 60.925781 60.925781 48.375 60.925781 32.925781 C 60.925781 17.476562 48.375 4.921875 32.925781 4.921875 Z M 32.925781 4.921875 " fill-opacity="1" fill-rule="nonzero"/></g></svg>