<svg xmlns="http://www.w3.org/2000/svg" xmlns:xlink="http://www.w3.org/1999/xlink" width="500" zoomAndPan="magnify" viewBox="0 0 375 374.999991" height="500" preserveAspectRatio="xMidYMid meet" version="1.0"><defs><clipPath id="69b6053752"><path d="M 112.5 112 L 221 112 L 221 220.398438 L 112.5 220.398438 Z M 112.5 112 " clip-rule="nonzero"/></clipPath><clipPath id="ce065a95df"><path d="M 125 86.148438 L 254.25 86.148438 L 254.25 202 L 125 202 Z M 125 86.148438 " clip-rule="nonzero"/></clipPath></defs><path fill="#ffffff" d="M 216.714844 197.566406 C 216.714844 208.234375 208.046875 216.890625 197.359375 216.890625 L 135.40625 216.890625 C 124.71875 216.890625 116.054688 208.238281 116.054688 197.566406 L 116.054688 135.726562 C 116.054688 125.058594 124.71875 116.402344 135.40625 116.402344 L 197.359375 116.402344 C 208.046875 116.402344 216.714844 125.054688 216.714844 135.726562 Z M 216.714844 197.566406 " fill-opacity="1" fill-rule="nonzero"/><g clip-path="url(#69b6053752)"><path fill="#4d4d4d" d="M 197.359375 220.339844 L 135.40625 220.339844 C 122.835938 220.339844 112.601562 210.128906 112.601562 197.566406 L 112.601562 135.726562 C 112.601562 123.171875 122.832031 112.957031 135.40625 112.957031 L 197.359375 112.957031 C 209.933594 112.957031 220.167969 123.171875 220.167969 135.726562 L 220.167969 197.570312 C 220.167969 210.128906 209.933594 220.339844 197.359375 220.339844 Z M 135.40625 119.851562 C 126.640625 119.851562 119.503906 126.972656 119.503906 135.726562 L 119.503906 197.566406 C 119.503906 206.324219 126.640625 213.441406 135.40625 213.441406 L 197.359375 213.441406 C 206.128906 213.441406 213.261719 206.324219 213.261719 197.566406 L 213.261719 135.726562 C 213.261719 126.976562 206.128906 119.851562 197.359375 119.851562 Z M 135.40625 119.851562 " fill-opacity="1" fill-rule="nonzero"/></g><g clip-path="url(#ce065a95df)"><path fill="#00a79d" d="M 250.3125 86.148438 L 244.394531 89.152344 C 213.4375 104.859375 179.089844 141.238281 160.308594 172.003906 C 158.472656 168.585938 157.929688 167.46875 156.210938 163.691406 C 148.894531 150.574219 138.976562 138.84375 134.132812 134.351562 L 125.335938 136.757812 L 125.535156 137.285156 C 130.476562 144.328125 138.769531 159.609375 149.988281 192.367188 C 150.75 193.8125 151.570312 195.253906 152.550781 196.609375 C 155.117188 200.183594 158.085938 201.253906 160.125 201.523438 C 160.128906 201.523438 160.128906 201.523438 160.128906 201.523438 C 165.945312 202.277344 169.976562 198.140625 173.035156 193.082031 C 195.675781 138.546875 236.820312 104.324219 254.160156 93.023438 Z M 250.3125 86.148438 " fill-opacity="1" fill-rule="nonzero"/></g></svg>