<svg xmlns="http://www.w3.org/2000/svg" xmlns:xlink="http://www.w3.org/1999/xlink" width="88" zoomAndPan="magnify" viewBox="0 0 66 66" height="88" preserveAspectRatio="xMidYMid meet" version="1.0"><defs><clipPath id="58faad5a89"><path d="M 4.613281 4.613281 L 40 4.613281 L 40 53 L 4.613281 53 Z M 4.613281 4.613281 " clip-rule="nonzero"/></clipPath><clipPath id="66368a2cc7"><path d="M 26 13 L 61.613281 13 L 61.613281 61.613281 L 26 61.613281 Z M 26 13 " clip-rule="nonzero"/></clipPath></defs><path fill="#e4eef6" d="M 38.402344 6.222656 L 38.402344 11.738281 L 33.449219 11.738281 C 32.207031 11.738281 31.011719 12.261719 30.167969 13.179688 L 26.269531 17.4375 C 25.511719 18.261719 25.097656 19.332031 25.097656 20.449219 L 25.097656 44.511719 C 20.671875 41.726562 18.066406 36.613281 18.589844 31.621094 C 18.675781 30.847656 18.414062 30.097656 17.925781 29.550781 C 17.574219 29.152344 17.109375 28.863281 16.570312 28.734375 C 16.359375 28.6875 16.144531 28.660156 15.933594 28.660156 C 15.160156 28.660156 14.441406 28.996094 13.945312 29.550781 C 13.734375 29.785156 13.5625 30.058594 13.441406 30.359375 C 12.605469 32.511719 12.183594 34.773438 12.183594 37.085938 C 12.183594 41.847656 14.199219 46.519531 17.507812 50.035156 C 17.851562 50.398438 18.203125 50.746094 18.574219 51.085938 C 18.730469 51.230469 18.890625 51.375 19.050781 51.507812 C 14.035156 51.535156 8.714844 51.539062 7.730469 51.421875 C 5.777344 51.199219 5.613281 49.757812 5.613281 49.757812 L 5.613281 10.898438 L 10.453125 5.671875 L 36.84375 5.726562 L 38.402344 6.222656 " fill-opacity="1" fill-rule="nonzero"/><path fill="#e4eef6" d="M 59.109375 14.355469 L 32.835938 14.355469 L 27.824219 19.699219 L 27.824219 45.847656 C 29.082031 46.304688 30.421875 46.605469 31.777344 46.726562 L 31.777344 46.472656 C 31.777344 45.457031 32.367188 44.511719 33.28125 44.070312 C 33.644531 43.894531 34.046875 43.800781 34.449219 43.800781 C 35.042969 43.800781 35.628906 44.003906 36.097656 44.371094 L 42.332031 49.269531 C 42.984375 49.78125 43.355469 50.546875 43.355469 51.371094 C 43.355469 52.195312 42.984375 52.960938 42.332031 53.472656 L 36.097656 58.371094 C 35.632812 58.734375 35.046875 58.9375 34.441406 58.9375 C 34.039062 58.9375 33.636719 58.84375 33.28125 58.671875 C 32.367188 58.226562 31.777344 57.285156 31.777344 56.269531 C 30.441406 56.246094 29.121094 56.089844 27.824219 55.816406 L 27.824219 59.554688 L 30.273438 60.667969 L 59.496094 60.667969 L 60.777344 59.386719 L 60.777344 16.078125 L 59.109375 14.355469 " fill-opacity="1" fill-rule="nonzero"/><path fill="#2c3d53" d="M 25.097656 27.769531 L 25.097656 29.550781 L 17.925781 29.550781 C 17.574219 29.152344 17.109375 28.863281 16.570312 28.734375 C 16.359375 28.6875 16.144531 28.660156 15.933594 28.660156 C 15.160156 28.660156 14.441406 28.996094 13.945312 29.550781 L 10.847656 29.550781 C 10.355469 29.550781 9.957031 29.148438 9.957031 28.660156 C 9.957031 28.167969 10.355469 27.769531 10.847656 27.769531 L 25.097656 27.769531 " fill-opacity="1" fill-rule="nonzero"/><path fill="#2c3d53" d="M 25.097656 23.316406 L 10.847656 23.316406 C 10.355469 23.316406 9.957031 23.714844 9.957031 24.207031 C 9.957031 24.699219 10.355469 25.097656 10.847656 25.097656 L 25.097656 25.097656 L 25.097656 23.316406 " fill-opacity="1" fill-rule="nonzero"/><path fill="#2c3d53" d="M 25.097656 20.445312 C 25.097656 19.898438 25.199219 19.363281 25.390625 18.863281 L 10.847656 18.863281 C 10.355469 18.863281 9.957031 19.261719 9.957031 19.753906 C 9.957031 20.246094 10.355469 20.644531 10.847656 20.644531 L 25.097656 20.644531 L 25.097656 20.445312 " fill-opacity="1" fill-rule="nonzero"/><path fill="#2c3d53" d="M 29.042969 14.410156 L 10.847656 14.410156 C 10.355469 14.410156 9.957031 14.808594 9.957031 15.300781 C 9.957031 15.792969 10.355469 16.191406 10.847656 16.191406 L 27.410156 16.191406 L 29.042969 14.410156 " fill-opacity="1" fill-rule="nonzero"/><path fill="#2c3d53" d="M 33.113281 42.910156 L 55.378906 42.910156 C 55.871094 42.910156 56.269531 42.511719 56.269531 42.019531 C 56.269531 41.527344 55.871094 41.128906 55.378906 41.128906 L 33.113281 41.128906 C 32.621094 41.128906 32.222656 41.527344 32.222656 42.019531 C 32.222656 42.511719 32.621094 42.910156 33.113281 42.910156 " fill-opacity="1" fill-rule="nonzero"/><path fill="#2c3d53" d="M 33.113281 38.457031 L 55.378906 38.457031 C 55.871094 38.457031 56.269531 38.058594 56.269531 37.566406 C 56.269531 37.074219 55.871094 36.675781 55.378906 36.675781 L 33.113281 36.675781 C 32.621094 36.675781 32.222656 37.074219 32.222656 37.566406 C 32.222656 38.058594 32.621094 38.457031 33.113281 38.457031 " fill-opacity="1" fill-rule="nonzero"/><path fill="#2c3d53" d="M 33.113281 34.003906 L 55.378906 34.003906 C 55.871094 34.003906 56.269531 33.605469 56.269531 33.113281 C 56.269531 32.621094 55.871094 32.222656 55.378906 32.222656 L 33.113281 32.222656 C 32.621094 32.222656 32.222656 32.621094 32.222656 33.113281 C 32.222656 33.605469 32.621094 34.003906 33.113281 34.003906 " fill-opacity="1" fill-rule="nonzero"/><path fill="#2c3d53" d="M 33.113281 29.550781 L 55.378906 29.550781 C 55.871094 29.550781 56.269531 29.152344 56.269531 28.660156 C 56.269531 28.167969 55.871094 27.769531 55.378906 27.769531 L 33.113281 27.769531 C 32.621094 27.769531 32.222656 28.167969 32.222656 28.660156 C 32.222656 29.152344 32.621094 29.550781 33.113281 29.550781 " fill-opacity="1" fill-rule="nonzero"/><path fill="#2c3d53" d="M 33.113281 25.097656 L 55.378906 25.097656 C 55.871094 25.097656 56.269531 24.699219 56.269531 24.207031 C 56.269531 23.714844 55.871094 23.316406 55.378906 23.316406 L 33.113281 23.316406 C 32.621094 23.316406 32.222656 23.714844 32.222656 24.207031 C 32.222656 24.699219 32.621094 25.097656 33.113281 25.097656 " fill-opacity="1" fill-rule="nonzero"/><g clip-path="url(#58faad5a89)"><path fill="#2c3d53" d="M 36.675781 4.613281 L 11.183594 4.613281 C 10.4375 4.613281 9.71875 4.929688 9.21875 5.480469 L 5.316406 9.734375 C 4.863281 10.226562 4.613281 10.867188 4.613281 11.542969 L 4.613281 50.035156 C 4.613281 51.507812 5.808594 52.707031 7.285156 52.707031 L 20.585938 52.707031 C 19.8125 52.164062 19.082031 51.570312 18.394531 50.925781 L 7.285156 50.925781 C 6.792969 50.925781 6.394531 50.523438 6.394531 50.035156 L 6.394531 12.183594 L 12.183594 12.183594 C 12.445312 12.183594 12.695312 12.066406 12.863281 11.863281 C 13.035156 11.660156 13.105469 11.394531 13.058594 11.136719 L 12.210938 6.394531 L 36.675781 6.394531 C 37.164062 6.394531 37.566406 6.792969 37.566406 7.285156 L 37.566406 11.738281 L 39.347656 11.738281 L 39.347656 7.285156 C 39.347656 5.808594 38.148438 4.613281 36.675781 4.613281 M 7.121094 10.402344 L 10.464844 6.753906 L 11.117188 10.402344 L 7.121094 10.402344 " fill-opacity="1" fill-rule="nonzero"/></g><path fill="#8dd9dd" d="M 11.117188 10.402344 L 7.121094 10.402344 L 10.464844 6.753906 L 11.117188 10.402344 " fill-opacity="1" fill-rule="nonzero"/><path fill="#2c3d53" d="M 9.957031 46.472656 C 9.957031 46.964844 10.355469 47.363281 10.847656 47.363281 L 15.386719 47.363281 C 15.003906 46.785156 14.652344 46.191406 14.335938 45.582031 L 10.847656 45.582031 C 10.355469 45.582031 9.957031 45.980469 9.957031 46.472656 " fill-opacity="1" fill-rule="nonzero"/><path fill="#2c3d53" d="M 10.847656 41.128906 C 10.355469 41.128906 9.957031 41.527344 9.957031 42.019531 C 9.957031 42.511719 10.355469 42.910156 10.847656 42.910156 L 13.179688 42.910156 C 12.980469 42.324219 12.804688 41.730469 12.664062 41.128906 L 10.847656 41.128906 " fill-opacity="1" fill-rule="nonzero"/><path fill="#2c3d53" d="M 25.097656 42.910156 L 25.097656 41.128906 L 21.394531 41.128906 C 21.878906 41.761719 22.414062 42.359375 23.003906 42.910156 L 25.097656 42.910156 " fill-opacity="1" fill-rule="nonzero"/><path fill="#2c3d53" d="M 25.097656 36.675781 L 19.101562 36.675781 C 19.285156 37.28125 19.511719 37.878906 19.777344 38.457031 L 25.097656 38.457031 L 25.097656 36.675781 " fill-opacity="1" fill-rule="nonzero"/><path fill="#2c3d53" d="M 10.847656 38.457031 L 12.238281 38.457031 C 12.203125 38 12.183594 37.542969 12.183594 37.085938 C 12.183594 36.949219 12.1875 36.8125 12.191406 36.675781 L 10.847656 36.675781 C 10.355469 36.675781 9.957031 37.074219 9.957031 37.566406 C 9.957031 38.058594 10.355469 38.457031 10.847656 38.457031 " fill-opacity="1" fill-rule="nonzero"/><path fill="#2c3d53" d="M 25.097656 32.222656 L 18.550781 32.222656 C 18.519531 32.816406 18.53125 33.410156 18.582031 34.003906 L 25.097656 34.003906 L 25.097656 32.222656 " fill-opacity="1" fill-rule="nonzero"/><path fill="#2c3d53" d="M 10.847656 34.003906 L 12.445312 34.003906 C 12.542969 33.402344 12.675781 32.808594 12.835938 32.222656 L 10.847656 32.222656 C 10.355469 32.222656 9.957031 32.621094 9.957031 33.113281 C 9.957031 33.605469 10.355469 34.003906 10.847656 34.003906 " fill-opacity="1" fill-rule="nonzero"/><path fill="#2c3d53" d="M 55.378906 54.488281 L 41.039062 54.488281 L 38.773438 56.269531 L 55.378906 56.269531 C 55.871094 56.269531 56.269531 55.871094 56.269531 55.378906 C 56.269531 54.886719 55.871094 54.488281 55.378906 54.488281 " fill-opacity="1" fill-rule="nonzero"/><path fill="#2c3d53" d="M 55.378906 50.035156 L 42.992188 50.035156 C 43.222656 50.4375 43.355469 50.894531 43.355469 51.371094 C 43.355469 51.519531 43.339844 51.667969 43.3125 51.816406 L 55.378906 51.816406 C 55.871094 51.816406 56.269531 51.417969 56.269531 50.925781 C 56.269531 50.433594 55.871094 50.035156 55.378906 50.035156 " fill-opacity="1" fill-rule="nonzero"/><path fill="#2c3d53" d="M 55.378906 45.582031 L 37.640625 45.582031 L 39.90625 47.363281 L 55.378906 47.363281 C 55.871094 47.363281 56.269531 46.964844 56.269531 46.472656 C 56.269531 45.980469 55.871094 45.582031 55.378906 45.582031 " fill-opacity="1" fill-rule="nonzero"/><g clip-path="url(#66368a2cc7)"><path fill="#2c3d53" d="M 58.941406 13.519531 L 33.449219 13.519531 C 32.703125 13.519531 31.984375 13.835938 31.484375 14.386719 L 27.582031 18.640625 C 27.128906 19.132812 26.878906 19.773438 26.878906 20.449219 L 26.878906 45.46875 C 27.457031 45.722656 28.050781 45.945312 28.660156 46.128906 L 28.660156 21.089844 L 34.449219 21.089844 C 34.710938 21.089844 34.960938 20.972656 35.128906 20.769531 C 35.300781 20.566406 35.371094 20.300781 35.324219 20.042969 L 34.476562 15.300781 L 58.941406 15.300781 C 59.429688 15.300781 59.832031 15.699219 59.832031 16.191406 L 59.832031 58.941406 C 59.832031 59.429688 59.429688 59.832031 58.941406 59.832031 L 29.550781 59.832031 C 29.058594 59.832031 28.660156 59.429688 28.660156 58.941406 L 28.660156 55.964844 C 28.0625 55.867188 27.464844 55.738281 26.878906 55.585938 L 26.878906 58.941406 C 26.878906 60.414062 28.074219 61.613281 29.550781 61.613281 L 58.941406 61.613281 C 60.414062 61.613281 61.613281 60.414062 61.613281 58.941406 L 61.613281 16.191406 C 61.613281 14.71875 60.414062 13.519531 58.941406 13.519531 M 29.386719 19.308594 L 32.730469 15.660156 L 33.382812 19.308594 L 29.386719 19.308594 " fill-opacity="1" fill-rule="nonzero"/></g><path fill="#8dd9dd" d="M 33.382812 19.308594 L 29.386719 19.308594 L 32.730469 15.660156 L 33.382812 19.308594 " fill-opacity="1" fill-rule="nonzero"/><path fill="#2c3d53" d="M 41.234375 50.671875 L 35 45.773438 C 34.730469 45.558594 34.363281 45.523438 34.0625 45.671875 C 33.753906 45.820312 33.558594 46.128906 33.558594 46.472656 L 33.558594 48.566406 C 30.4375 48.640625 27.300781 47.867188 24.652344 46.332031 C 19.351562 43.273438 16.203125 37.28125 16.820312 31.425781 C 16.867188 30.980469 16.578125 30.570312 16.144531 30.46875 C 15.710938 30.359375 15.265625 30.59375 15.105469 31.007812 C 14.347656 32.953125 13.964844 34.996094 13.964844 37.085938 C 13.964844 43.875 18.492188 50.453125 24.980469 53.089844 C 27.265625 54.015625 29.707031 54.492188 32.152344 54.492188 C 32.617188 54.492188 33.089844 54.464844 33.558594 54.433594 L 33.558594 56.269531 C 33.558594 56.613281 33.753906 56.917969 34.0625 57.070312 C 34.351562 57.210938 34.734375 57.175781 35 56.96875 L 41.234375 52.070312 C 41.449219 51.898438 41.574219 51.640625 41.574219 51.371094 C 41.574219 51.097656 41.449219 50.839844 41.234375 50.671875 M 33.558594 52.644531 C 30.898438 52.859375 28.125 52.445312 25.648438 51.4375 C 20.101562 49.183594 16.144531 43.734375 15.773438 37.972656 C 17.085938 42.035156 19.914062 45.652344 23.761719 47.875 C 26.683594 49.5625 30.125 50.425781 33.558594 50.355469 L 33.558594 52.644531 M 35.339844 54.4375 L 35.339844 48.300781 L 39.238281 51.371094 L 35.339844 54.4375 " fill-opacity="1" fill-rule="nonzero"/><path fill="#8dd9dd" d="M 39.238281 51.371094 L 35.339844 54.4375 L 35.339844 48.300781 L 39.238281 51.371094 " fill-opacity="1" fill-rule="nonzero"/><path fill="#8dd9dd" d="M 33.558594 50.355469 L 33.558594 52.644531 C 30.898438 52.859375 28.125 52.445312 25.648438 51.4375 C 20.101562 49.183594 16.144531 43.734375 15.773438 37.972656 C 17.085938 42.035156 19.914062 45.652344 23.761719 47.875 C 26.683594 49.5625 30.125 50.425781 33.558594 50.355469 " fill-opacity="1" fill-rule="nonzero"/><path fill="#f4f8fc" d="M 36.675781 6.394531 L 12.210938 6.394531 L 12.371094 7.285156 L 36.675781 7.285156 C 37.164062 7.285156 37.566406 7.683594 37.566406 8.175781 L 37.566406 7.285156 C 37.566406 6.792969 37.164062 6.394531 36.675781 6.394531 " fill-opacity="1" fill-rule="nonzero"/><path fill="#f4f8fc" d="M 58.941406 15.300781 L 34.476562 15.300781 L 34.636719 16.191406 L 58.941406 16.191406 C 59.429688 16.191406 59.832031 16.589844 59.832031 17.082031 L 59.832031 16.191406 C 59.832031 15.699219 59.429688 15.300781 58.941406 15.300781 " fill-opacity="1" fill-rule="nonzero"/><path fill="#273e4b" d="M 7.9375 9.511719 L 7.933594 9.511719 L 7.121094 10.402344 L 7.9375 9.511719 " fill-opacity="1" fill-rule="nonzero"/><path fill="#68b7b7" d="M 10.957031 9.511719 L 7.9375 9.511719 L 7.121094 10.402344 L 11.117188 10.402344 L 10.957031 9.511719 " fill-opacity="1" fill-rule="nonzero"/><path fill="#c1c7ce" d="M 6.394531 49.144531 L 6.394531 50.035156 C 6.394531 50.523438 6.792969 50.925781 7.285156 50.925781 L 18.394531 50.925781 C 18.453125 50.976562 18.515625 51.035156 18.574219 51.085938 C 18.203125 50.746094 17.851562 50.398438 17.507812 50.035156 L 7.285156 50.035156 C 6.792969 50.035156 6.394531 49.632812 6.394531 49.144531 " fill-opacity="1" fill-rule="nonzero"/><path fill="#273e4b" d="M 30.203125 18.417969 L 30.199219 18.417969 L 29.386719 19.308594 L 30.203125 18.417969 " fill-opacity="1" fill-rule="nonzero"/><path fill="#68b7b7" d="M 33.222656 18.417969 L 30.203125 18.417969 L 29.386719 19.308594 L 33.382812 19.308594 L 33.222656 18.417969 " fill-opacity="1" fill-rule="nonzero"/><path fill="#c1c7ce" d="M 59.832031 58.050781 C 59.832031 58.539062 59.429688 58.941406 58.941406 58.941406 L 29.550781 58.941406 C 29.058594 58.941406 28.660156 58.539062 28.660156 58.050781 L 28.660156 58.941406 C 28.660156 59.429688 29.058594 59.832031 29.550781 59.832031 L 58.941406 59.832031 C 59.429688 59.832031 59.832031 59.429688 59.832031 58.941406 L 59.832031 58.050781 " fill-opacity="1" fill-rule="nonzero"/><path fill="#273e4b" d="M 15.773438 37.972656 C 15.820312 38.125 15.875 38.277344 15.929688 38.433594 C 15.925781 38.421875 15.925781 38.414062 15.921875 38.402344 C 15.871094 38.261719 15.820312 38.117188 15.773438 37.972656 " fill-opacity="1" fill-rule="nonzero"/><path fill="#273e4b" d="M 15.804688 38.375 C 16.332031 43.988281 20.230469 49.238281 25.648438 51.4375 C 20.230469 49.238281 16.332031 43.988281 15.804688 38.375 " fill-opacity="1" fill-rule="nonzero"/><path fill="#68b7b7" d="M 15.773438 37.972656 C 15.78125 38.105469 15.792969 38.242188 15.804688 38.375 C 16.332031 43.988281 20.230469 49.238281 25.648438 51.4375 C 27.703125 52.269531 29.957031 52.699219 32.183594 52.699219 C 32.644531 52.699219 33.101562 52.679688 33.558594 52.644531 L 33.558594 51.753906 C 33.101562 51.789062 32.644531 51.808594 32.183594 51.808594 C 29.960938 51.808594 27.703125 51.378906 25.648438 50.546875 C 20.539062 48.472656 16.777344 43.679688 15.929688 38.433594 C 15.875 38.277344 15.820312 38.125 15.773438 37.972656 " fill-opacity="1" fill-rule="nonzero"/><path fill="#273e4b" d="M 38.675781 50.925781 L 39.238281 51.371094 L 38.675781 50.925781 " fill-opacity="1" fill-rule="nonzero"/><path fill="#68b7b7" d="M 38.675781 50.925781 L 35.339844 53.546875 L 35.339844 54.4375 L 39.238281 51.371094 L 38.675781 50.925781 " fill-opacity="1" fill-rule="nonzero"/></svg>