<svg xmlns="http://www.w3.org/2000/svg" xmlns:xlink="http://www.w3.org/1999/xlink" width="88" zoomAndPan="magnify" viewBox="0 0 66 66" height="88" preserveAspectRatio="xMidYMid meet" version="1.0"><defs><clipPath id="5b230213bd"><path d="M 3.273438 3.273438 L 63.273438 3.273438 L 63.273438 63.273438 L 3.273438 63.273438 Z M 3.273438 3.273438 " clip-rule="nonzero"/></clipPath></defs><path fill="#737373" d="M 36.15625 24.277344 L 36.15625 29.152344 L 42.296875 29.152344 L 41.4375 35.828125 L 36.15625 35.828125 L 36.15625 51.117188 L 29.457031 51.117188 L 29.457031 35.828125 L 23.71875 35.828125 L 23.71875 29.152344 L 29.457031 29.152344 L 29.457031 24.277344 C 29.457031 18.992188 33.730469 15.429688 39.011719 15.429688 C 41.335938 15.429688 42.800781 15.785156 42.800781 15.785156 L 42.800781 21.421875 L 39.011719 21.421875 C 37.445312 21.421875 36.15625 22.710938 36.15625 24.277344 Z M 36.15625 24.277344 " fill-opacity="1" fill-rule="nonzero"/><g clip-path="url(#5b230213bd)"><path fill="#737373" d="M 33.273438 63.273438 C 16.746094 63.273438 3.273438 49.828125 3.273438 33.273438 C 3.273438 16.71875 16.746094 3.273438 33.273438 3.273438 C 49.828125 3.273438 63.273438 16.746094 63.273438 33.273438 C 63.273438 49.804688 49.828125 63.273438 33.273438 63.273438 Z M 33.273438 4.917969 C 17.628906 4.917969 4.917969 17.628906 4.917969 33.273438 C 4.917969 48.917969 17.628906 61.632812 33.273438 61.632812 C 48.917969 61.632812 61.632812 48.917969 61.632812 33.273438 C 61.632812 17.628906 48.917969 4.917969 33.273438 4.917969 Z M 33.273438 4.917969 " fill-opacity="1" fill-rule="nonzero"/></g></svg>