<svg xmlns="http://www.w3.org/2000/svg" xmlns:xlink="http://www.w3.org/1999/xlink" width="500" zoomAndPan="magnify" viewBox="0 0 375 374.999991" height="500" preserveAspectRatio="xMidYMid meet" version="1.0"><defs><clipPath id="42a1cd60ad"><path d="M 112.5 144 L 227 144 L 227 258.84375 L 112.5 258.84375 Z M 112.5 144 " clip-rule="nonzero"/></clipPath><clipPath id="67772a8ec5"><path d="M 126 116.34375 L 262.5 116.34375 L 262.5 239 L 126 239 Z M 126 116.34375 " clip-rule="nonzero"/></clipPath></defs><path fill="#ffffff" d="M 222.78125 234.609375 C 222.78125 245.929688 213.609375 255.121094 202.296875 255.121094 L 136.742188 255.121094 C 125.429688 255.121094 116.257812 245.933594 116.257812 234.609375 L 116.257812 168.96875 C 116.257812 157.644531 125.429688 148.457031 136.742188 148.457031 L 202.296875 148.457031 C 213.609375 148.457031 222.78125 157.640625 222.78125 168.96875 Z M 222.78125 234.609375 " fill-opacity="1" fill-rule="nonzero"/><g clip-path="url(#42a1cd60ad)"><path fill="#4d4d4d" d="M 202.296875 258.78125 L 136.742188 258.78125 C 123.433594 258.78125 112.605469 247.941406 112.605469 234.609375 L 112.605469 168.96875 C 112.605469 155.640625 123.433594 144.796875 136.742188 144.796875 L 202.296875 144.796875 C 215.605469 144.796875 226.433594 155.644531 226.433594 168.96875 L 226.433594 234.613281 C 226.433594 247.941406 215.605469 258.78125 202.296875 258.78125 Z M 136.742188 152.117188 C 127.460938 152.117188 119.910156 159.675781 119.910156 168.96875 L 119.910156 234.609375 C 119.910156 243.90625 127.460938 251.460938 136.742188 251.460938 L 202.296875 251.460938 C 211.578125 251.460938 219.128906 243.90625 219.128906 234.609375 L 219.128906 168.96875 C 219.128906 159.683594 211.578125 152.117188 202.296875 152.117188 Z M 136.742188 152.117188 " fill-opacity="1" fill-rule="nonzero"/></g><g clip-path="url(#67772a8ec5)"><path fill="#00a79d" d="M 258.335938 116.34375 L 252.070312 119.53125 C 219.3125 136.203125 182.964844 174.820312 163.089844 207.476562 C 161.148438 203.847656 160.574219 202.660156 158.753906 198.652344 C 151.011719 184.726562 140.519531 172.273438 135.390625 167.507812 L 126.078125 170.0625 L 126.292969 170.621094 C 131.519531 178.097656 140.296875 194.316406 152.171875 229.089844 C 152.976562 230.625 153.84375 232.152344 154.878906 233.59375 C 157.597656 237.386719 160.738281 238.523438 162.898438 238.808594 C 169.058594 239.609375 173.320312 235.214844 176.558594 229.847656 C 200.515625 171.960938 244.054688 135.636719 262.40625 123.640625 Z M 258.335938 116.34375 " fill-opacity="1" fill-rule="nonzero"/></g></svg>