<svg xmlns="http://www.w3.org/2000/svg" xmlns:xlink="http://www.w3.org/1999/xlink" width="88" zoomAndPan="magnify" viewBox="0 0 66 66" height="88" preserveAspectRatio="xMidYMid meet" version="1.0"><defs><clipPath id="982ca302a5"><path d="M 3 3 L 63 3 L 63 62.4375 L 3 62.4375 Z M 3 3 " clip-rule="nonzero"/></clipPath></defs><g clip-path="url(#982ca302a5)"><path fill="#737373" d="M 33.5 62.414062 C 30.515625 62.421875 27.601562 61.972656 24.757812 61.0625 C 21.914062 60.152344 19.273438 58.824219 16.839844 57.085938 L 3.957031 60.992188 L 8.878906 48.5625 C 8.316406 47.648438 7.808594 46.707031 7.351562 45.738281 C 6.890625 44.769531 6.488281 43.777344 6.136719 42.761719 C 5.785156 41.75 5.492188 40.71875 5.253906 39.671875 C 5.015625 38.625 4.832031 37.566406 4.707031 36.5 C 4.585938 35.433594 4.519531 34.363281 4.511719 33.289062 C 4.503906 32.214844 4.554688 31.140625 4.664062 30.074219 C 4.773438 29.003906 4.9375 27.945312 5.164062 26.894531 C 5.386719 25.84375 5.667969 24.808594 6.003906 23.789062 C 6.339844 22.769531 6.730469 21.773438 7.175781 20.796875 C 7.621094 19.820312 8.117188 18.875 8.664062 17.953125 C 9.210938 17.03125 9.808594 16.144531 10.453125 15.289062 C 11.09375 14.4375 11.785156 13.621094 12.515625 12.84375 C 13.25 12.0625 14.023438 11.328125 14.835938 10.636719 C 15.648438 9.945312 16.496094 9.300781 17.378906 8.703125 C 18.257812 8.105469 19.171875 7.558594 20.113281 7.0625 C 21.054688 6.566406 22.023438 6.121094 23.011719 5.734375 C 24.003906 5.34375 25.011719 5.011719 26.035156 4.734375 C 27.0625 4.457031 28.101562 4.238281 29.152344 4.078125 C 30.203125 3.914062 31.257812 3.8125 32.316406 3.769531 C 33.378906 3.722656 34.441406 3.738281 35.5 3.8125 C 36.558594 3.886719 37.613281 4.019531 38.65625 4.207031 C 39.703125 4.398438 40.734375 4.648438 41.753906 4.953125 C 42.769531 5.257812 43.769531 5.617188 44.75 6.035156 C 45.726562 6.449219 46.683594 6.921875 47.609375 7.441406 C 48.539062 7.964844 49.433594 8.539062 50.300781 9.160156 C 51.167969 9.78125 51.996094 10.449219 52.789062 11.164062 C 53.585938 11.878906 54.335938 12.632812 55.046875 13.433594 C 55.757812 14.230469 56.425781 15.066406 57.046875 15.9375 C 57.667969 16.808594 58.238281 17.710938 58.761719 18.648438 C 59.285156 19.582031 59.753906 20.542969 60.171875 21.53125 C 60.589844 22.519531 60.953125 23.527344 61.261719 24.554688 C 61.570312 25.585938 61.824219 26.625 62.019531 27.683594 C 62.214844 28.738281 62.351562 29.800781 62.429688 30.875 C 62.511719 31.945312 62.53125 33.019531 62.496094 34.089844 C 62.457031 35.164062 62.363281 36.234375 62.210938 37.296875 C 62.058594 38.359375 61.847656 39.414062 61.582031 40.453125 C 61.316406 41.492188 60.992188 42.515625 60.613281 43.519531 C 60.238281 44.523438 59.804688 45.503906 59.320312 46.457031 C 58.835938 47.414062 58.300781 48.339844 57.71875 49.238281 C 57.132812 50.136719 56.5 50.996094 55.820312 51.824219 C 55.144531 52.648438 54.421875 53.4375 53.65625 54.183594 C 52.894531 54.929688 52.089844 55.628906 51.25 56.289062 C 50.410156 56.945312 49.535156 57.554688 48.628906 58.113281 C 47.722656 58.675781 46.789062 59.183594 45.828125 59.636719 C 44.867188 60.09375 43.882812 60.496094 42.878906 60.84375 C 41.871094 61.191406 40.851562 61.480469 39.816406 61.714844 C 38.777344 61.949219 37.730469 62.125 36.675781 62.242188 C 35.621094 62.359375 34.5625 62.414062 33.5 62.414062 Z M 17.140625 55.269531 L 17.464844 55.511719 C 19.792969 57.226562 22.328125 58.53125 25.070312 59.429688 C 27.808594 60.328125 30.617188 60.773438 33.5 60.765625 C 48.574219 60.765625 60.835938 48.359375 60.835938 33.109375 C 60.835938 17.859375 48.574219 5.453125 33.5 5.453125 C 18.425781 5.453125 6.160156 17.859375 6.160156 33.109375 C 6.15625 35.753906 6.523438 38.347656 7.257812 40.882812 C 7.992188 43.421875 9.0625 45.804688 10.476562 48.03125 L 10.703125 48.386719 L 6.730469 58.429688 Z M 17.140625 55.269531 " fill-opacity="1" fill-rule="nonzero"/></g><path fill="#737373" d="M 43.136719 52.742188 C 42.914062 52.742188 42.6875 52.734375 42.464844 52.714844 C 41.515625 52.636719 40.570312 52.511719 39.632812 52.339844 C 38.695312 52.167969 37.769531 51.949219 36.855469 51.683594 C 35.9375 51.421875 35.039062 51.109375 34.152344 50.757812 C 33.265625 50.402344 32.398438 50.003906 31.554688 49.566406 C 30.707031 49.125 29.882812 48.644531 29.082031 48.121094 C 28.28125 47.597656 27.507812 47.039062 26.761719 46.4375 C 26.015625 45.839844 25.300781 45.203125 24.617188 44.535156 C 23.933594 43.863281 23.285156 43.160156 22.667969 42.425781 C 22.050781 41.691406 21.472656 40.929688 20.929688 40.136719 C 20.390625 39.34375 19.886719 38.523438 19.425781 37.683594 C 18.964844 36.839844 18.542969 35.976562 18.164062 35.09375 C 17.789062 34.207031 17.453125 33.308594 17.164062 32.390625 C 16.871094 31.472656 16.628906 30.542969 16.425781 29.601562 C 16.226562 28.660156 16.074219 27.707031 15.964844 26.75 C 15.855469 25.792969 15.796875 24.835938 15.78125 23.871094 C 15.765625 22.90625 15.800781 21.945312 15.878906 20.984375 C 15.921875 20.449219 16.019531 19.925781 16.164062 19.40625 C 16.308594 18.890625 16.503906 18.394531 16.746094 17.914062 C 16.988281 17.4375 17.277344 16.988281 17.605469 16.566406 C 17.9375 16.148438 18.304688 15.761719 18.710938 15.417969 C 19.117188 15.070312 19.550781 14.765625 20.015625 14.503906 C 20.480469 14.242188 20.964844 14.03125 21.46875 13.867188 C 21.976562 13.703125 22.492188 13.589844 23.019531 13.527344 C 23.546875 13.46875 24.078125 13.460938 24.605469 13.503906 C 25.378906 13.566406 26.125 13.738281 26.851562 14.019531 C 27.058594 14.101562 27.261719 14.191406 27.453125 14.285156 L 27.84375 14.480469 L 29.550781 27.566406 L 29.21875 27.859375 C 28.394531 28.578125 27.464844 29.105469 26.433594 29.445312 C 27.304688 32.144531 28.6875 34.542969 30.585938 36.640625 L 30.589844 36.644531 C 32.128906 38.351562 33.914062 39.734375 35.945312 40.796875 C 36.417969 39.875 37.042969 39.070312 37.820312 38.386719 L 38.128906 38.117188 L 50.296875 40.742188 L 50.464844 41.117188 C 51.066406 42.421875 51.308594 43.796875 51.191406 45.234375 C 51.148438 45.742188 51.0625 46.238281 50.925781 46.730469 C 50.792969 47.21875 50.617188 47.691406 50.394531 48.148438 C 50.175781 48.605469 49.914062 49.039062 49.613281 49.445312 C 49.3125 49.855469 48.976562 50.230469 48.609375 50.574219 C 48.238281 50.917969 47.839844 51.226562 47.414062 51.496094 C 46.988281 51.765625 46.542969 51.992188 46.074219 52.179688 C 45.605469 52.363281 45.125 52.503906 44.628906 52.601562 C 44.136719 52.695312 43.636719 52.742188 43.136719 52.742188 Z M 23.929688 15.125 C 23.527344 15.125 23.128906 15.164062 22.738281 15.242188 C 22.34375 15.316406 21.957031 15.429688 21.585938 15.574219 C 21.210938 15.722656 20.855469 15.90625 20.515625 16.121094 C 20.175781 16.335938 19.855469 16.582031 19.5625 16.855469 C 19.265625 17.132812 19 17.433594 18.761719 17.757812 C 18.519531 18.082031 18.3125 18.429688 18.136719 18.792969 C 17.960938 19.15625 17.820312 19.535156 17.714844 19.925781 C 17.609375 20.320312 17.539062 20.714844 17.503906 21.121094 C 17.429688 22.027344 17.402344 22.933594 17.414062 23.84375 C 17.429688 24.753906 17.488281 25.660156 17.589844 26.5625 C 17.691406 27.464844 17.839844 28.363281 18.027344 29.25 C 18.214844 30.140625 18.449219 31.015625 18.722656 31.882812 C 18.996094 32.75 19.3125 33.597656 19.671875 34.433594 C 20.027344 35.265625 20.425781 36.082031 20.859375 36.875 C 21.296875 37.671875 21.769531 38.441406 22.28125 39.191406 C 22.792969 39.9375 23.339844 40.660156 23.917969 41.351562 C 24.5 42.046875 25.113281 42.710938 25.757812 43.34375 C 26.40625 43.976562 27.078125 44.574219 27.785156 45.140625 C 28.488281 45.707031 29.214844 46.234375 29.972656 46.726562 C 30.726562 47.222656 31.503906 47.675781 32.304688 48.089844 C 33.101562 48.507812 33.921875 48.882812 34.757812 49.21875 C 35.589844 49.550781 36.441406 49.84375 37.304688 50.09375 C 38.167969 50.34375 39.042969 50.550781 39.929688 50.714844 C 40.8125 50.878906 41.703125 50.996094 42.597656 51.070312 C 43.097656 51.113281 43.597656 51.09375 44.09375 51.019531 C 44.589844 50.945312 45.070312 50.8125 45.535156 50.621094 C 46 50.433594 46.4375 50.191406 46.847656 49.898438 C 47.257812 49.609375 47.628906 49.273438 47.960938 48.890625 C 48.292969 48.511719 48.578125 48.097656 48.816406 47.652344 C 49.054688 47.203125 49.238281 46.734375 49.367188 46.246094 C 49.496094 45.757812 49.570312 45.257812 49.585938 44.75 C 49.597656 44.242188 49.554688 43.742188 49.453125 43.242188 C 49.382812 42.878906 49.277344 42.527344 49.144531 42.183594 L 38.597656 39.90625 C 37.9375 40.566406 37.4375 41.332031 37.101562 42.210938 L 36.789062 43.035156 L 35.996094 42.664062 C 33.574219 41.527344 31.449219 39.976562 29.617188 38.011719 L 29.140625 37.992188 L 29.15625 37.503906 C 27.007812 35.050781 25.496094 32.246094 24.621094 29.085938 L 24.390625 28.234375 L 25.246094 28.058594 C 26.1875 27.859375 27.046875 27.46875 27.816406 26.882812 L 26.34375 15.59375 C 26.316406 15.582031 26.289062 15.570312 26.261719 15.5625 C 25.6875 15.335938 25.089844 15.199219 24.472656 15.148438 C 24.289062 15.132812 24.109375 15.125 23.929688 15.125 Z M 23.929688 15.125 " fill-opacity="1" fill-rule="nonzero"/></svg>