<svg xmlns="http://www.w3.org/2000/svg" xmlns:xlink="http://www.w3.org/1999/xlink" width="88" zoomAndPan="magnify" viewBox="0 0 66 66" height="88" preserveAspectRatio="xMidYMid meet" version="1.0"><defs><clipPath id="0232a5981f"><path d="M 6.976562 1.839844 L 58.726562 1.839844 L 58.726562 66 L 6.976562 66 Z M 6.976562 1.839844 " clip-rule="nonzero"/></clipPath></defs><g clip-path="url(#0232a5981f)"><path fill="#000000" d="M 55.824219 66.222656 C 54.988281 66.21875 54.308594 65.890625 53.777344 65.242188 L 33.957031 41.390625 C 33.828125 41.210938 33.667969 41.066406 33.46875 40.964844 C 33.273438 40.863281 33.066406 40.8125 32.847656 40.8125 C 32.628906 40.8125 32.417969 40.863281 32.222656 40.964844 C 32.027344 41.066406 31.867188 41.210938 31.738281 41.390625 L 11.917969 65.242188 C 11.78125 65.414062 11.621094 65.566406 11.445312 65.699219 C 11.269531 65.832031 11.082031 65.941406 10.878906 66.023438 C 10.675781 66.109375 10.464844 66.167969 10.25 66.199219 C 10.03125 66.230469 9.8125 66.234375 9.597656 66.210938 C 9.378906 66.1875 9.164062 66.136719 8.960938 66.0625 C 8.753906 65.984375 8.5625 65.882812 8.378906 65.757812 C 8.199219 65.632812 8.035156 65.484375 7.890625 65.320312 C 7.746094 65.152344 7.625 64.96875 7.523438 64.773438 C 7.152344 64.070312 6.96875 63.324219 6.96875 62.53125 L 6.96875 8.15625 C 6.96875 4.6875 9.503906 1.867188 12.613281 1.867188 L 53.078125 1.867188 C 56.191406 1.867188 58.71875 4.691406 58.71875 8.15625 L 58.71875 62.53125 C 58.722656 63.324219 58.539062 64.070312 58.167969 64.773438 C 57.957031 65.171875 57.667969 65.5 57.300781 65.753906 C 56.933594 66.007812 56.527344 66.160156 56.082031 66.210938 C 55.996094 66.21875 55.910156 66.222656 55.824219 66.222656 Z M 12.605469 4.792969 C 11.089844 4.792969 9.859375 6.304688 9.859375 8.15625 L 9.859375 62.53125 C 9.859375 62.636719 9.910156 62.710938 10.011719 62.746094 C 10.109375 62.78125 10.195312 62.757812 10.261719 62.675781 L 29.515625 39.511719 C 29.714844 39.257812 29.9375 39.03125 30.1875 38.828125 C 30.4375 38.625 30.707031 38.457031 30.992188 38.316406 C 31.28125 38.175781 31.582031 38.066406 31.890625 37.996094 C 32.203125 37.925781 32.519531 37.886719 32.839844 37.886719 C 33.15625 37.886719 33.472656 37.925781 33.785156 37.996094 C 34.097656 38.066406 34.394531 38.175781 34.683594 38.316406 C 34.972656 38.457031 35.238281 38.625 35.488281 38.828125 C 35.738281 39.03125 35.964844 39.257812 36.160156 39.511719 L 55.429688 62.679688 C 55.496094 62.761719 55.578125 62.785156 55.679688 62.75 C 55.777344 62.714844 55.828125 62.640625 55.828125 62.535156 L 55.828125 8.15625 C 55.828125 6.300781 54.597656 4.792969 53.078125 4.792969 Z M 12.605469 4.792969 " fill-opacity="1" fill-rule="nonzero"/></g></svg>