<svg xmlns="http://www.w3.org/2000/svg" xmlns:xlink="http://www.w3.org/1999/xlink" width="88" zoomAndPan="magnify" viewBox="0 0 66 66" height="88" preserveAspectRatio="xMidYMid meet" version="1.0"><defs><clipPath id="f471190146"><path d="M 4 8.359375 L 62 8.359375 L 62 66 L 4 66 Z M 4 8.359375 " clip-rule="nonzero"/></clipPath><clipPath id="5cc77a16a0"><path d="M 44 1 L 54 1 L 54 10 L 44 10 Z M 44 1 " clip-rule="nonzero"/></clipPath><clipPath id="b3a2d3df0c"><path d="M 43.910156 3.425781 L 56.976562 0.0273438 L 59.050781 8.011719 L 45.988281 11.410156 Z M 43.910156 3.425781 " clip-rule="nonzero"/></clipPath><clipPath id="2f4a7fc594"><path d="M 43.910156 3.425781 L 56.976562 0.0273438 L 59.050781 8.011719 L 45.988281 11.410156 Z M 43.910156 3.425781 " clip-rule="nonzero"/></clipPath><clipPath id="bb79b91e36"><path d="M 53 3 L 56 3 L 56 7 L 53 7 Z M 53 3 " clip-rule="nonzero"/></clipPath><clipPath id="87f959302e"><path d="M 43.910156 3.425781 L 56.976562 0.0273438 L 59.050781 8.011719 L 45.988281 11.410156 Z M 43.910156 3.425781 " clip-rule="nonzero"/></clipPath><clipPath id="7a98ba62e8"><path d="M 43.910156 3.425781 L 56.976562 0.0273438 L 59.050781 8.011719 L 45.988281 11.410156 Z M 43.910156 3.425781 " clip-rule="nonzero"/></clipPath><clipPath id="71a8889b06"><path d="M 53 1 L 57 1 L 57 8 L 53 8 Z M 53 1 " clip-rule="nonzero"/></clipPath><clipPath id="f8a2e6be3e"><path d="M 43.910156 3.425781 L 56.976562 0.0273438 L 59.050781 8.011719 L 45.988281 11.410156 Z M 43.910156 3.425781 " clip-rule="nonzero"/></clipPath><clipPath id="c188ca8d19"><path d="M 43.910156 3.425781 L 56.976562 0.0273438 L 59.050781 8.011719 L 45.988281 11.410156 Z M 43.910156 3.425781 " clip-rule="nonzero"/></clipPath><clipPath id="f30a9790dd"><path d="M 54 0 L 59 0 L 59 9 L 54 9 Z M 54 0 " clip-rule="nonzero"/></clipPath><clipPath id="1c0f6810cc"><path d="M 43.910156 3.425781 L 56.976562 0.0273438 L 59.050781 8.011719 L 45.988281 11.410156 Z M 43.910156 3.425781 " clip-rule="nonzero"/></clipPath><clipPath id="24d60ee0a8"><path d="M 43.910156 3.425781 L 56.976562 0.0273438 L 59.050781 8.011719 L 45.988281 11.410156 Z M 43.910156 3.425781 " clip-rule="nonzero"/></clipPath><clipPath id="c42a36f622"><path d="M 54.585938 0.648438 L 56.984375 0.0234375 L 59.0625 8.007812 L 56.660156 8.632812 Z M 54.585938 0.648438 " clip-rule="nonzero"/></clipPath><clipPath id="6cb8905922"><path d="M 54.585938 0.648438 L 56.96875 0.0273438 L 59.046875 8.011719 L 56.660156 8.632812 Z M 54.585938 0.648438 " clip-rule="nonzero"/></clipPath></defs><g clip-path="url(#f471190146)"><path fill="#68e9e9" d="M 45.792969 33.859375 C 44.53125 33.65625 43.8125 32.683594 44.261719 30.328125 C 44.820312 27.40625 45.554688 25.828125 44.625 22.078125 C 42.25 12.519531 27.628906 12.300781 25.183594 22.152344 C 23.339844 29.574219 30.902344 30.925781 26.125 37.332031 C 23.832031 40.410156 16.199219 37.566406 12.777344 38.429688 C 7.839844 39.671875 4 42.585938 4 48.136719 C 4 49.550781 5.054688 52.515625 6.683594 52.515625 C 6.921875 52.515625 6.246094 50.023438 6.175781 49.816406 C 5.542969 47.90625 7.472656 46.101562 8.644531 44.925781 C 9.515625 44.046875 12.320312 42.921875 13.578125 43.171875 C 15.289062 43.515625 17.207031 44.648438 19.089844 45.070312 C 23.417969 46.039062 29.796875 43.0625 30.804688 38.5 C 32.949219 47.339844 13.75 52.230469 21.347656 63.589844 C 22.039062 64.625 24.1875 66.074219 24.523438 65.453125 C 24.960938 64.652344 19.90625 60.851562 23.375 57.195312 C 32.09375 49.613281 36.933594 43.222656 35.519531 41.390625 C 36.839844 40.242188 39.226562 44.941406 38.199219 47.183594 C 36.515625 50.84375 34.980469 58.203125 38.597656 59.351562 C 43.984375 61.058594 37.808594 58.640625 39.429688 54.652344 C 40.441406 52.160156 42.355469 50.496094 43.054688 47.332031 C 43.644531 44.683594 42.6875 41.53125 42.699219 41.542969 C 52.941406 46.375 45.886719 53.289062 50.402344 59.875 C 51.210938 60.957031 51.585938 61.4375 52.40625 61.894531 C 56.726562 64.296875 52.203125 58.480469 52.652344 56.359375 C 54.355469 48.296875 54.359375 47.640625 52.742188 43.777344 C 51.828125 41.597656 49.945312 39.242188 47.664062 38.859375 C 50.796875 38.039062 56.382812 40.222656 59.628906 34.265625 C 63.253906 27.027344 60.144531 21.050781 56.140625 18.265625 C 55.136719 17.570312 54.257812 16.707031 53.265625 15.996094 C 51.742188 14.898438 49.453125 14.570312 48.554688 12.917969 C 47.898438 11.703125 49.996094 8.398438 48.535156 8.765625 C 46.894531 9.179688 44.898438 12.246094 46.085938 14.035156 C 47.867188 16.722656 54.160156 22.40625 54.652344 23.890625 C 57.523438 32.558594 50.167969 34.566406 45.792969 33.859375 Z M 45.792969 33.859375 " fill-opacity="1" fill-rule="nonzero"/></g><path fill="#f9f9f9" d="M 29.507812 39.839844 C 28.320312 41.8125 30.484375 41.828125 30.792969 39.886719 C 31 38.605469 29.722656 39.425781 29.507812 39.839844 Z M 29.507812 39.839844 " fill-opacity="1" fill-rule="nonzero"/><path fill="#f9f9f9" d="M 27.75 41.800781 C 26.058594 43.363281 28.128906 43.984375 28.96875 42.210938 C 29.523438 41.039062 28.070312 41.464844 27.75 41.800781 Z M 27.75 41.800781 " fill-opacity="1" fill-rule="nonzero"/><path fill="#f9f9f9" d="M 25.191406 43.589844 C 23.09375 44.527344 24.863281 45.78125 26.21875 44.367188 C 27.113281 43.429688 25.601562 43.371094 25.191406 43.589844 Z M 25.191406 43.589844 " fill-opacity="1" fill-rule="nonzero"/><path fill="#f9f9f9" d="M 22.074219 44.503906 C 19.804688 44.835938 21.167969 46.523438 22.855469 45.535156 C 23.96875 44.878906 22.527344 44.40625 22.074219 44.503906 Z M 22.074219 44.503906 " fill-opacity="1" fill-rule="nonzero"/><path fill="#f9f9f9" d="M 19.210938 44.59375 C 17.5 44.355469 18.132812 45.863281 19.558594 45.503906 C 20.503906 45.265625 19.558594 44.621094 19.210938 44.59375 Z M 19.210938 44.59375 " fill-opacity="1" fill-rule="nonzero"/><path fill="#f9f9f9" d="M 16.679688 43.785156 C 15.007812 43.351562 15.46875 44.925781 16.925781 44.726562 C 17.890625 44.597656 17.023438 43.851562 16.679688 43.785156 Z M 16.679688 43.785156 " fill-opacity="1" fill-rule="nonzero"/><path fill="#f9f9f9" d="M 14.375 43.011719 C 12.902344 42.632812 13.308594 44.015625 14.589844 43.839844 C 15.4375 43.726562 14.675781 43.070312 14.375 43.011719 Z M 14.375 43.011719 " fill-opacity="1" fill-rule="nonzero"/><path fill="#f9f9f9" d="M 11.953125 42.996094 C 10.457031 43.277344 11.402344 44.355469 12.492188 43.660156 C 13.214844 43.195312 12.25 42.921875 11.953125 42.996094 Z M 11.953125 42.996094 " fill-opacity="1" fill-rule="nonzero"/><path fill="#f9f9f9" d="M 9.925781 43.734375 C 8.859375 44.226562 9.769531 44.859375 10.457031 44.128906 C 10.914062 43.644531 10.136719 43.621094 9.925781 43.734375 Z M 9.925781 43.734375 " fill-opacity="1" fill-rule="nonzero"/><path fill="#f9f9f9" d="M 8.363281 44.808594 C 7.523438 45.632812 8.59375 45.921875 8.996094 45 C 9.261719 44.390625 8.523438 44.632812 8.363281 44.808594 Z M 8.363281 44.808594 " fill-opacity="1" fill-rule="nonzero"/><path fill="#f9f9f9" d="M 7.070312 46.296875 C 6.378906 47.25 7.480469 47.355469 7.726562 46.378906 C 7.886719 45.734375 7.199219 46.09375 7.070312 46.296875 Z M 7.070312 46.296875 " fill-opacity="1" fill-rule="nonzero"/><path fill="#f9f9f9" d="M 6 48.078125 C 5.683594 49.058594 6.625 48.84375 6.5625 47.96875 C 6.523438 47.390625 6.050781 47.878906 6 48.078125 Z M 6 48.078125 " fill-opacity="1" fill-rule="nonzero"/><path fill="#f9f9f9" d="M 6.050781 50.265625 C 6.25 51.273438 6.964844 50.625 6.488281 49.890625 C 6.171875 49.40625 5.996094 50.0625 6.050781 50.265625 Z M 6.050781 50.265625 " fill-opacity="1" fill-rule="nonzero"/><path fill="#f9f9f9" d="M 6.34375 51.882812 C 6.542969 52.894531 7.261719 52.242188 6.785156 51.511719 C 6.46875 51.027344 6.292969 51.683594 6.34375 51.882812 Z M 6.34375 51.882812 " fill-opacity="1" fill-rule="nonzero"/><path fill="#f9f9f9" d="M 34.835938 43.324219 C 34.171875 45.535156 36.269531 45.007812 36.09375 43.050781 C 35.976562 41.757812 34.941406 42.871094 34.835938 43.324219 Z M 34.835938 43.324219 " fill-opacity="1" fill-rule="nonzero"/><path fill="#f9f9f9" d="M 33.25 45.820312 C 32.042969 47.785156 34.207031 47.816406 34.535156 45.882812 C 34.753906 44.601562 33.46875 45.410156 33.25 45.820312 Z M 33.25 45.820312 " fill-opacity="1" fill-rule="nonzero"/><path fill="#f9f9f9" d="M 31.445312 48.269531 C 29.894531 49.972656 32.011719 50.410156 32.695312 48.570312 C 33.148438 47.351562 31.734375 47.90625 31.445312 48.269531 Z M 31.445312 48.269531 " fill-opacity="1" fill-rule="nonzero"/><path fill="#f9f9f9" d="M 29.285156 50.722656 C 27.710938 52.398438 29.824219 52.871094 30.53125 51.042969 C 31.003906 49.832031 29.582031 50.363281 29.285156 50.722656 Z M 29.285156 50.722656 " fill-opacity="1" fill-rule="nonzero"/><path fill="#f9f9f9" d="M 27.234375 53.128906 C 26.054688 54.386719 27.636719 54.742188 28.171875 53.367188 C 28.523438 52.460938 27.457031 52.859375 27.234375 53.128906 Z M 27.234375 53.128906 " fill-opacity="1" fill-rule="nonzero"/><path fill="#f9f9f9" d="M 25.441406 54.742188 C 24.257812 56 25.84375 56.355469 26.375 54.980469 C 26.730469 54.070312 25.664062 54.472656 25.441406 54.742188 Z M 25.441406 54.742188 " fill-opacity="1" fill-rule="nonzero"/><path fill="#f9f9f9" d="M 23.621094 56.519531 C 22.597656 57.609375 23.96875 57.917969 24.429688 56.726562 C 24.738281 55.941406 23.8125 56.285156 23.621094 56.519531 Z M 23.621094 56.519531 " fill-opacity="1" fill-rule="nonzero"/><path fill="#f9f9f9" d="M 22.15625 58.632812 C 21.742188 60.074219 23.101562 59.714844 22.972656 58.445312 C 22.886719 57.605469 22.222656 58.335938 22.15625 58.632812 Z M 22.15625 58.632812 " fill-opacity="1" fill-rule="nonzero"/><path fill="#f9f9f9" d="M 22.113281 61.15625 C 22.332031 62.253906 23.109375 61.542969 22.585938 60.75 C 22.242188 60.226562 22.054688 60.941406 22.113281 61.15625 Z M 22.113281 61.15625 " fill-opacity="1" fill-rule="nonzero"/><path fill="#f9f9f9" d="M 22.75 63.0625 C 23.226562 64.074219 23.808594 63.199219 23.113281 62.554688 C 22.65625 62.128906 22.644531 62.867188 22.75 63.0625 Z M 22.75 63.0625 " fill-opacity="1" fill-rule="nonzero"/><path fill="#f9f9f9" d="M 23.769531 64.636719 C 24.246094 65.648438 24.828125 64.773438 24.132812 64.128906 C 23.675781 63.703125 23.664062 64.441406 23.769531 64.636719 Z M 23.769531 64.636719 " fill-opacity="1" fill-rule="nonzero"/><path fill="#f9f9f9" d="M 42.40625 43.378906 C 42.695312 45.667969 44.398438 44.324219 43.445312 42.613281 C 42.8125 41.480469 42.320312 42.921875 42.40625 43.378906 Z M 42.40625 43.378906 " fill-opacity="1" fill-rule="nonzero"/><path fill="#f9f9f9" d="M 42.304688 46.761719 C 42.230469 49.070312 44.121094 48.015625 43.449219 46.171875 C 43.003906 44.953125 42.289062 46.296875 42.304688 46.761719 Z M 42.304688 46.761719 " fill-opacity="1" fill-rule="nonzero"/><path fill="#f9f9f9" d="M 41.519531 49.714844 C 40.652344 51.851562 42.789062 51.527344 42.796875 49.566406 C 42.804688 48.265625 41.667969 49.273438 41.519531 49.714844 Z M 41.519531 49.714844 " fill-opacity="1" fill-rule="nonzero"/><path fill="#f9f9f9" d="M 40.03125 52.382812 C 39.257812 53.960938 40.902344 53.828125 41.011719 52.332031 C 41.085938 51.34375 40.167969 52.054688 40.03125 52.382812 Z M 40.03125 52.382812 " fill-opacity="1" fill-rule="nonzero"/><path fill="#f9f9f9" d="M 39.109375 54.65625 C 38.886719 55.949219 40.03125 55.503906 39.800781 54.414062 C 39.644531 53.691406 39.136719 54.390625 39.109375 54.65625 Z M 39.109375 54.65625 " fill-opacity="1" fill-rule="nonzero"/><path fill="#f9f9f9" d="M 38.9375 56.785156 C 39.148438 58.078125 40.089844 57.28125 39.511719 56.328125 C 39.128906 55.695312 38.878906 56.527344 38.9375 56.785156 Z M 38.9375 56.785156 " fill-opacity="1" fill-rule="nonzero"/><path fill="#f9f9f9" d="M 39.613281 58.371094 C 40.070312 59.121094 40.453125 58.386719 39.855469 57.941406 C 39.457031 57.644531 39.511719 58.226562 39.613281 58.371094 Z M 39.613281 58.371094 " fill-opacity="1" fill-rule="nonzero"/><path fill="#f9f9f9" d="M 40.277344 59.441406 C 40.734375 60.195312 41.117188 59.457031 40.519531 59.011719 C 40.125 58.71875 40.175781 59.296875 40.277344 59.441406 Z M 40.277344 59.441406 " fill-opacity="1" fill-rule="nonzero"/><path fill="#f9f9f9" d="M 49.277344 40.261719 C 51.109375 41.648438 51.339844 39.488281 49.453125 38.980469 C 48.207031 38.644531 48.890625 40.007812 49.277344 40.261719 Z M 49.277344 40.261719 " fill-opacity="1" fill-rule="nonzero"/><path fill="#f9f9f9" d="M 51.085938 42.464844 C 52.25 44.453125 53.285156 42.542969 51.738281 41.347656 C 50.710938 40.558594 50.824219 42.078125 51.085938 42.464844 Z M 51.085938 42.464844 " fill-opacity="1" fill-rule="nonzero"/><path fill="#f9f9f9" d="M 52.519531 45.488281 C 53.148438 47.710938 54.628906 46.125 53.429688 44.574219 C 52.636719 43.550781 52.363281 45.050781 52.519531 45.488281 Z M 52.519531 45.488281 " fill-opacity="1" fill-rule="nonzero"/><path fill="#f9f9f9" d="M 53.320312 48.339844 C 53.34375 49.96875 54.640625 49.160156 54.105469 47.882812 C 53.75 47.039062 53.292969 48.011719 53.320312 48.339844 Z M 53.320312 48.339844 " fill-opacity="1" fill-rule="nonzero"/><path fill="#f9f9f9" d="M 53.132812 51.304688 C 52.964844 53.109375 54.496094 52.375 54.058594 50.898438 C 53.769531 49.921875 53.144531 50.941406 53.132812 51.304688 Z M 53.132812 51.304688 " fill-opacity="1" fill-rule="nonzero"/><path fill="#f9f9f9" d="M 52.730469 53.933594 C 52.605469 55.273438 53.742188 54.730469 53.417969 53.632812 C 53.203125 52.90625 52.738281 53.660156 52.730469 53.933594 Z M 52.730469 53.933594 " fill-opacity="1" fill-rule="nonzero"/><path fill="#f9f9f9" d="M 52.292969 56.238281 C 52.277344 57.582031 53.367188 56.945312 52.953125 55.878906 C 52.679688 55.171875 52.277344 55.964844 52.292969 56.238281 Z M 52.292969 56.238281 " fill-opacity="1" fill-rule="nonzero"/><path fill="#f9f9f9" d="M 52.597656 58.210938 C 52.828125 59.183594 53.5 58.527344 53.007812 57.832031 C 52.683594 57.371094 52.539062 58.015625 52.597656 58.210938 Z M 52.597656 58.210938 " fill-opacity="1" fill-rule="nonzero"/><path fill="#f9f9f9" d="M 53.191406 59.789062 C 53.496094 60.710938 54.09375 60.015625 53.558594 59.386719 C 53.207031 58.972656 53.121094 59.605469 53.191406 59.789062 Z M 53.191406 59.789062 " fill-opacity="1" fill-rule="nonzero"/><path fill="#f9f9f9" d="M 53.867188 61.359375 C 54.117188 62.121094 54.609375 61.546875 54.167969 61.03125 C 53.878906 60.6875 53.808594 61.210938 53.867188 61.359375 Z M 53.867188 61.359375 " fill-opacity="1" fill-rule="nonzero"/><path fill="#f9f9f9" d="M 52.546875 39.234375 C 54.832031 39.027344 53.5625 37.265625 51.824219 38.160156 C 50.675781 38.753906 52.089844 39.304688 52.546875 39.234375 Z M 52.546875 39.234375 " fill-opacity="1" fill-rule="nonzero"/><path fill="#f9f9f9" d="M 55.738281 38.472656 C 57.898438 37.703125 56.234375 36.316406 54.773438 37.617188 C 53.808594 38.480469 55.3125 38.65625 55.738281 38.472656 Z M 55.738281 38.472656 " fill-opacity="1" fill-rule="nonzero"/><path fill="#f9f9f9" d="M 58.785156 36.496094 C 60.5 34.96875 58.441406 34.304688 57.570312 36.0625 C 56.996094 37.226562 58.457031 36.824219 58.785156 36.496094 Z M 58.785156 36.496094 " fill-opacity="1" fill-rule="nonzero"/><path fill="#f9f9f9" d="M 60.472656 33.714844 C 61.171875 31.890625 59.367188 32.203125 59.390625 33.867188 C 59.40625 34.96875 60.351562 34.09375 60.472656 33.714844 Z M 60.472656 33.714844 " fill-opacity="1" fill-rule="nonzero"/><path fill="#f9f9f9" d="M 61.3125 31.039062 C 61.703125 29.121094 59.972656 29.730469 60.269531 31.367188 C 60.46875 32.453125 61.257812 31.429688 61.3125 31.039062 Z M 61.3125 31.039062 " fill-opacity="1" fill-rule="nonzero"/><path fill="#f9f9f9" d="M 61.757812 28.074219 C 61.824219 26.121094 60.21875 27.011719 60.789062 28.574219 C 61.164062 29.609375 61.769531 28.46875 61.757812 28.074219 Z M 61.757812 28.074219 " fill-opacity="1" fill-rule="nonzero"/><path fill="#f9f9f9" d="M 61.457031 24.824219 C 61.09375 22.902344 59.722656 24.128906 60.621094 25.53125 C 61.214844 26.457031 61.554688 25.207031 61.457031 24.824219 Z M 61.457031 24.824219 " fill-opacity="1" fill-rule="nonzero"/><path fill="#f9f9f9" d="M 60.25 22.027344 C 59.414062 20.261719 58.398438 21.792969 59.617188 22.921875 C 60.425781 23.664062 60.441406 22.371094 60.25 22.027344 Z M 60.25 22.027344 " fill-opacity="1" fill-rule="nonzero"/><path fill="#f9f9f9" d="M 58.328125 19.601562 C 57.269531 18.308594 56.738281 19.792969 57.984375 20.472656 C 58.808594 20.925781 58.558594 19.847656 58.328125 19.601562 Z M 58.328125 19.601562 " fill-opacity="1" fill-rule="nonzero"/><path fill="#f9f9f9" d="M 56.320312 17.832031 C 55.316406 16.90625 55.054688 18.171875 56.144531 18.582031 C 56.863281 18.851562 56.535156 18.003906 56.320312 17.832031 Z M 56.320312 17.832031 " fill-opacity="1" fill-rule="nonzero"/><path fill="#f9f9f9" d="M 54.667969 16.625 C 53.660156 15.695312 53.402344 16.964844 54.488281 17.371094 C 55.207031 17.640625 54.882812 16.796875 54.667969 16.625 Z M 54.667969 16.625 " fill-opacity="1" fill-rule="nonzero"/><path fill="#f9f9f9" d="M 52.875 15.425781 C 51.6875 14.746094 51.714844 16.039062 52.863281 16.195312 C 53.625 16.300781 53.121094 15.546875 52.875 15.425781 Z M 52.875 15.425781 " fill-opacity="1" fill-rule="nonzero"/><path fill="#f9f9f9" d="M 51.203125 14.488281 C 50.121094 13.960938 50.21875 15.097656 51.242188 15.167969 C 51.917969 15.214844 51.429688 14.582031 51.203125 14.488281 Z M 51.203125 14.488281 " fill-opacity="1" fill-rule="nonzero"/><path fill="#f9f9f9" d="M 49.820312 13.710938 C 48.929688 12.898438 48.707031 14.019531 49.667969 14.375 C 50.304688 14.609375 50.011719 13.863281 49.820312 13.710938 Z M 49.820312 13.710938 " fill-opacity="1" fill-rule="nonzero"/><path fill="#f9f9f9" d="M 48.789062 12.496094 C 48.550781 11.523438 47.886719 12.1875 48.382812 12.875 C 48.710938 13.332031 48.847656 12.6875 48.789062 12.496094 Z M 48.789062 12.496094 " fill-opacity="1" fill-rule="nonzero"/><path fill="#f9f9f9" d="M 48.800781 11.164062 C 49.054688 10.441406 48.351562 10.585938 48.378906 11.238281 C 48.402344 11.667969 48.761719 11.3125 48.800781 11.164062 Z M 48.800781 11.164062 " fill-opacity="1" fill-rule="nonzero"/><path fill="#f9f9f9" d="M 49.171875 9.804688 C 49.285156 9.042969 48.621094 9.320312 48.773438 9.957031 C 48.875 10.375 49.160156 9.957031 49.171875 9.804688 Z M 49.171875 9.804688 " fill-opacity="1" fill-rule="nonzero"/><path fill="#4d4d4d" d="M 32.023438 22.910156 C 32.023438 23.167969 31.933594 23.386719 31.753906 23.570312 C 31.574219 23.75 31.355469 23.839844 31.097656 23.839844 C 30.84375 23.839844 30.625 23.75 30.441406 23.570312 C 30.261719 23.386719 30.171875 23.167969 30.171875 22.910156 C 30.171875 22.652344 30.261719 22.433594 30.441406 22.25 C 30.625 22.070312 30.84375 21.976562 31.097656 21.976562 C 31.355469 21.976562 31.574219 22.070312 31.753906 22.25 C 31.933594 22.433594 32.023438 22.652344 32.023438 22.910156 Z M 32.023438 22.910156 " fill-opacity="1" fill-rule="nonzero"/><path fill="#f9f9f9" d="M 31.710938 22.652344 C 31.710938 22.71875 31.675781 22.773438 31.605469 22.820312 C 31.535156 22.867188 31.449219 22.890625 31.347656 22.890625 C 31.246094 22.890625 31.160156 22.867188 31.089844 22.820312 C 31.019531 22.773438 30.984375 22.71875 30.984375 22.652344 C 30.984375 22.585938 31.019531 22.53125 31.089844 22.484375 C 31.160156 22.4375 31.246094 22.414062 31.347656 22.414062 C 31.449219 22.414062 31.535156 22.4375 31.605469 22.484375 C 31.675781 22.53125 31.710938 22.585938 31.710938 22.652344 Z M 31.710938 22.652344 " fill-opacity="1" fill-rule="nonzero"/><path fill="#4d4d4d" d="M 38.261719 19.210938 C 37.496094 19.125 37.820312 20.046875 38.441406 19.765625 C 38.855469 19.578125 38.417969 19.210938 38.261719 19.210938 Z M 38.261719 19.210938 " fill-opacity="1" fill-rule="nonzero"/><path fill="#4d4d4d" d="M 34.660156 16.496094 C 33.890625 16.414062 34.214844 17.332031 34.839844 17.050781 C 35.25 16.867188 34.8125 16.5 34.660156 16.496094 Z M 34.660156 16.496094 " fill-opacity="1" fill-rule="nonzero"/><path fill="#4d4d4d" d="M 35.769531 15.261719 C 35.003906 15.175781 35.328125 16.097656 35.949219 15.816406 C 36.363281 15.628906 35.925781 15.261719 35.769531 15.261719 Z M 35.769531 15.261719 " fill-opacity="1" fill-rule="nonzero"/><path fill="#4d4d4d" d="M 42.171875 20.667969 C 41.40625 20.585938 41.730469 21.507812 42.351562 21.226562 C 42.765625 21.039062 42.328125 20.671875 42.171875 20.667969 Z M 42.171875 20.667969 " fill-opacity="1" fill-rule="nonzero"/><path fill="#4d4d4d" d="M 37.105469 16.449219 C 36.339844 16.367188 36.664062 17.289062 37.285156 17.007812 C 37.699219 16.820312 37.261719 16.453125 37.105469 16.449219 Z M 37.105469 16.449219 " fill-opacity="1" fill-rule="nonzero"/><path fill="#4d4d4d" d="M 39.347656 17.273438 C 38.582031 17.191406 38.90625 18.113281 39.527344 17.832031 C 39.941406 17.644531 39.503906 17.277344 39.347656 17.273438 Z M 39.347656 17.273438 " fill-opacity="1" fill-rule="nonzero"/><path fill="#4d4d4d" d="M 41.179688 17.957031 C 40.410156 17.875 40.734375 18.796875 41.359375 18.515625 C 41.769531 18.328125 41.332031 17.960938 41.179688 17.957031 Z M 41.179688 17.957031 " fill-opacity="1" fill-rule="nonzero"/><path fill="#4d4d4d" d="M 36.992188 17.746094 C 36.226562 17.664062 36.550781 18.585938 37.175781 18.300781 C 37.585938 18.117188 37.148438 17.75 36.992188 17.746094 Z M 36.992188 17.746094 " fill-opacity="1" fill-rule="nonzero"/><path fill="#4d4d4d" d="M 39.351562 16.222656 C 38.769531 16.160156 39.015625 16.859375 39.488281 16.644531 C 39.800781 16.503906 39.46875 16.226562 39.351562 16.222656 Z M 39.351562 16.222656 " fill-opacity="1" fill-rule="nonzero"/><path fill="#4d4d4d" d="M 40.425781 19.632812 C 39.660156 19.546875 39.984375 20.46875 40.605469 20.1875 C 41.019531 20 40.582031 19.632812 40.425781 19.632812 Z M 40.425781 19.632812 " fill-opacity="1" fill-rule="nonzero"/><path fill="#4d4d4d" d="M 42.320312 19.121094 C 41.886719 19.355469 42.382812 19.722656 42.613281 19.347656 C 42.761719 19.101562 42.402344 19.066406 42.320312 19.121094 Z M 42.320312 19.121094 " fill-opacity="1" fill-rule="nonzero"/><path fill="#4d4d4d" d="M 42.910156 22.023438 C 42.144531 21.941406 42.464844 22.859375 43.089844 22.578125 C 43.503906 22.394531 43.066406 22.027344 42.910156 22.023438 Z M 42.910156 22.023438 " fill-opacity="1" fill-rule="nonzero"/><path fill="#ffffff" d="M 30.828125 24.835938 C 30.828125 24.980469 30.722656 25.101562 30.507812 25.203125 C 30.296875 25.308594 30.042969 25.359375 29.742188 25.359375 C 29.445312 25.359375 29.1875 25.308594 28.976562 25.203125 C 28.765625 25.101562 28.660156 24.980469 28.660156 24.835938 C 28.660156 24.691406 28.765625 24.566406 28.976562 24.464844 C 29.1875 24.363281 29.445312 24.308594 29.742188 24.308594 C 30.042969 24.308594 30.296875 24.363281 30.507812 24.464844 C 30.722656 24.566406 30.828125 24.691406 30.828125 24.835938 Z M 30.828125 24.835938 " fill-opacity="1" fill-rule="nonzero"/><path fill="#4d4d4d" d="M 35.894531 26.667969 C 35.78125 26.570312 35.679688 26.578125 35.582031 26.691406 C 34.894531 27.484375 34.300781 27.480469 33.820312 27.320312 C 33.34375 27.160156 33.015625 26.800781 33.015625 26.800781 C 32.917969 26.695312 32.816406 26.6875 32.707031 26.789062 C 32.597656 26.886719 32.59375 26.992188 32.691406 27.101562 C 32.691406 27.101562 33.078125 27.535156 33.683594 27.738281 C 34.285156 27.941406 35.136719 27.882812 35.914062 26.980469 C 36.011719 26.871094 36.003906 26.765625 35.894531 26.667969 Z M 35.894531 26.667969 " fill-opacity="1" fill-rule="nonzero"/><path fill="#4d4d4d" d="M 35.625 26.136719 C 35.566406 26.15625 35.523438 26.191406 35.5 26.25 C 35.5 26.25 35.410156 26.441406 35.464844 26.675781 C 35.519531 26.90625 35.726562 27.164062 36.152344 27.316406 C 36.289062 27.363281 36.382812 27.320312 36.433594 27.179688 C 36.480469 27.042969 36.4375 26.949219 36.300781 26.898438 C 35.964844 26.78125 35.910156 26.652344 35.890625 26.570312 C 35.871094 26.492188 35.898438 26.4375 35.898438 26.4375 C 35.960938 26.304688 35.925781 26.207031 35.792969 26.144531 C 35.738281 26.117188 35.679688 26.113281 35.625 26.136719 Z M 35.625 26.136719 " fill-opacity="1" fill-rule="nonzero"/><path fill="#4d4d4d" d="M 36.6875 22.910156 C 36.6875 23.167969 36.777344 23.386719 36.957031 23.570312 C 37.136719 23.75 37.355469 23.839844 37.613281 23.839844 C 37.867188 23.839844 38.085938 23.75 38.265625 23.570312 C 38.449219 23.386719 38.539062 23.167969 38.539062 22.910156 C 38.539062 22.652344 38.449219 22.433594 38.265625 22.25 C 38.085938 22.070312 37.867188 21.976562 37.613281 21.976562 C 37.355469 21.976562 37.136719 22.070312 36.957031 22.25 C 36.777344 22.433594 36.6875 22.652344 36.6875 22.910156 Z M 36.6875 22.910156 " fill-opacity="1" fill-rule="nonzero"/><path fill="#f9f9f9" d="M 37.589844 22.652344 C 37.589844 22.71875 37.625 22.773438 37.695312 22.820312 C 37.769531 22.867188 37.855469 22.890625 37.953125 22.890625 C 38.054688 22.890625 38.140625 22.867188 38.210938 22.820312 C 38.28125 22.773438 38.316406 22.71875 38.316406 22.652344 C 38.316406 22.585938 38.28125 22.53125 38.210938 22.484375 C 38.140625 22.4375 38.054688 22.414062 37.953125 22.414062 C 37.855469 22.414062 37.769531 22.4375 37.695312 22.484375 C 37.625 22.53125 37.589844 22.585938 37.589844 22.652344 Z M 37.589844 22.652344 " fill-opacity="1" fill-rule="nonzero"/><path fill="#ffffff" d="M 37.882812 24.835938 C 37.882812 24.980469 37.988281 25.101562 38.203125 25.203125 C 38.414062 25.308594 38.667969 25.359375 38.96875 25.359375 C 39.265625 25.359375 39.523438 25.308594 39.734375 25.203125 C 39.945312 25.101562 40.050781 24.980469 40.050781 24.835938 C 40.050781 24.691406 39.945312 24.566406 39.734375 24.464844 C 39.523438 24.363281 39.265625 24.308594 38.96875 24.308594 C 38.667969 24.308594 38.414062 24.363281 38.203125 24.464844 C 37.988281 24.566406 37.882812 24.691406 37.882812 24.835938 Z M 37.882812 24.835938 " fill-opacity="1" fill-rule="nonzero"/><g clip-path="url(#5cc77a16a0)"><g clip-path="url(#b3a2d3df0c)"><g clip-path="url(#2f4a7fc594)"><path fill="#68e9e9" d="M 50.78125 5.265625 L 46.277344 6.4375 L 46.183594 6.078125 L 50.367188 3.667969 Z M 49.394531 8.507812 C 49.386719 8.640625 49.289062 8.753906 49.15625 8.789062 C 49.125 8.796875 49.089844 8.800781 49.058594 8.796875 L 47.769531 8.730469 C 47.59375 8.722656 47.464844 8.578125 47.476562 8.40625 L 47.484375 8.25 L 49.40625 8.339844 Z M 51.378906 1.9375 C 51.074219 2.015625 50.878906 2.300781 50.914062 2.59375 L 45.445312 5.976562 C 45.355469 5.808594 45.160156 5.722656 44.964844 5.773438 C 44.738281 5.832031 44.601562 6.054688 44.65625 6.277344 L 45.1875 8.308594 C 45.242188 8.527344 45.472656 8.65625 45.699219 8.597656 C 45.894531 8.546875 46.023438 8.371094 46.019531 8.183594 L 46.851562 8.222656 L 46.84375 8.375 C 46.804688 8.882812 47.203125 9.320312 47.726562 9.347656 L 49.011719 9.414062 C 49.113281 9.417969 49.214844 9.40625 49.3125 9.382812 C 49.710938 9.277344 50 8.941406 50.027344 8.539062 L 50.039062 8.367188 L 52.441406 8.476562 C 52.558594 8.75 52.863281 8.902344 53.167969 8.824219 C 53.5 8.738281 53.703125 8.40625 53.621094 8.082031 L 52.132812 2.363281 C 52.046875 2.039062 51.710938 1.851562 51.378906 1.9375 " fill-opacity="1" fill-rule="nonzero"/></g></g></g><g clip-path="url(#bb79b91e36)"><g clip-path="url(#87f959302e)"><g clip-path="url(#7a98ba62e8)"><path fill="#68e9e9" d="M 53.886719 3.445312 C 53.820312 3.410156 53.746094 3.402344 53.675781 3.425781 C 53.601562 3.445312 53.542969 3.492188 53.503906 3.554688 C 53.46875 3.617188 53.457031 3.691406 53.476562 3.761719 C 53.496094 3.832031 53.542969 3.886719 53.609375 3.921875 C 54.464844 4.386719 54.761719 5.445312 54.269531 6.285156 C 54.234375 6.347656 54.222656 6.421875 54.242188 6.488281 C 54.261719 6.558594 54.308594 6.617188 54.375 6.652344 C 54.441406 6.6875 54.515625 6.695312 54.585938 6.675781 C 54.660156 6.65625 54.71875 6.609375 54.757812 6.546875 C 55.398438 5.445312 55.007812 4.054688 53.886719 3.445312 " fill-opacity="1" fill-rule="nonzero"/></g></g></g><g clip-path="url(#71a8889b06)"><g clip-path="url(#f8a2e6be3e)"><g clip-path="url(#c188ca8d19)"><path fill="#68e9e9" d="M 56.304688 4.433594 C 56.007812 3.375 55.304688 2.5 54.328125 1.972656 C 54.261719 1.9375 54.1875 1.929688 54.113281 1.949219 C 54.042969 1.96875 53.984375 2.015625 53.945312 2.078125 C 53.867188 2.210938 53.914062 2.375 54.050781 2.449219 C 54.898438 2.90625 55.507812 3.667969 55.765625 4.582031 C 56.023438 5.5 55.898438 6.464844 55.410156 7.296875 C 55.335938 7.429688 55.382812 7.59375 55.515625 7.667969 C 55.578125 7.703125 55.65625 7.710938 55.726562 7.691406 C 55.800781 7.667969 55.859375 7.625 55.898438 7.558594 C 56.457031 6.601562 56.601562 5.488281 56.304688 4.433594 " fill-opacity="1" fill-rule="nonzero"/></g></g></g><g clip-path="url(#f30a9790dd)"><g clip-path="url(#1c0f6810cc)"><g clip-path="url(#24d60ee0a8)"><g clip-path="url(#c42a36f622)"><g clip-path="url(#6cb8905922)"><path fill="#68e9e9" d="M 58 3.984375 C 57.585938 2.523438 56.613281 1.316406 55.261719 0.582031 C 55.171875 0.535156 55.066406 0.523438 54.964844 0.550781 C 54.867188 0.578125 54.785156 0.640625 54.730469 0.730469 C 54.625 0.910156 54.691406 1.140625 54.875 1.242188 C 56.050781 1.878906 56.894531 2.925781 57.25 4.195312 C 57.609375 5.464844 57.433594 6.796875 56.761719 7.949219 C 56.652344 8.132812 56.71875 8.359375 56.902344 8.460938 C 56.992188 8.507812 57.097656 8.519531 57.199219 8.492188 C 57.296875 8.464844 57.378906 8.402344 57.433594 8.3125 C 58.207031 6.984375 58.410156 5.449219 58 3.984375 " fill-opacity="1" fill-rule="nonzero"/></g></g></g></g></g></svg>